<svg width="248" height="163" viewBox="0 0 248 163" fill="none" xmlns="http://www.w3.org/2000/svg">
<g clip-path="url(#clip0_695_360)">
<path d="M239.723 113.769C243.51 99.5241 222.628 83.9429 211.028 93.6162C214.65 79.5677 202.116 60.1231 186.546 68.4633C168.39 78.3129 176.355 111.175 184.733 124.437C184.939 124.778 185.213 124.842 185.571 124.807C184.608 125.17 184.551 126.798 185.733 126.955C197 128.402 208.749 130.253 220.143 129.794C228.664 129.43 237.567 122.178 239.723 113.769Z" fill="#394D8C"/>
<path d="M234.587 101.73C240.403 109.647 236.664 119.74 228.506 124.938C221.972 128.988 213.755 127.43 206.596 126.763C199.807 126.24 193.005 125.539 186.19 124.658C186.011 124.675 185.915 124.594 185.832 124.692C186.176 124.479 186.424 124.185 186.301 123.746C180.795 110.39 174.142 92.5466 180.801 78.2076C185.199 68.5019 195.771 66.6795 203.485 73.514C209.95 79.296 211.681 89.1366 207.492 96.839C206.775 98.0794 208.739 99.0635 209.455 97.8231C209.634 97.806 209.717 97.7079 209.978 97.5928C218.085 89.3353 228.771 93.8122 234.587 101.73Z" fill="white"/>
<path d="M235.138 110.241C235.611 106.95 233.406 101.572 229.999 100.546C229.724 100.482 229.393 100.874 229.503 101.134C230.147 102.515 231.314 103.665 232.04 104.948C232.89 106.669 232.928 108.379 233.338 110.232C233.584 111.11 235.041 111.332 235.138 110.241Z" fill="#394D8C"/>
<path d="M230.073 106.308C229.801 103.9 228.554 101.676 226.646 100.236C226.069 99.7501 225.326 100.633 225.902 101.118C227.536 102.495 228.303 104.314 228.464 106.462C228.545 107.536 230.154 107.382 230.073 106.308Z" fill="#394D8C"/>
<path d="M183.622 103.72C183.048 102.062 182.212 100.52 181.815 98.8448C181.419 97.17 181.284 95.3799 180.888 93.7051C180.848 93.1681 180.05 93.3345 179.995 93.7905C179.344 97.098 180.505 101.765 182.412 104.377C182.741 105.157 184.047 104.581 183.622 103.72Z" fill="#394D8C"/>
<path d="M187.262 105.445C186.783 103.868 186.126 102.308 185.565 100.83C185.099 99.4317 184.538 97.953 183.729 96.7683C183.427 96.3464 182.726 96.5938 182.849 97.0328C183.053 98.5457 183.601 99.8455 184.162 101.324C184.641 102.901 185.12 104.478 185.86 105.94C186.284 106.8 187.508 106.323 187.262 105.445Z" fill="#394D8C"/>
</g>
<path d="M114.883 32.5082C111.682 33.2688 108.48 34.0294 105.117 35.0547C105.045 31.907 104.719 27.6893 103.804 23.8378C108.032 21.703 112.106 18.9264 115.917 15.9865C114.982 18.6951 113.834 21.4545 112.422 24.0506C111.609 25.374 112.819 26.669 114.099 26.3648C117.351 25.8182 120.654 25.4855 123.957 25.1528C121.915 26.9945 119.872 28.8361 117.83 30.6777C117.454 30.9931 117.342 31.4718 117.444 31.8997C116.59 32.1026 115.736 32.3054 114.883 32.5082Z" fill="white"/>
<path d="M32.4647 41.4668C33.8067 45.217 35.6571 51.1068 38.9806 53.708C34.7633 54.9361 30.546 56.1642 26.3286 57.3923C26.0135 57.0151 25.7493 56.8518 25.3225 56.9532C24.1537 56.7788 23.3001 56.9816 22.3956 56.9705C18.3609 56.1207 14.6005 54.5276 10.9519 52.4558C15.1592 52.1343 19.1531 51.8635 23.3095 51.328C24.6408 51.2378 24.8234 49.1599 23.7664 48.5068C20.2803 46.1704 17.2211 43.7325 14.2735 40.816C19.9546 41.9527 25.9099 42.3461 31.6619 41.8836C32.0888 41.7822 32.3022 41.7315 32.4647 41.4668Z" fill="white"/>
<path d="M89.8524 34.3868C91.2955 33.8179 90.787 31.6781 89.2932 32.0331C84.2831 32.7714 79.0904 35.5876 75.3306 38.7415C74.9647 38.1503 74.5987 37.5591 74.0702 37.2325C74.2836 37.1818 74.4462 36.9171 74.6596 36.8664C78.3478 30.5648 83.0014 23.5816 89.2204 19.3913C91.7405 17.6622 94.9517 15.995 98.0618 18.6468C99.4847 19.8911 99.9831 22.9375 100.339 24.4353C100.99 28.1236 101.427 31.8626 102.505 35.4494C102.556 35.6634 102.556 35.6634 102.556 35.6634C97.2715 37.1451 92.038 38.8407 86.7536 40.3224C83.1765 41.3983 79.5486 42.2604 75.9715 43.3364C76.4083 42.3283 76.3675 41.2078 76.1133 40.1379C76.3267 40.0872 76.3267 40.0872 76.5401 40.0365C80.7167 37.6878 85.0457 35.981 89.8524 34.3868Z" fill="white"/>
<path d="M49.8418 33.947C47.8188 29.2285 41.0807 27.4386 36.7008 28.9314C35.4712 29.4497 35.8779 31.1615 37.1584 30.8572C39.3433 30.5641 41.3657 30.5357 43.378 31.4139C45.2277 32.5568 46.4373 33.8518 47.9619 35.524C48.8563 36.4417 50.3602 35.1802 49.8418 33.947ZM63.6951 46.7053C56.9169 48.5419 50.3521 50.3278 43.6247 52.3784C43.3705 51.3085 41.7241 51.0215 40.8604 52.131C42.0492 50.4922 36.7127 42.2658 35.8283 40.4415C33.602 34.867 30.0845 25.7564 39.617 25.0738C47.8181 24.4815 56.8843 32.2737 62.2509 37.7802C61.5498 38.625 60.8995 39.6837 60.7269 40.855C60.6151 41.3336 60.7168 41.7616 60.6051 42.2402C56.357 41.4412 51.6313 40.5295 47.1089 40.4738C45.991 40.5134 45.8692 41.8986 46.8245 42.1238C51.0118 43.6155 55.6358 44.0991 59.8839 44.8982C60.3616 45.0108 61.0018 44.8586 61.1135 44.38C61.8454 45.5624 62.689 46.2662 63.6951 46.7053Z" fill="white"/>
<path d="M91.2967 120.171C79.3552 117.357 68.6025 112.904 60.1359 103.839C55.562 98.8221 44.5746 86.7392 58.0394 81.7314C65.8947 78.7347 74.5441 85.7217 79.7582 90.5863C80.9169 91.6673 82.5224 90.8337 82.9593 89.8257C83.3353 89.5103 83.6096 88.767 83.2945 88.3897C80.4787 83.1814 88.7703 74.4296 92.9977 72.2949C96.4222 70.5769 104.207 69.1794 107.469 72.4732C111.098 76.3582 111.465 86.4434 110.134 91.2807C107.138 102.391 102.973 113.327 93.004 119.765C92.4146 120.131 92.3029 120.61 92.1911 121.088C92.1403 120.874 91.8252 120.497 91.2967 120.171Z" fill="white"/>
<path d="M26.9284 60.8665C56.0637 53.4917 84.894 44.833 113.714 37.0809C129.405 32.9006 135.049 66.1458 138.171 77.385C140.215 85.0374 142.207 92.4758 143.824 100.23C145.756 108.361 151.561 122.353 143.086 128.436C137.67 132.209 127.863 133.635 121.512 135.37C113.931 137.624 106.086 139.714 98.4537 141.753C84.4704 145.528 69.9485 149.883 55.5585 151.946C48.3635 152.977 41.4321 149.425 38.8498 142.352C37.9247 139.407 37.2129 136.412 36.5011 133.416C34.4574 125.764 32.4137 118.111 30.37 110.459L24.9098 89.3769C24.0455 85.7394 14.7534 59.9164 25.1194 60.8442C25.3328 60.7935 25.8105 60.9061 25.9731 60.6414C26.2373 60.8047 26.715 60.9172 26.9284 60.8665ZM68.471 119.942C67.414 119.289 66.1743 120.714 67.0688 121.632C69.1219 123.631 71.7644 125.263 74.3052 126.468C76.846 127.673 80.1288 129.153 82.9539 128.708C84.021 128.455 84.3053 126.805 83.2991 126.366C81.1851 125.059 78.4717 125.026 75.9817 124.035C73.2783 123.095 70.8492 121.412 68.471 119.942ZM68.1873 126.339C67.1303 125.686 66.1549 127.274 67.2119 127.928C72.9745 131.305 80.0177 134.379 86.8267 134.57C88.4222 134.643 88.93 132.035 87.2836 131.748C80.4847 130.651 74.3768 129.616 68.1873 126.339ZM113.346 94.3603C115.895 85.1644 118.557 75.4899 109.42 69.2969C101.868 64.0835 92.3156 66.5793 86.3408 72.7461C83.8107 75.3817 79.7057 80.8782 79.6046 85.1973C73.9637 80.4341 67.4591 76.7804 59.949 77.4345C53.3434 78.0999 46.0574 82.5437 47.41 90.1342C48.6509 98.2034 56.9651 106.626 63.0328 111.288C71.1028 117.735 80.9002 121.962 91.2153 122.676C91.9064 122.738 92.445 122.158 92.5567 121.679C92.4349 123.065 93.9087 124.523 95.25 123.526C105.33 116.61 110.075 106.214 113.346 94.3603ZM107.68 58.1813C109.642 58.8456 111.654 59.7237 113.341 61.1313C115.029 62.5388 116.076 64.0985 117.387 65.8215C118.281 66.7392 120.314 65.8042 119.795 64.5711C118.036 60.0157 112.538 56.8011 107.914 56.3174C106.959 56.0923 106.725 57.9562 107.68 58.1813ZM116.106 66.1257C112.539 61.5481 106.024 58.801 100.323 59.4774C98.9915 59.5677 99.2866 61.7582 100.618 61.6679C106.096 61.9487 110.171 63.9191 113.901 68.232C114.999 70.0057 117.367 67.6347 116.106 66.1257Z" fill="white"/>
<path d="M108.128 56.2666C112.752 56.7503 118.301 60.1789 120.009 64.5203C120.527 65.7534 118.495 66.6884 117.601 65.7707C116.127 64.3124 115.242 62.4881 113.555 61.0805C111.868 59.673 109.856 58.7948 107.894 58.1306C106.726 57.9562 106.959 56.0922 108.128 56.2666Z" fill="#394D8C"/>
<path d="M116.107 66.126C117.418 67.8489 114.999 70.0059 113.739 68.497C110.273 64.3473 105.933 62.2137 100.456 61.9328C99.0734 61.8091 98.8292 59.8326 100.16 59.7424C106.024 58.8012 112.488 61.3344 116.107 66.126Z" fill="#394D8C"/>
<path d="M74.3056 126.468C71.7647 125.264 69.1222 123.631 67.0691 121.632C66.1747 120.714 67.4143 119.29 68.4713 119.943C70.9004 121.626 73.2787 123.096 75.9821 124.036C78.4721 125.026 81.1855 125.06 83.2995 126.366C84.3057 126.805 84.0213 128.455 82.9543 128.708C80.1291 129.154 76.8464 127.673 74.3056 126.468Z" fill="#394D8C"/>
<path d="M67.2121 127.927C66.1551 127.274 67.1305 125.686 68.1875 126.339C74.3262 129.402 80.4849 130.651 87.2838 131.748C88.9302 132.035 88.4224 134.643 86.8269 134.57C80.0179 134.379 72.9748 131.305 67.2121 127.927Z" fill="#394D8C"/>
<path d="M36.7515 29.1454C41.1314 27.6526 47.8695 29.4424 49.8925 34.161C50.4109 35.3942 48.907 36.6557 47.9618 35.524C46.4371 33.8518 45.2276 32.5568 43.4287 31.6279C41.4164 30.7497 39.3432 30.5641 37.2091 31.0712C35.8778 31.1615 35.4711 29.4497 36.7515 29.1454Z" fill="#394D8C"/>
<path d="M110.185 91.495C111.516 86.6577 111.148 76.5725 107.52 72.6875C104.471 69.343 96.6353 70.5266 93.0482 72.5092C89.0342 74.5932 80.7427 83.345 83.345 88.6041C83.7109 89.1953 83.3858 89.7246 83.0098 90.04C82.573 91.048 80.9674 91.8817 79.8087 90.8006C74.5438 85.7221 65.9452 78.949 58.0899 81.9457C44.6251 86.9535 55.3991 99.0871 60.1864 104.053C68.6531 113.118 79.4566 117.785 91.3472 120.385C91.8249 120.497 92.14 120.875 92.2925 121.517C92.4042 121.038 92.7294 120.509 93.1053 120.193C103.023 113.542 107.188 102.605 110.185 91.495ZM109.42 69.2973C118.557 75.4904 115.895 85.1649 113.346 94.3608C110.075 106.215 105.331 116.61 94.8233 123.628C93.2685 124.675 92.0082 123.167 92.1299 121.781C92.069 122.474 91.4797 122.84 90.7886 122.778C80.5242 122.278 70.7269 118.051 62.606 111.39C56.4875 106.514 48.4376 98.2546 46.9832 90.2361C45.6814 82.8596 53.13 78.151 59.5223 77.5364C67.2458 76.8315 73.7504 80.4853 79.1779 85.2992C79.2789 80.9801 83.3839 75.4836 85.914 72.848C92.3157 66.5797 101.919 64.2979 109.42 69.2973Z" fill="#394D8C"/>
<path d="M23.3094 51.328C19.153 51.8635 14.9965 52.399 10.9518 52.4558C14.3871 54.5783 18.1475 56.1714 22.3956 56.9705C23.2492 56.7677 24.3671 56.7281 25.3224 56.9532C25.7492 56.8518 26.0135 57.0151 26.3286 57.3923C30.5459 56.1642 34.7632 54.9361 38.9806 53.708C35.8704 51.0561 33.8066 45.2169 32.4647 41.4668C32.3021 41.7315 32.0887 41.7822 31.6619 41.8836C25.6965 42.3968 19.9545 41.9527 14.2735 40.816C17.221 43.7325 20.3311 46.3843 23.8172 48.7208C24.8234 49.1599 24.8541 51.1871 23.3094 51.328ZM66.4795 45.1395C66.7438 45.3028 67.008 45.4661 67.1097 45.894C68.3902 45.5898 69.6706 45.2855 70.6868 44.818C70.5343 44.1761 70.8086 43.4328 71.4997 43.4946C73.6846 43.2015 72.1192 40.4087 71.2756 39.7049C70.2186 39.0519 68.999 38.6635 67.8811 38.703C64.2632 38.6584 61.7538 44.2279 66.4795 45.1395ZM40.8096 51.917C41.4599 50.8583 43.1063 51.1453 43.5739 52.1644C50.3521 50.3278 56.8661 48.328 63.6443 46.4914C62.6382 46.0523 62.008 45.2978 61.3778 44.5433C61.0018 44.8587 60.6259 45.1741 60.1482 45.0615C55.9001 44.2624 51.2252 43.5648 47.0888 42.2871C46.1335 42.062 46.4179 40.412 47.3732 40.6371C51.6821 40.7436 56.4079 41.6552 60.8694 42.4036C60.7677 41.9756 60.8794 41.4969 60.9912 41.0183C61.1638 39.847 61.814 38.7883 62.5152 37.9435C57.1485 32.437 48.0316 24.4308 40.0438 24.9724C30.0337 25.5424 33.5512 34.6531 35.7775 40.2276C36.7128 42.2659 41.9984 50.2782 40.8096 51.917ZM102.393 35.9281C102.342 35.7141 102.342 35.7141 102.342 35.7141C101.265 32.1272 100.827 28.3883 100.176 24.7C99.7694 22.9882 99.2711 19.9418 97.899 18.9115C94.7888 16.2597 91.6285 18.1409 89.0576 19.656C82.8386 23.8463 78.3984 30.7787 74.4968 37.1311C74.3342 37.3958 74.1208 37.4465 73.9074 37.4972C74.4868 38.0377 74.8019 38.4149 75.1678 39.0062C78.8767 35.6383 84.1203 33.0361 89.1304 32.2977C90.6242 31.9428 91.1835 34.2965 89.6896 34.6515C84.8321 36.0317 80.503 37.7385 76.1639 40.3519C75.9505 40.4026 75.9505 40.4026 75.7371 40.4533C75.9405 41.3092 76.0321 42.6437 75.5952 43.6518C79.1723 42.5758 82.8003 41.7137 86.3774 40.6377C91.8244 38.8914 97.1087 37.4097 102.393 35.9281ZM104.018 23.7873C104.984 27.8528 105.309 32.0704 105.33 35.0042C108.48 34.0296 111.895 33.2183 115.096 32.4577C115.95 32.2549 116.803 32.052 117.657 31.8492C117.555 31.4213 117.667 30.9426 118.043 30.6272C120.034 28.5716 122.077 26.73 124.17 25.1023C120.867 25.435 117.565 25.7677 114.313 26.3143C113.032 26.6185 111.772 25.1096 112.635 24.0001C114.048 21.404 115.247 18.8586 116.13 15.936C112.106 18.9266 108.194 21.4386 104.018 23.7873ZM143.3 128.385C151.775 122.303 145.97 108.31 144.038 100.179C142.208 92.4759 140.428 84.9868 138.385 77.3344C135.263 66.0952 129.618 32.85 113.928 37.0303C84.8942 44.8331 56.0639 53.4918 27.142 60.8159C26.7152 60.9173 26.5018 60.968 26.2375 60.8048C26.0241 60.8555 25.5973 60.9569 25.3839 61.0076C14.7536 59.9165 24.0457 85.7395 24.91 89.3771L30.5327 110.194C32.5765 117.847 34.6202 125.499 36.6639 133.152C37.3757 136.147 38.0874 139.143 39.0126 142.088C41.3306 148.997 48.5263 152.712 55.7213 151.681C70.1113 149.618 84.6332 145.263 98.6165 141.489C106.248 139.449 114.094 137.359 121.675 135.106C128.24 133.32 137.884 132.159 143.3 128.385ZM129.871 24.4259C127.026 26.6843 124.232 29.1567 121.437 31.6291C123.246 31.6514 124.944 32.1524 126.58 33.3459C130.432 36.2736 131.734 43.6502 133.177 47.8282C136.014 55.9704 138.423 64.214 140.782 72.2436C143.497 81.7711 146.049 91.5632 148.124 101.243C149.547 107.234 151.916 114.357 151.581 120.54C150.922 131.999 139.835 133.73 130.811 136.552C113.566 141.78 96.0054 146.63 78.5058 150.788C68.689 153.121 52.9683 160.021 43.0793 154.459C33.1903 148.897 31.8973 131.119 29.4469 121.755C25.217 104.902 18.3854 87.5365 15.9136 70.4916C15.2727 65.8967 15.9632 61.2115 18.971 58.6884C14.2452 57.7768 9.69208 55.6939 5.7892 52.5522C4.68136 51.6852 5.12826 49.7706 6.72381 49.8436C10.7685 49.7867 14.9758 49.4652 19.1323 48.9297C15.2802 46.0021 11.8042 42.759 8.70411 39.2006C7.75883 38.0688 8.68339 36.2668 10.1164 36.6044C17.3321 38.5068 24.2428 39.1253 31.5903 38.7359C29.8316 34.1805 28.032 28.5046 31.375 24.5456C40.2252 13.4005 58.3574 28.985 64.1308 36.2033C65.0961 35.5218 66.3766 35.2176 67.7079 35.1273C69.2526 34.9863 70.9498 35.4873 72.4336 36.0389C72.3828 35.825 72.332 35.611 72.5454 35.5603C76.0911 27.7101 84.006 14.5267 93.7519 13.7934C98.8637 13.483 101.75 17.0922 103.296 21.6982C108.123 18.2908 113.112 14.6187 117.573 10.62C118.863 9.40919 120.5 10.6028 120.215 12.2527C119.535 16.0313 118.326 19.4833 116.853 22.772C120.796 22.2872 124.952 21.7517 128.997 21.6949C130.328 21.6046 131.05 23.6937 129.871 24.4259Z" fill="#394D8C"/>
<defs>
<clipPath id="clip0_695_360">
<rect width="73" height="55" fill="white" transform="translate(191.781 60.3003) rotate(40.1144)"/>
</clipPath>
</defs>
</svg>
