<svg width="96" height="92" viewBox="0 0 96 92" fill="none" xmlns="http://www.w3.org/2000/svg">
<path d="M72.0871 84.1923C74.3352 79.0147 76.5271 73.9666 78.6451 68.7325C83.0851 58.5068 87.4513 48.0952 91.8912 37.8695C92.1723 37.2223 91.8207 36.6081 91.2267 36.1963L77.7228 29.5638C78.3973 28.0105 78.7554 26.4737 78.9626 25.6406C79.0011 25.1959 78.8534 24.8241 78.5934 24.7111C77.9883 21.8331 73.8059 20.7863 71.7715 22.9798C71.7153 23.1093 71.6029 23.3681 71.6767 23.554C71.2095 24.2742 70.7037 25.4392 70.2717 26.79C63.1048 22.2936 54.9296 19.0516 46.8635 16.6262C46.9792 15.2919 46.8348 13.8446 46.6904 12.3973L46.6165 12.2114C46.6793 9.93102 44.1169 8.35692 41.9205 8.78782C41.6042 8.80433 41.4918 9.06321 41.4356 9.19265C41.4356 9.19265 41.2494 9.26562 41.1932 9.39506C40.5011 10.633 39.4927 11.8874 38.8007 13.1254C35.1241 10.9136 28.333 5.19579 24.4153 8.87918C22.2508 11.0162 20.7797 17.6081 19.7295 20.3828C17.8363 25.0991 15.9431 29.8153 14.106 34.4022C12.0442 39.5068 9.98232 44.6114 8.05052 49.7725C6.94411 52.6766 4.25296 56.7387 4.63325 60.1346C5.26708 65.7942 14.3592 67.2805 18.5206 69.0874C28.2741 73.3224 38.1575 77.6137 47.9109 81.8487C52.5926 83.8814 57.218 86.0436 61.9559 87.9469C63.6464 88.681 66.5427 90.5539 68.5738 89.4359C70.6787 88.5037 71.4127 85.7455 72.0871 84.1923ZM77.1772 25.4808C77.1772 25.4808 77.121 25.6103 77.1772 25.4808C76.4819 27.7942 73.9109 35.1392 71.7067 32.0284C71.0212 31.1154 71.5303 28.8749 71.6636 27.8559C71.9656 26.4486 72.3975 25.0977 72.9596 23.8034C73.0158 23.6739 73.072 23.5445 72.9419 23.488C74.6181 22.8312 76.6989 23.7347 77.1772 25.4808ZM42.7361 9.75731C43.3125 9.85373 43.8326 10.0796 44.2966 10.4349C44.7606 10.7902 45.0383 11.2185 45.2599 11.7762C45.0174 11.9786 44.905 12.2375 44.9226 12.5528C45.1409 14.186 45.433 16.0051 44.8886 17.6148C44.288 19.354 42.4608 20.7144 40.7349 19.3497C37.8034 16.8461 41.4258 12.4191 42.6237 10.0162C42.6237 10.0162 42.6799 9.88675 42.7361 9.75731ZM26.194 11.19C28.861 8.96341 35.1914 13.2505 38.3125 14.6057C38.0315 15.2529 37.8805 15.9565 37.9896 16.7731C38.0393 18.7946 38.9254 21.0255 41.1185 21.67C42.9215 22.1452 44.654 21.359 45.7185 19.9751C46.0734 19.5138 46.4844 18.9231 46.5792 18.3489C54.6806 21.405 62.2409 24.9953 69.875 28.7716C69.4959 31.0685 69.6194 33.2759 71.5701 34.1229C73.7247 35.2122 75.478 33.6659 76.6936 31.5783C79.7584 33.063 84.4048 34.465 86.8724 36.6134C89.9516 39.4888 86.6841 43.4545 85.2967 47.0058C85.0157 47.653 84.7909 48.1708 84.5098 48.818C84.3798 48.7615 84.3798 48.7615 84.2498 48.705C63.5725 39.727 42.9724 29.8594 21.8632 22.2323C22.7271 19.5305 24.2544 12.8093 26.194 11.19ZM68.8085 85.6917C66.3278 87.8453 64.1379 86.1252 61.7971 85.1088C54.1244 81.7774 46.4517 78.4459 38.779 75.1144C31.4965 71.9524 24.344 68.8468 17.0614 65.6847C11.8596 63.4261 7.30473 62.5252 8.32949 55.8934C8.88043 52.1328 11.4977 47.8847 12.8852 44.3334C15.6038 37.3602 18.4525 30.4434 21.1711 23.4702C41.1563 33.6861 62.487 41.871 83.1643 50.8491C83.2943 50.9055 83.4244 50.962 83.4244 50.962C80.8391 56.9162 78.3838 62.9269 75.7985 68.8811C74.1124 72.7643 72.4825 76.518 70.9265 80.4577C70.3645 81.7521 69.7783 84.882 68.8085 85.6917Z" fill="#394D8C"/>
<path d="M66.7634 54.8043C65.2434 46.9138 51.7298 43.5076 47.0043 49.7633C46.3815 46.5699 45.1262 43.4095 42.3599 41.5931C39.7976 40.019 36.2269 39.6993 33.8586 41.594C26.5674 47.351 34.4288 61.995 39.0268 67.0682C39.4346 67.553 40.1234 67.3905 40.3482 66.8728C40.3482 66.8728 40.422 67.0587 40.5521 67.1151C40.6821 67.1716 40.6259 67.301 40.756 67.3575C41.1637 67.8422 41.8702 67.9951 42.4851 67.6468C42.5413 67.5173 42.6714 67.5738 42.7276 67.4444C42.9138 67.3714 42.97 67.2419 43.0262 67.1125C44.2175 66.8606 46.5054 66.9309 47.2681 66.9544C48.9057 66.7424 50.5434 66.5304 52.051 66.262C55.0101 65.8545 58.2116 65.2446 61.0053 64.15C64.6564 62.5046 67.6429 59.1861 66.7634 54.8043ZM55.4839 62.9834C52.04 63.7957 48.5784 64.2926 45.0429 64.6036C43.4615 64.6862 41.416 64.4134 40.2776 65.6114C40.2214 65.7408 40.109 65.9997 40.0528 66.1291C37.314 61.4016 34.4276 56.3023 33.6075 50.7155C33.3893 49.0823 32.9142 46.2608 33.9226 45.0063C35.4544 42.9023 38.6559 42.2924 40.7543 43.5112C43.9668 45.3676 44.5687 49.3212 44.8928 52.8464C44.981 54.4231 47.4375 54.1052 47.3493 52.5284C50.1208 46.5012 61.4446 48.1873 63.9024 53.5621C66.5817 59.4945 60.0068 62.178 55.4839 62.9834Z" fill="#394D8C"/>
<path d="M68.9552 49.7562C68.4913 49.4009 67.8939 50.0646 68.2279 50.3634C69.1735 51.3894 69.8028 52.4318 70.1334 53.8061C70.3341 55.124 70.0145 56.216 69.7687 57.4938C69.6178 58.1975 70.6581 58.6492 71.0692 58.0585C72.6958 55.3802 71.3313 51.4032 68.9552 49.7562Z" fill="#394D8C"/>
<path d="M73.8231 51.7163C73.2291 51.3046 72.5756 52.0977 73.1696 52.5095C74.7093 53.9472 74.889 56.0252 73.842 57.7244C73.3186 58.574 74.3942 59.6564 75.234 58.7903C76.7658 56.6862 75.9954 53.121 73.8231 51.7163Z" fill="#394D8C"/>
<path d="M32.5775 65.1913C32.2469 63.817 31.2274 62.6052 30.5243 61.3768C29.8773 60.019 29.4166 58.5882 29.0121 57.028C28.8468 56.3409 27.6555 56.5928 27.6345 57.3529C27.8528 58.9861 28.2573 60.5463 28.9042 61.9041C29.4211 63.2055 30.0295 65.008 31.2176 65.8316C31.8116 66.2433 32.7428 65.8785 32.5775 65.1913Z" fill="#394D8C"/>
<path d="M40.1664 22.7949C39.4247 22.0113 38.3105 21.3737 37.5688 20.5901C36.6232 19.5642 35.9939 18.5217 35.2907 17.2934C34.9954 16.5498 33.8779 16.9876 34.117 17.8607C34.8169 20.1645 36.9649 23.4048 39.5305 23.9034C40.1069 23.9998 40.6304 23.1502 40.1664 22.7949Z" fill="#394D8C"/>
</svg>
