<svg width="109" height="141" viewBox="0 0 109 141" fill="none" xmlns="http://www.w3.org/2000/svg">
<path d="M70.7378 13.9535C60.3296 2.79127 35.6674 11.917 37.4538 26.5025C33.3546 21.5134 27.1558 18.1661 20.6014 18.3474C12.8788 18.765 5.58119 24.4035 5.10693 32.6301C4.5411 41.6054 12.9899 50.7783 19.7996 55.341C28.5581 61.3596 39.8498 63.4336 50.4282 64.5076C49.3838 65.5952 48.3958 66.8418 47.8386 68.2934C46.9744 70.3912 46.1317 73.5559 47.5582 75.5557C48.6563 77.135 50.527 77.3653 52.2175 76.5852C51.442 80.4422 51.7325 84.2784 53.1912 87.8784C49.6758 88.0537 46.2705 91.055 48.0011 94.9164C48.8381 96.7676 50.6738 97.9057 52.6926 97.5461C54.3373 97.1405 55.9147 96.0425 56.9484 94.4215C60.0625 98.1492 64.0623 100.846 67.5963 104.245C66.315 104.163 64.988 104.456 63.8305 105.226C61.8331 106.652 60.9797 109.283 62.4062 111.283C63.8327 113.283 66.6213 114.082 68.7882 113.133C70.2175 112.625 71.262 111.537 72.0346 110.188C75.1 116.798 73.5384 123.979 67.5785 129.858C66.7952 130.674 67.9956 132.037 68.9943 131.324C75.8262 126.389 78.3543 116.895 74.6779 109.069C74.6214 108.91 74.6214 108.91 74.5649 108.751C75.4155 108.628 76.3684 108.289 76.7883 107.961C79.001 106.637 81.1357 104.087 79.9596 101.282C78.953 98.9543 75.8926 97.8935 73.6234 99.0583C71.9329 99.8384 70.9557 101.618 70.8856 103.434C68.8697 101.286 66.5926 99.4091 64.259 97.3736C62.7409 96.1226 61.3252 94.6562 60.1247 93.2923C61.9389 93.3636 63.7882 92.5271 64.7762 91.2806C66.7063 89.1619 66.3242 86.0745 64.4213 84.2441C62.5184 82.4137 59.5252 82.0453 57.482 83.846C56.6422 84.5027 56.1307 85.5799 55.9368 86.5441C54.2063 82.6827 53.7463 78.3696 54.8179 73.3329C54.9202 73.1175 55.1248 72.6866 55.1706 72.3122C55.8273 73.1531 56.5863 73.7786 57.6065 74.1322C59.6468 74.8394 61.8137 73.89 62.519 71.8486C64.5435 66.4731 57.9248 63.4542 53.5023 63.5939C62.3773 56.8574 69.0776 48.0291 72.5937 37.2886C74.8578 30.5745 76.5704 20.2961 70.7378 13.9535ZM52.5931 95.2536C51.2203 95.9207 49.9283 95.3056 49.4197 93.8749C48.6177 91.1158 51.2046 89.8381 53.5975 89.5246C53.8236 90.1604 54.2085 90.7399 54.5934 91.3193C53.4251 91.5556 52.1546 92.0073 50.9864 92.2435C50.5099 92.4129 50.736 93.0488 51.269 93.0384C52.596 92.7457 53.923 92.453 55.0913 92.2167C55.1478 92.3757 55.2043 92.5347 55.4196 92.6372C54.6928 93.6118 53.8072 94.6429 52.5931 95.2536ZM73.0876 101.577C74.3931 100.217 76.9557 100.381 77.9515 102.175C79.1169 104.447 75.507 107.879 73.1491 107.285C73.0926 107.126 73.0361 106.967 72.8208 106.864C72.8665 106.49 72.7535 106.172 72.5382 106.07C73.7522 105.459 75.125 104.792 76.3955 104.34C77.2919 103.842 76.681 102.627 75.7846 103.125C74.4118 103.792 73.0955 104.618 71.7226 105.285C71.5638 105.342 71.5638 105.342 71.4615 105.557L71.405 105.398C71.7469 103.844 72.1454 102.449 73.0876 101.577ZM70.6081 108.188C69.3805 110.773 66.7128 113.333 63.9943 110.719C62.3067 108.991 63.965 106.61 65.712 105.989C66.6649 105.651 67.7873 105.789 68.9097 105.927C69.5099 106.609 70.1667 107.45 70.6081 108.188ZM58.2168 85.9127C59.6811 84.4967 61.8237 84.9885 63.0242 86.3524C64.1681 87.5573 64.1545 89.5319 62.9512 90.6759C61.6456 92.0354 60.149 91.8512 58.3806 91.4055C58.1653 91.3029 58.0065 91.3594 58.0065 91.3594C57.8934 91.0414 57.6781 90.9389 57.5651 90.621C58.7226 89.8514 59.88 89.0817 61.0941 88.4711C61.6728 88.0863 60.9596 87.0864 60.3808 87.4712L57.226 89.6671C56.9327 88.3389 57.1158 86.8413 58.2168 85.9127ZM60.2985 70.1311C60.6483 71.6183 59.7734 73.1828 58.0615 72.8961C56.7237 72.6554 55.7951 71.553 55.343 70.2812C55.2299 69.9632 55.3322 69.7478 55.2192 69.4299C55.0497 68.9529 54.7778 68.6915 54.3472 68.4864C54.1318 68.3839 53.7577 68.3379 53.4966 68.6098C53.1789 68.7227 53.0766 68.9381 53.0308 69.3125C52.6324 70.7076 52.8799 72.4103 51.8355 73.4979C51.2109 74.2571 49.9969 74.8677 49.3295 73.4934C49.1034 72.8575 49.2407 71.7343 49.3888 71.1445C49.7658 68.6826 50.9018 66.8462 52.412 65.0559C52.4227 65.5892 52.5923 66.0662 53.1818 66.2147C55.5962 66.968 59.4858 66.8387 60.2985 70.1311ZM70.7043 33.4836C67.845 45.065 60.6332 54.9706 51.2359 62.2508C51.2359 62.2508 51.2359 62.2508 51.0771 62.3073C39.2982 59.8693 26.5772 58.3035 17.4474 49.7308C11.4668 43.9781 4.10825 33.3432 11.2041 25.6277C20.3324 15.578 32.3531 24.7345 38.479 32.4053C39.1922 33.4052 41.2568 32.6713 40.5894 31.297C40.5329 31.138 40.4763 30.979 40.4198 30.82C37.6105 18.3889 49.4007 10.7951 60.6816 12.3357C71.4296 13.8867 72.9255 24.636 70.7043 33.4836Z" fill="#394D8C"/>
<path d="M68.4443 106.63C68.0243 106.958 68.1939 107.435 68.568 107.481C68.568 107.481 68.568 107.481 68.4092 107.538C68.2504 107.594 67.8763 107.548 67.6609 107.446C67.128 107.456 66.7538 107.41 66.3339 107.739C65.914 108.067 66.3554 108.805 66.7753 108.477C67.354 108.092 68.1131 108.718 68.7483 108.492C69.2248 108.322 69.4859 108.05 69.4751 107.517C69.8386 107.03 69.2841 105.973 68.4443 106.63Z" fill="#394D8C"/>
<path d="M53.5675 16.4767C52.8864 17.077 53.5997 18.0769 54.3372 17.6356C56.13 16.6401 57.99 16.337 59.9738 16.8852C61.9575 17.4334 63.1014 18.6384 64.5172 20.1048C65.1174 20.7867 66.6033 20.4376 66.1511 19.1658C64.5122 14.5555 57.4034 13.6805 53.5675 16.4767Z" fill="#394D8C"/>
<path d="M57.8849 19.0603C57.0343 19.1836 57.1123 20.4094 58.0194 20.445C60.2078 20.5624 61.6128 21.4954 63.0851 23.1208C63.7418 23.9617 65.0581 23.1356 64.5037 22.0793C63.1795 19.864 60.2779 18.7468 57.8849 19.0603Z" fill="#394D8C"/>
<path d="M36.314 51.9772C31.6304 52.3888 27.6063 51.1334 23.8219 48.5393C23.1194 48.0728 22.1773 48.9449 22.9363 49.5704C26.4703 52.9697 31.6733 54.5223 36.5158 54.0542C37.8993 53.9205 37.6976 51.8434 36.314 51.9772Z" fill="#394D8C"/>
</svg>
