<svg width="107" height="150" viewBox="0 0 107 150" fill="none" xmlns="http://www.w3.org/2000/svg">
<g clip-path="url(#clip0_836_6289)">
<path d="M23.6687 124.23C25.7695 124.51 40.6151 127.731 41.4554 124.37C42.4357 120.869 32.492 116.247 28.5706 114.986C29.1308 110.364 29.831 105.883 30.5313 101.401C32.7721 103.782 34.8729 106.583 35.5732 109.664C35.8533 110.644 37.5339 110.785 37.674 109.664C37.814 108.264 37.9541 107.003 38.0941 105.602C39.2145 106.443 40.1949 107.423 41.3153 108.123C42.0156 108.544 42.7158 107.983 42.8559 107.283C43.136 104.622 42.1556 101.681 40.7551 99.1599C46.0771 100.14 51.3991 99.0198 52.0993 92.2971C52.6596 87.3952 51.119 84.3139 46.6373 82.2131C42.1556 80.1122 37.2538 82.3531 33.1923 84.7341C33.6124 81.3727 33.8925 77.031 37.814 76.3307C39.4946 76.0506 40.8952 75.4904 42.4357 74.6501C45.3768 73.1094 46.9174 69.8881 48.0378 66.947C50.5588 60.3643 50.9789 52.9414 51.8192 46.0786C52.9397 36.8349 54.7603 27.5912 55.6007 18.3475C55.6007 18.2075 55.6007 18.0674 55.6007 17.9274C56.0208 17.2271 55.7407 16.3868 54.4802 15.2663C51.5391 12.7453 46.4973 11.905 42.8559 11.2047C38.0941 10.2243 33.0522 9.66406 28.1504 9.80412C28.0103 9.80412 27.8703 9.66406 27.7302 9.66406C24.9292 9.80412 21.5679 10.9246 21.9881 12.8854V13.0254C19.8873 21.2887 19.3271 29.9722 18.2067 38.3755C17.2263 45.6585 15.4056 52.6613 15.5457 59.9442C15.5457 63.7257 16.5261 67.3671 18.7669 70.4484C19.6072 71.7089 20.7276 72.6893 21.9881 73.5296C25.7695 76.6108 25.2093 79.6921 24.509 83.8938C22.1281 80.3924 19.047 77.1711 15.1255 75.7705C11.4842 74.3699 7.70276 76.4708 6.44228 79.9722C4.90171 84.454 5.60197 89.6361 9.24333 92.9974C9.94359 93.6977 10.7839 94.1178 11.7643 94.398C9.24333 96.7789 7.42265 99.7201 6.44228 103.221C6.16218 104.202 7.14255 104.762 7.98286 104.342C9.24333 103.782 10.5038 103.081 11.7643 102.521C11.3441 103.642 11.064 104.902 10.7839 106.163C10.6439 107.003 11.4842 107.843 12.3245 107.283C15.5457 104.902 18.6268 102.381 22.2682 100.56C21.5679 105.042 21.0077 109.664 20.5876 114.146C15.6857 114.006 2.80092 114.006 5.60197 120.028C6.16218 121.289 9.38338 121.709 10.5038 121.849C14.8454 122.969 19.3271 123.67 23.6687 124.23Z" fill="#394D8C"/>
<path d="M22.5484 92.1569C21.568 89.6359 23.2487 87.255 25.7696 86.5547C28.0104 86.9749 31.0916 85.8544 32.4921 88.2354C34.1727 91.1765 32.4921 93.9777 29.551 94.6779C27.1701 95.3782 23.5288 94.6779 22.5484 92.1569Z" fill="#E7E9EF"/>
<path d="M40.7551 105.182C39.7747 104.342 38.7943 103.501 37.6739 102.801C36.9737 102.381 36.2734 102.941 36.2734 103.641C36.2734 104.062 36.1333 104.622 36.1333 105.042C34.8729 102.661 32.9121 100.56 30.9514 99.0196C31.0915 98.1793 31.2315 97.339 31.3716 96.4986C31.9318 96.3586 32.3519 96.0785 32.7721 95.7983C34.1726 96.7787 35.9933 97.6191 37.814 98.1793C39.2145 100.28 40.475 102.801 40.7551 105.182Z" fill="#E7E9EF"/>
<path d="M49.9987 91.1764C49.7186 98.0392 43.8364 98.0392 38.6545 96.2184C36.9738 95.6582 35.4333 94.9579 34.1728 94.1176C34.593 93.5574 34.733 92.8571 34.8731 92.0167C35.9935 92.717 37.394 92.9971 38.7945 92.8571C39.0746 92.8571 39.2147 92.4369 38.9346 92.2969C37.6741 91.8767 35.9935 91.5966 35.0131 90.6162C35.0131 90.056 35.0131 89.4957 34.8731 88.9355C35.5733 88.0952 36.8338 87.9551 37.5341 87.2548C37.8142 86.9747 37.5341 86.5546 37.2539 86.5546C36.2736 86.5546 35.1532 86.8347 34.3128 87.535C34.0327 87.1148 33.8927 86.5546 33.4725 86.2745C36.2736 84.8739 38.9346 83.4733 42.1558 83.1932C47.1977 83.0532 50.2788 86.8347 49.9987 91.1764Z" fill="#E7E9EF"/>
<path d="M27.7301 11.7646C27.8702 11.7646 27.8702 11.7646 27.8702 11.7646C33.3322 12.1848 38.6542 12.4649 43.9762 13.5854C46.077 14.0055 48.1778 14.7058 50.2786 15.4061C56.1608 17.5069 48.5979 17.9271 46.6372 17.7871C42.1555 17.647 37.8139 17.0868 33.4723 15.8263C31.9317 15.4061 30.5312 14.9859 28.9906 14.4257C26.8898 13.7254 22.4081 12.3249 27.7301 11.7646Z" fill="#E7E9EF"/>
<path d="M23.6689 14.7061C23.8089 14.8461 23.949 14.8461 24.089 14.9862C30.3914 18.7677 39.3547 19.608 46.4974 19.8881C47.4778 19.8881 50.9791 19.7481 53.36 19.0478C52.6597 27.171 51.1191 35.2943 49.9987 43.4175C49.8587 44.8181 49.5785 46.2187 49.4385 47.6192C48.3181 47.1991 47.0576 47.1991 45.6571 47.6192C43.6963 48.0394 42.4359 49.1598 40.3351 48.8797C38.5144 48.5996 36.8338 46.4988 35.4333 45.5184C33.4725 43.9778 31.5118 42.9974 28.9908 43.4175C27.8704 43.5576 26.61 44.2579 25.4895 44.678C23.1086 45.6584 21.288 43.9778 19.4673 42.8573C19.7474 41.4568 20.0275 40.0562 20.1675 38.7957C21.428 30.8125 21.9882 22.6892 23.6689 14.7061Z" fill="#E7E9EF"/>
<path d="M18.2069 63.4452C18.0668 62.7449 17.9267 62.0446 17.7867 61.3443C18.627 61.3443 19.6074 61.2043 20.1676 60.644C20.3076 60.504 20.3076 60.2239 20.1676 60.2239C19.6074 59.9438 19.0472 60.0838 18.487 60.0838C18.2069 60.0838 17.9267 60.0838 17.6466 60.0838C17.6466 59.3835 17.5066 58.8233 17.5066 58.123C17.7867 58.123 18.0668 58.2631 18.2069 58.2631C19.0472 58.4031 20.4477 58.5432 21.288 57.983C21.4281 57.8429 21.5681 57.7029 21.4281 57.5628C21.0079 57.0026 20.0275 56.8625 19.3273 56.8625C18.627 56.8625 18.0668 56.7225 17.5066 56.5824C17.5066 55.8821 17.5066 55.1819 17.6466 54.4816C19.3273 55.3219 21.4281 55.8821 23.3888 55.462C23.6689 55.3219 23.6689 55.0418 23.5288 54.7617C22.6885 54.2015 21.7082 54.0614 20.7278 53.7813C19.7474 53.5012 18.7671 53.2211 17.9267 52.6608C18.0668 52.1006 18.0668 51.4003 18.2069 50.8401C19.4673 51.5404 21.0079 52.1006 22.4084 52.3807C23.8089 52.6609 25.7697 53.081 27.0302 52.6608C27.3103 52.5208 27.4503 52.1006 27.1702 51.9606C26.1898 51.2603 24.5092 51.1202 23.3888 50.7001C21.7082 50.2799 20.0275 49.7197 18.487 48.8793C18.7671 47.4788 19.0472 46.0782 19.3273 44.5376C20.1676 45.518 21.4281 46.3583 22.6885 46.4984C26.4699 46.7785 29.411 43.6973 33.1925 45.658C35.7134 47.0586 37.394 49.2995 40.1951 50.2799C43.5563 51.5404 46.2173 47.7589 49.5786 49.0194C48.8783 55.3219 47.898 61.9045 45.237 67.6468C43.2762 72.1286 39.4948 72.8289 35.2932 73.9494C31.6519 74.9298 31.3718 80.9522 30.9516 84.1735C29.6911 83.8933 28.4307 83.7533 27.1702 83.8933C27.7304 80.6721 28.8508 75.49 26.61 73.2491C22.8286 70.3079 19.4673 68.6272 18.2069 63.4452Z" fill="#E7E9EF"/>
<path d="M8.12292 81.3725C9.24334 76.6106 13.4449 76.6106 16.8062 78.7114C19.4672 80.3921 21.1478 83.0532 23.2486 85.4341C22.6884 85.7142 22.1282 86.2745 21.708 86.8347C21.1478 85.7142 19.8873 84.5938 18.9069 84.3137C18.6268 84.3137 18.4868 84.4537 18.6268 84.7339C19.3271 85.8543 20.5876 86.6946 21.0077 87.9551C20.7276 88.5154 20.4475 89.0756 20.4475 89.6358C20.1674 89.4958 19.8873 89.6358 19.6072 89.6358C19.1871 89.7759 18.7669 89.9159 18.3467 90.056C18.2067 90.196 18.2067 90.4761 18.3467 90.6162C18.9069 90.7563 19.4672 90.7563 20.1674 90.6162C20.1674 90.8963 20.1674 91.3165 20.1674 91.5966C17.6465 92.577 15.1255 92.8571 12.4645 92.1568C8.12292 90.8963 7.2826 85.154 8.12292 81.3725Z" fill="#E7E9EF"/>
<path d="M13.3048 103.782C13.5849 102.941 13.865 102.101 14.4252 101.261C14.9854 100.42 14.0051 99.5801 13.3048 99.7202C11.9043 99.8602 10.5038 100.561 9.24329 101.261C10.3637 98.7398 11.9043 96.6389 13.865 94.6781C16.2459 94.9583 18.7668 94.5381 20.8676 93.6978C21.2878 94.5381 21.988 95.2384 22.8284 95.7986C22.8284 95.9387 22.6883 95.9386 22.6883 96.0787C22.5483 96.779 22.5483 97.4793 22.4082 98.3196C19.047 99.5801 16.2459 101.681 13.3048 103.782Z" fill="#E7E9EF"/>
<path d="M10.5039 117.227C14.1453 116.527 17.7866 116.387 21.5681 115.967C21.8482 115.967 22.1283 115.827 22.2683 115.686C22.6885 115.546 22.9686 115.266 23.1086 114.846C24.089 108.964 24.6492 102.941 25.4895 96.9189C26.6099 97.1991 27.8704 97.3391 28.9908 97.1991C28.0105 103.362 26.89 109.524 26.3298 115.827C26.1898 116.667 26.89 117.087 27.5903 116.947C31.2317 118.067 36.9738 123.53 39.3547 123.39C34.4529 123.81 29.1309 122.689 24.229 121.989C19.3272 121.289 14.2853 120.588 9.52355 119.328C6.30235 118.488 8.12303 117.647 10.5039 117.227Z" fill="#E7E9EF"/>
<path d="M91.4541 132.493C91.0339 128.852 90.4737 125.21 90.0536 121.569C92.2944 122.549 94.3952 124.09 96.496 125.35C97.4763 126.05 99.157 128.431 100.698 128.011C101.118 127.871 101.398 127.451 101.538 127.031C101.538 125.49 101.258 124.09 100.838 122.689C102.238 122.969 103.639 123.81 105.179 123.95C105.879 124.09 106.44 123.67 106.44 122.969C106.3 119.888 104.339 117.367 101.678 115.826C104.059 113.165 103.359 108.964 102.518 105.742C100.277 98.0393 92.0143 102.941 88.3729 107.003H88.2329C88.2329 107.003 88.2329 107.003 88.2329 106.863C87.2525 97.1989 99.0169 93.6975 99.8572 84.0337C100.557 76.3306 99.157 67.7872 98.0365 60.0841C96.7761 51.1205 95.7957 42.0169 93.6949 33.0533C93.6949 32.7732 93.5549 32.6331 93.4148 32.6331C92.8546 31.3726 91.0339 30.8124 89.9135 30.6723C89.7735 30.6723 89.7735 30.6723 89.6334 30.6723C81.9305 30.1121 73.9475 32.0729 66.3847 33.4734C63.8638 33.8936 58.5418 34.5939 57.5614 37.5351C57.4214 37.6751 57.2813 37.9552 57.2813 38.2353V38.3754C57.1413 38.6555 57.1413 38.9356 57.2813 39.2157C57.2813 44.5379 58.2617 50 58.8219 55.1821C59.5221 61.6247 60.3625 68.2073 61.2028 74.6499C61.903 80.1121 62.1831 86.4146 64.564 91.4566C68.2054 99.0197 78.2892 99.0197 80.1098 107.843C79.9698 107.983 79.9698 107.983 79.8297 108.123C79.6897 108.263 79.6897 108.263 79.5496 108.403C78.1491 105.462 73.5274 102.801 70.8664 101.961C66.3847 100.56 64.1439 104.062 63.7237 107.983C63.4436 111.345 63.7237 116.387 66.3847 118.908C67.225 119.748 68.2054 120.168 69.1858 120.308C68.2054 122.129 67.7852 124.23 67.3651 126.331C67.225 127.451 68.3454 128.011 69.1858 127.311C70.1661 126.471 71.1465 125.49 72.2669 124.79C72.1269 126.891 71.7067 128.992 71.9868 131.092C72.1269 131.933 72.9672 132.493 73.6674 131.793C75.068 130.252 75.6282 128.431 77.0287 126.891C78.5693 125.35 80.2499 123.95 82.0706 122.829C82.4907 126.611 82.9109 130.392 83.331 134.034C79.9698 135.014 69.0457 137.955 70.1661 142.297C71.4266 147.619 85.992 144.398 89.2132 143.978C91.7342 143.698 108.26 142.017 106.86 137.255C105.739 132.773 95.7957 132.493 91.4541 132.493Z" fill="#394D8C"/>
<path d="M79.4096 113.305C79.2696 111.064 80.39 109.664 81.9306 108.823C83.8913 107.983 85.9921 107.563 88.0929 108.683C88.0929 108.683 88.2329 108.683 88.2329 108.823C88.373 108.963 88.513 109.103 88.6531 109.103C91.5942 111.204 90.0536 115.546 86.9725 116.807C83.6112 118.207 79.6898 117.227 79.4096 113.305Z" fill="#E7E9EF"/>
<path d="M104.059 121.569C102.518 121.148 101.118 120.448 99.5772 120.588C99.017 120.728 98.4568 121.148 98.5968 121.849C98.8769 122.829 99.017 123.81 99.157 124.65C98.7369 124.37 98.4568 124.09 98.4568 123.95C97.3363 123.109 96.0759 122.409 94.9555 121.709C93.2748 120.728 91.7342 119.748 89.9136 119.328C89.7735 118.627 89.7735 118.067 89.6335 117.367C89.6335 117.227 89.6335 117.227 89.4934 117.087C92.5746 118.347 96.7761 118.768 99.8573 116.947C101.818 118.067 103.499 119.608 104.059 121.569Z" fill="#E7E9EF"/>
<path d="M99.7173 105.883C100.558 108.264 101.398 112.045 99.5773 114.146C97.7566 116.247 93.555 115.967 90.894 115.546C91.5943 114.426 91.8744 113.025 91.7343 111.765C92.2945 111.485 92.8547 111.205 93.415 110.785C93.6951 110.645 93.415 110.224 93.1349 110.224C92.5746 110.224 92.0144 110.504 91.5943 110.785C91.4542 110.504 91.4542 110.224 91.3142 110.084C92.1545 109.384 93.1349 108.824 93.8351 108.124C93.9752 107.983 93.8351 107.703 93.6951 107.703C92.5747 107.703 91.5943 108.404 90.754 109.104C90.6139 108.824 90.4739 108.684 90.1938 108.404C90.1938 108.404 90.0537 108.404 90.0537 108.264C92.9948 106.023 98.1767 101.821 99.7173 105.883Z" fill="#E7E9EF"/>
<path d="M95.0955 56.3027C95.6557 60.0842 96.356 64.1458 96.9162 68.2074C93.2748 68.9077 90.0536 65.4063 86.2722 66.3867C82.6309 67.3671 80.39 71.1486 76.1885 70.4483C72.9673 69.8881 71.5667 65.8265 67.9254 66.3867C65.5445 66.8069 64.284 67.7873 63.1636 69.3279C62.6034 64.566 62.0432 59.8041 61.483 55.0422C60.9228 50.4203 60.6426 45.6584 59.9424 41.1766C63.4437 42.4371 69.1858 41.3167 71.8468 41.0366C78.7094 40.4763 86.1322 39.636 92.0144 35.9945L92.1544 35.8545C92.9947 42.5772 94.1152 49.4399 95.0955 56.3027Z" fill="#E7E9EF"/>
<path d="M70.8664 34.4536C76.8887 33.3331 83.4711 31.9326 89.7735 32.6329C90.4737 32.7729 91.174 33.053 91.5942 33.4732C91.5942 33.4732 91.5942 33.4732 91.5942 33.6133C91.4541 33.8934 91.174 34.0334 90.8939 34.1735C86.4122 36.8345 81.5104 37.5348 76.4685 38.0951C73.2473 38.5152 62.6033 40.7561 59.2421 38.0951V37.955C60.7826 35.434 69.0457 34.7337 70.8664 34.4536Z" fill="#E7E9EF"/>
<path d="M68.7655 92.857C68.2053 92.4369 67.7852 91.8766 67.365 91.1764C67.6451 91.1764 67.9252 91.1764 68.2053 91.1764C69.0457 91.1764 70.3061 91.1764 70.7263 90.196C70.7263 90.0559 70.7263 89.9158 70.5862 89.9158C69.886 89.6357 69.0457 89.9158 68.2053 89.9158C67.6451 89.9158 67.0849 89.9158 66.5247 89.9158C66.2446 89.2156 65.9645 88.5153 65.8244 87.675C67.9252 88.2352 70.4462 88.3752 72.2669 87.3948C72.547 87.2548 72.4069 86.9747 72.1268 86.8346C69.886 86.5545 67.6451 86.5545 65.5443 86.1343C65.4043 85.4341 65.2642 84.7338 65.1242 84.0335C68.3454 84.5937 71.8467 84.7338 74.7878 83.6133C75.0679 83.4733 75.0679 83.0531 74.6477 83.0531C71.2865 83.0531 68.0653 83.1932 64.8441 82.4929C64.704 81.9327 64.704 81.3724 64.564 80.8122C65.1242 80.9523 65.8244 81.0923 66.2446 81.0923C67.7852 81.3724 69.6059 81.2324 71.1464 80.5321C71.5666 80.392 71.2865 79.8318 71.0064 79.8318C69.4658 79.6918 67.7852 79.6918 66.2446 79.4116C65.6844 79.2716 64.9841 78.9915 64.4239 78.8514C64.4239 78.5713 64.4239 78.4313 64.2839 78.2912C64.2839 78.1511 64.2839 77.871 64.1438 77.731C65.1242 78.0111 66.1046 78.1511 67.0849 77.871C67.365 77.731 67.365 77.4509 67.0849 77.3108C66.1046 76.6105 64.8441 76.6105 63.8637 76.0503C63.5836 74.3696 63.4436 72.689 63.1635 71.1483C64.9841 69.0475 67.0849 67.3668 70.1661 68.7674C72.9671 70.0279 74.0875 72.9691 77.8689 72.4088C81.3703 71.8486 83.331 68.9074 86.5522 68.0671C90.1936 67.0867 93.2747 70.5881 96.9161 69.8878C97.6163 75.21 97.8964 80.392 97.0561 85.294C95.5155 94.2576 85.1517 96.7786 85.8519 106.442C85.2917 106.442 84.8716 106.442 84.3114 106.442C83.7511 106.442 83.1909 106.583 82.4907 106.723C80.81 98.7394 74.3676 97.759 68.7655 92.857Z" fill="#E7E9EF"/>
<path d="M66.2448 109.944C66.1047 108.543 66.2448 107.283 66.5249 106.022C67.2251 103.081 70.5864 104.062 72.4071 105.042C74.2278 106.022 77.0288 108.263 78.0092 110.084C78.0092 110.224 78.1492 110.224 78.1492 110.224C78.0092 110.364 78.0092 110.504 77.8691 110.644C76.8887 109.804 76.0484 108.543 74.6479 108.543C74.3678 108.543 74.2278 108.963 74.5079 109.104C75.0681 109.384 75.6283 109.664 76.1885 110.224C76.7487 110.644 77.1689 111.064 77.589 111.484C77.589 111.625 77.449 111.905 77.449 112.045C76.6086 112.325 75.9084 112.885 75.2081 113.165C74.3678 113.585 73.5275 113.865 72.8272 114.426C72.6872 114.566 72.8272 114.846 72.9673 114.846C73.9476 114.846 74.788 114.426 75.6283 114.005C76.1885 113.725 76.7487 113.445 77.3089 113.165C77.3089 113.445 77.3089 113.585 77.3089 113.865H77.1688C74.6479 115.406 71.4267 118.207 68.2055 116.667C66.3848 115.966 66.3848 111.905 66.2448 109.944Z" fill="#E7E9EF"/>
<path d="M76.7488 123.809C75.9084 124.65 75.0681 125.35 74.3679 126.33C74.2278 126.47 74.0878 126.751 73.9477 127.031C74.0878 125.49 74.2278 124.089 74.2278 122.549C74.2278 121.709 73.3875 121.288 72.6872 121.709C71.7069 122.269 70.8666 122.829 70.0262 123.529C70.3063 122.269 70.7265 121.148 71.2867 120.028C73.8077 119.608 76.4687 117.927 78.4294 116.667C79.1297 117.787 80.2501 118.627 81.6506 118.907C81.6506 119.328 81.7906 119.748 81.7906 120.168C79.8299 121.148 78.2893 122.409 76.7488 123.809Z" fill="#E7E9EF"/>
<path d="M98.8769 139.356C96.2159 140.196 93.4149 140.616 90.6138 141.176C85.1518 142.017 78.2892 143.277 72.9672 141.877C71.2866 141.457 76.0484 138.655 76.4685 138.515C78.9895 137.115 81.7905 136.275 84.5916 135.434C84.8717 135.294 85.1518 135.154 85.1518 134.874C85.712 134.734 86.1321 134.454 85.9921 133.753C85.5719 128.852 85.0117 124.09 84.3115 119.188C85.2918 119.188 86.4122 119.048 87.3926 118.627C87.9528 123.389 88.6531 128.291 89.2133 133.053C89.2133 133.333 89.3533 133.473 89.3533 133.613C89.3533 134.174 89.7735 134.734 90.4738 134.594C94.6753 134.454 98.8769 135.014 102.798 136.275C107.14 137.675 100.277 138.936 98.8769 139.356Z" fill="#E7E9EF"/>
<path d="M38.9345 86.8346C39.0746 86.6945 39.2146 86.5544 39.2146 86.4144C39.2146 86.2743 39.2146 86.1343 39.0746 86.1343C38.7945 86.1343 38.6544 86.1343 38.5144 86.2743C38.0942 86.4144 38.5144 87.1147 38.9345 86.8346Z" fill="#394D8C"/>
<path d="M16.6661 90.8965C16.9462 90.8965 17.2263 90.8965 17.3664 90.7565C17.6465 90.6164 17.6465 90.1963 17.3664 90.0562C17.0863 89.9162 16.9462 89.9162 16.6661 90.0562C16.246 90.0562 16.1059 90.8965 16.6661 90.8965Z" fill="#394D8C"/>
<path d="M16.9463 83.3336C17.2264 83.4736 17.5065 83.6137 17.7866 83.6137C17.9267 83.6137 18.0667 83.4736 17.9267 83.3336C17.7866 82.9134 17.5065 82.6333 17.0863 82.4932C16.6662 82.3532 16.3861 83.1935 16.9463 83.3336Z" fill="#394D8C"/>
<path d="M94.3952 110.224C94.6753 110.084 94.9554 109.944 95.2355 109.664C95.3756 109.524 95.3756 109.384 95.2355 109.384C94.8154 109.103 94.3952 109.384 93.9751 109.664C93.695 109.804 93.9751 110.504 94.3952 110.224Z" fill="#394D8C"/>
<path d="M11.3442 52.9409C11.3442 52.3807 10.6439 52.2406 10.3638 52.6608C7.28266 57.9829 9.38344 67.5067 14.7054 70.728C14.8455 70.8681 14.9855 70.588 14.8455 70.588C13.8651 68.207 12.4646 66.2462 11.7643 63.7252C10.6439 59.9437 11.3442 56.5824 11.3442 52.9409Z" fill="#394D8C"/>
<path d="M90.1937 147.339C90.4738 147.199 90.4738 146.779 90.0536 146.779C81.2303 147.479 73.9476 149.86 65.9646 144.398C65.6845 144.258 65.4044 144.538 65.6845 144.818C71.5667 152.101 82.7709 150.28 90.1937 147.339Z" fill="#394D8C"/>
<path d="M30.3913 128.851C27.0301 128.571 23.5287 127.171 20.1675 127.451C19.8874 127.451 19.7473 127.871 20.0274 128.011C25.4895 130.812 34.7329 132.493 40.335 129.272C40.6151 129.132 40.4751 128.571 40.195 128.571C36.8337 128.711 33.7526 129.132 30.3913 128.851Z" fill="#394D8C"/>
<path d="M60.3625 101.401C53.64 104.762 54.9005 117.787 61.7631 120.448C62.0432 120.588 62.3233 120.168 62.0432 119.888C57.1413 114.286 56.7212 108.123 60.7827 101.961C61.0628 101.541 60.6426 101.261 60.3625 101.401Z" fill="#394D8C"/>
<path d="M51.6793 81.653C51.5392 81.793 51.3992 81.9331 51.5392 82.0731C51.8193 83.0535 52.9397 83.4737 53.4999 84.314C53.7801 84.7342 54.0602 85.2944 54.3403 85.8546C54.4803 86.1347 54.6204 86.2748 54.7604 86.5549C54.9005 86.835 54.9005 87.2552 55.1806 87.5353H55.3206C56.1609 86.5549 55.8808 84.7342 55.3206 83.7538C54.7604 82.6333 53.0798 80.6726 51.6793 81.653Z" fill="#394D8C"/>
<path d="M97.7565 97.4788C97.6164 97.6188 97.7565 97.7589 97.8965 97.7589C99.5772 98.039 101.118 98.039 102.798 98.7393C104.619 99.5796 105.319 101.26 106.02 102.941C106.16 103.081 106.3 103.221 106.44 102.941C109.381 98.4592 100.978 94.6776 97.7565 97.4788Z" fill="#394D8C"/>
<path d="M6.86249 111.625C5.60202 109.664 2.10071 112.325 1.40045 113.446C0.139975 115.266 -0.980444 119.188 1.68055 120.168C1.96066 120.308 2.24076 120.028 2.24076 119.748C2.10071 117.787 1.8206 116.387 2.80097 114.566C3.22113 113.726 4.06144 112.885 4.7617 112.325C5.46196 111.905 6.16223 112.045 6.86249 111.765V111.625Z" fill="#394D8C"/>
<path d="M78.4292 5.32222C77.0287 3.36144 74.6478 3.50149 72.6871 4.48188C71.0065 5.32222 69.886 7.00289 69.3258 8.96368C68.7656 8.12334 68.0654 7.42306 67.7852 7.283C66.9449 6.72278 66.1046 6.30261 65.1242 6.30261C62.6033 6.30261 61.6229 9.10373 61.4829 11.2046C61.2028 14.1458 62.6033 17.227 64.2839 19.3278C66.2447 21.7088 69.746 24.9301 72.6871 25.9105C73.1072 26.0505 73.3873 25.4903 73.1072 25.2102C72.9672 25.0701 72.6871 24.79 72.547 24.65C76.8886 20.3082 82.4907 10.9245 78.4292 5.32222Z" fill="#394D8C"/>
<path d="M64.8442 16.3867C63.7238 14.566 63.3036 11.9049 63.7238 9.80411C64.7041 5.46237 68.2055 11.2047 68.7657 12.3251C68.9057 12.6052 69.3259 12.8853 69.746 12.8853C69.746 12.8853 69.746 12.8853 69.8861 12.8853C70.5864 12.8853 71.0065 12.3251 71.0065 11.7649C71.1466 9.52399 71.9869 7.56321 73.8076 6.30271C76.3285 4.62203 77.589 7.84332 77.589 9.80411C77.729 14.2859 74.0877 19.8881 71.0065 22.9694C68.7657 21.0086 66.5248 18.9077 64.8442 16.3867Z" fill="#E7E9EF"/>
<path d="M80.6701 2.38098C81.0903 1.96081 81.7905 1.6807 82.0706 1.12047C82.3507 0.700304 82.0706 0.140079 81.6505 2.33836e-05C80.39 -0.280089 78.5693 1.82075 78.9895 3.08126C79.1295 3.22131 79.2696 3.50142 79.5497 3.36137C79.9698 3.22131 80.39 2.80114 80.6701 2.38098Z" fill="#394D8C"/>
<path d="M85.432 3.92159C84.0314 3.36137 81.6505 3.22131 80.6702 4.62187C80.5301 4.76193 80.6702 5.1821 80.9503 5.1821C81.3704 5.32215 81.9307 5.1821 82.4909 5.1821C83.4712 5.04204 84.1715 5.04204 85.0118 5.46221C85.9922 5.88238 86.4123 4.34176 85.432 3.92159Z" fill="#394D8C"/>
<path d="M81.6504 7.28307C81.5104 7.42313 81.5104 7.70324 81.6504 7.8433C82.2107 8.40352 83.3311 8.40352 83.8913 9.24386C84.3114 10.0842 85.5719 9.38391 85.1518 8.54358C84.4515 7.42313 82.6308 6.44273 81.6504 7.28307Z" fill="#394D8C"/>
<path d="M61.3429 5.74211C60.7827 4.48161 59.2421 3.64127 57.8416 3.78133C56.8612 3.78133 56.8612 5.32195 57.8416 5.32195C58.962 5.32195 59.8023 6.16228 60.9227 6.30234C61.2029 6.44239 61.483 6.16228 61.3429 5.74211Z" fill="#394D8C"/>
<path d="M57.7015 8.54338C56.7211 8.96354 57.4214 10.5042 58.2617 9.94394C58.6818 9.80388 59.2421 9.80388 59.5222 9.52377C59.6622 9.38371 59.8023 9.1036 59.6622 8.96354C59.3821 8.40332 58.4017 8.26326 57.7015 8.54338Z" fill="#394D8C"/>
<path d="M28.5705 53.2214C28.9907 53.2214 29.4108 53.2214 29.5509 52.9413C29.691 52.8012 29.691 52.6611 29.5509 52.5211C29.2708 52.241 28.7106 52.1009 28.4305 52.241C27.8703 52.241 28.0103 53.3614 28.5705 53.2214Z" fill="#394D8C"/>
<path d="M24.9292 54.4821C24.229 54.342 24.229 55.6025 24.9292 55.6025C25.2094 55.6025 25.4895 55.4624 25.9096 55.3224C26.0497 55.1823 26.0497 55.0423 25.9096 54.9022C25.6295 54.7622 25.3494 54.6221 24.9292 54.4821Z" fill="#394D8C"/>
<path d="M71.9869 89.0758C71.2867 89.3559 71.5668 90.3363 72.267 90.0562C72.8272 89.9161 73.2474 89.7761 73.6675 89.3559C73.8076 89.2159 73.8076 88.9357 73.6675 88.9357C73.1073 88.7957 72.6872 88.7957 71.9869 89.0758Z" fill="#394D8C"/>
<path d="M72.9673 79.832C72.4071 79.832 72.4071 80.8124 72.9673 80.8124C73.2474 80.8124 73.5275 80.8124 73.8076 80.5323C73.9476 80.3923 73.9476 80.2522 73.8076 80.1121C73.5275 79.832 73.2474 79.832 72.9673 79.832Z" fill="#394D8C"/>
<path d="M39.9149 66.8067C38.7945 66.1065 37.2539 66.2465 36.8338 67.6471C36.5537 68.4874 37.2539 69.3277 37.8142 69.7479C39.9149 71.1485 42.1558 68.2073 39.9149 66.8067Z" fill="#E7E9EF"/>
<path d="M91.454 80.6725C90.3336 79.9722 88.793 80.1122 88.3729 81.5128C88.0927 82.3531 88.793 83.1935 89.3532 83.6136C91.454 85.0142 93.6948 82.073 91.454 80.6725Z" fill="#E7E9EF"/>
<path d="M38.5144 64.4256C38.5144 65.2659 40.055 65.9662 40.6152 65.2659C41.5955 64.1455 41.0353 63.4452 40.195 63.1651C39.3547 62.885 38.6545 63.3051 38.5144 64.4256Z" fill="#E7E9EF"/>
<path d="M89.0732 87.3948C89.0732 88.2352 90.6138 88.9354 91.174 88.2352C92.1544 87.1147 91.5942 86.4144 90.7539 86.1343C89.7735 85.8542 89.0732 86.2744 89.0732 87.3948Z" fill="#E7E9EF"/>
<path d="M41.5955 65.8263C41.4555 66.1064 41.4555 66.5266 41.5955 66.8067C41.7356 67.0868 42.0157 67.2269 42.1557 67.2269C42.996 66.9467 42.5759 65.9663 42.0157 65.6862C41.8756 65.5462 41.5955 65.5462 41.5955 65.8263Z" fill="#E7E9EF"/>
<path d="M92.2944 85.5744C92.5745 86.1346 93.5549 86.1346 93.835 85.2943C93.975 84.8741 93.5549 84.4539 92.9947 84.3139C92.2944 84.1738 92.1544 85.1542 92.2944 85.5744Z" fill="#E7E9EF"/>
</g>
<defs>
<clipPath id="clip0_836_6289">
<rect width="107" height="150" fill="white"/>
</clipPath>
</defs>
</svg>
