<svg width="129" height="155" viewBox="0 0 129 155" fill="none" xmlns="http://www.w3.org/2000/svg">
<g clip-path="url(#clip0_836_6258)">
<path d="M127.624 52.8722C126.936 47.7055 126.248 43.7444 123.84 39.7833C124.184 34.9611 125.044 29.6222 123.152 25.1444C122.464 23.5944 120.916 23.2499 119.368 23.0777C117.304 22.7333 115.068 22.3888 113.004 22.3888C112.144 18.2555 110.252 14.2944 108.016 11.8833C99.0719 2.58328 81.3559 6.37217 69.8319 6.37217C59.1679 6.54439 42.8279 3.4444 33.7119 10.6777C30.4439 13.2611 28.2079 17.2222 26.8319 21.5277C22.7039 20.8388 16.5119 20.1499 15.1359 24.9722C14.2759 27.7277 14.7919 30.8277 15.1359 33.7555C15.3079 35.3055 15.3079 37.8888 16.3399 39.6111C15.9959 39.6111 15.8239 39.6111 15.8239 39.7833C7.3959 49.4277 7.9119 61.4833 9.1159 73.3666C9.1159 73.7111 9.2879 73.8833 9.4599 74.0555C9.4599 74.5722 9.6319 75.0888 10.3199 75.4333C11.0079 75.7777 11.8679 76.1222 12.5559 76.4666C11.3519 85.2499 12.3839 97.9944 22.8759 99.8888C27.0039 100.578 32.3359 99.7166 34.9159 96.2722C37.6679 92.6555 37.6679 86.2833 37.8399 81.6333C42.1399 82.1499 46.4399 82.6666 50.9119 82.8388C50.9119 85.7666 51.7719 88.5222 54.8679 89.5555C56.7599 90.2444 59.3399 90.0722 61.7479 89.8999C61.5759 90.0722 61.4039 90.0722 61.2319 90.2444C58.9959 92.3111 57.4479 94.5499 56.9319 97.6499C56.4159 100.405 57.2759 103.678 57.9639 106.433C59.3399 112.289 58.6519 116.25 52.2879 117.8C47.2999 119.006 41.6239 115.906 36.8079 118.144C30.9599 120.555 31.4759 126.067 32.6799 130.889C30.0999 131.922 27.6919 134.333 27.0039 136.744C25.6279 141.567 27.5199 147.078 30.0999 151.211C30.0999 153.45 32.8519 155 35.2599 155C38.6999 155 42.4839 152.761 43.3439 149.317C43.3439 148.972 43.5159 148.8 43.5159 148.455C45.0639 145.355 43.8599 140.706 42.8279 137.778C41.6239 134.505 39.3879 130.889 35.6039 130.2C34.9159 130.028 34.2279 130.2 33.3679 130.372C33.5399 126.583 32.3359 122.278 36.1199 119.867C38.5279 118.317 42.4839 119.178 45.0639 119.522C49.7079 120.039 54.0079 119.694 57.7919 116.767C62.6079 112.978 58.6519 104.883 57.9639 100.233C57.4479 95.7555 60.3719 91.9666 63.9839 89.8999C64.1559 89.7277 64.3279 89.7277 64.6719 89.5555C65.5319 89.5555 66.5639 89.3833 67.4239 89.2111C65.3599 91.4499 63.8119 94.0333 63.8119 97.4777C63.8119 101.439 67.5959 104.883 70.6919 106.778C71.0359 106.95 71.3799 107.122 71.7239 107.294C70.5199 110.05 69.8319 112.978 70.5199 115.733C71.3799 119.35 75.8519 121.417 79.1199 121.761C81.8719 122.105 84.4519 121.589 87.0319 120.9C85.4839 124.172 83.0759 127.272 81.5279 129.511C75.8519 128.65 71.5519 134.85 69.8319 140.017C68.9719 140.878 68.6279 142.255 69.1439 143.978C70.3479 147.422 74.6479 149.833 78.2599 149.317C79.8079 149.144 80.8399 148.283 81.3559 147.078C82.5599 146.044 83.4199 144.322 84.1079 143.117C85.3119 141.05 86.5159 138.983 87.3759 136.917C88.5799 133.472 86.3439 131.405 83.4199 130.2H83.2479C85.3119 127.617 87.5479 124.172 88.9239 120.556C91.5039 120.039 93.9119 119.522 96.6639 120.039C96.8359 120.555 97.0079 121.244 97.3519 121.761C100.448 126.928 109.048 123.311 112.144 119.867C112.316 119.522 112.488 119.35 112.488 119.006C115.756 115.389 110.94 106.433 106.64 108.672C101.824 109.189 96.1479 113.667 96.3199 118.661C94.0839 117.8 91.6759 118.144 89.4399 118.661C90.1279 115.561 89.9559 112.461 87.8919 109.878C84.9679 106.261 78.4319 106.778 74.1319 106.089C76.7119 100.578 79.6359 93.3444 76.5399 88.5222C78.0879 88.5222 79.8079 88.5222 81.3559 88.6944C82.7319 88.8666 83.5919 87.4888 83.4199 86.4555C83.5919 86.2833 83.7639 85.9388 83.7639 85.5944C83.7639 84.3888 83.7639 83.0111 83.7639 81.6333C88.9239 81.1166 94.2559 80.7722 99.2439 80.0833C99.4159 85.4222 99.4159 91.9666 102.512 96.6166C105.264 100.75 112.66 100.578 116.616 99.1999C125.56 96.4444 125.732 81.2888 124.528 73.1944C125.044 72.8499 125.732 72.5055 126.248 72.3333C126.936 72.1611 127.452 71.8166 127.624 71.1277C129.688 65.4444 128.312 58.7277 127.624 52.8722ZM88.5799 113.322C89.2679 115.217 89.0959 117.111 88.4079 119.178C87.7199 119.35 87.2039 119.522 86.5159 119.694C82.7319 120.728 79.2919 120.728 75.6799 119.006C71.0359 116.767 72.0679 111.944 73.7879 108.328C73.7879 108.156 73.9599 107.983 73.9599 107.811C79.4639 109.017 86.3439 107.294 88.5799 113.322ZM72.9279 105.744C69.8319 104.539 67.2519 101.611 66.2199 98.6833C65.0159 95.411 67.2519 92.1388 69.4879 89.3833C71.7239 89.0388 73.9599 88.8666 76.1959 88.6944C79.4639 94.2055 75.6799 99.8888 72.9279 105.744Z" fill="#394D8C"/>
<path d="M36.292 151.9C35.4321 152.072 34.4 152.072 33.54 151.728C32.8521 151.383 33.0241 150.178 32.8521 149.489C34.0561 148.283 35.432 147.25 36.808 146.389C38.7 145.356 40.592 145.011 40.592 147.594C40.764 150.178 38.528 151.383 36.292 151.9Z" fill="#E7E9EF"/>
<path d="M35.9482 133.817C38.3562 134.506 39.5602 138.122 40.2482 140.189C40.5922 141.05 40.5922 142.083 40.7642 142.945C40.0762 142.772 39.3882 142.772 38.5282 142.772C36.1202 143.289 33.1962 144.839 31.4762 146.906C30.7882 144.839 29.9282 142.945 29.5842 140.706C29.2402 137.606 32.1642 132.783 35.9482 133.817Z" fill="#E7E9EF"/>
<path d="M78.7758 146.561C76.7118 147.25 74.4758 145.7 73.0999 144.322C72.4119 143.633 71.7239 142.256 73.0999 141.739C73.9599 141.395 74.9918 141.567 75.8518 141.395C77.3998 141.739 78.6038 142.256 79.4638 143.806C79.8078 144.839 79.8078 146.217 78.7758 146.561Z" fill="#E7E9EF"/>
<path d="M84.4521 133.817C86.0001 134.678 84.7961 136.745 84.2801 137.778C83.5921 139.328 82.7321 140.706 81.7001 142.084C80.4961 140.189 78.4321 138.984 76.3681 138.984C75.6801 138.811 74.9921 138.639 74.1321 138.639C75.5081 136.056 77.0561 133.645 79.9801 132.784C81.3561 132.439 83.0761 133.128 84.4521 133.817Z" fill="#E7E9EF"/>
<path d="M110.94 113.495C111.456 114.7 111.972 116.767 110.596 117.628C109.392 118.317 108.188 115.906 107.844 115.217C107.156 113.839 107.156 112.634 108.188 111.6C108.36 111.428 108.36 111.428 108.36 111.256C109.564 111.084 110.424 112.289 110.94 113.495Z" fill="#E7E9EF"/>
<path d="M104.748 112.461C104.576 115.045 105.952 118.489 108.188 119.867C105.78 121.245 102.856 122.278 100.964 120.728C97.5243 117.973 101.308 114.528 104.748 112.461Z" fill="#E7E9EF"/>
<path d="M120.228 91.4502C118.68 96.2724 109.392 99.028 106.124 94.0335C103.716 90.4168 104.06 84.2168 104.06 80.0835C104.06 79.9113 104.06 79.9113 104.06 79.7391C106.124 79.3946 108.188 79.0502 110.252 78.5335C110.08 80.7724 109.564 83.1835 110.424 85.2502C110.596 85.5946 110.94 85.5946 111.112 85.2502C111.972 83.3557 112.144 80.2557 111.972 78.1891C112.832 78.0169 113.692 77.8446 114.38 77.5002C114.208 79.2224 114.208 81.1168 114.896 82.6668C115.068 83.0113 115.584 83.0113 115.756 82.6668C116.444 80.9446 116.616 78.878 116.444 76.8113C116.96 76.6391 117.476 76.4668 117.82 76.2946C117.476 78.878 117.304 81.8057 118.164 84.2169C118.336 84.7335 119.024 84.7335 119.196 84.2169C120.228 81.6335 120.056 78.3613 120.228 75.4335C120.744 75.2613 121.26 75.0891 121.948 74.7446C121.432 80.6002 121.948 86.1113 120.228 91.4502Z" fill="#E7E9EF"/>
<path d="M123.84 62.8612C122.808 63.0334 121.776 63.7223 120.744 64.239C119.884 64.7556 118.852 65.1001 117.992 65.2723C117.476 65.4445 117.476 64.0668 117.304 63.7223C117.132 62.0001 116.616 59.2445 118.508 58.5556C120.228 57.8668 121.948 57.0056 123.496 56.1445C123.668 58.3834 123.668 60.6223 123.84 62.8612Z" fill="#E7E9EF"/>
<path d="M116.444 26.3503C117.992 26.5225 119.884 26.0059 120.4 27.9003C121.088 30.3114 120.916 32.8947 120.572 35.4781C118.508 33.4114 116.1 31.8614 113.348 30.6559C113.52 29.2781 113.692 27.5559 113.52 26.0059C114.552 26.0059 115.412 26.1781 116.444 26.3503Z" fill="#E7E9EF"/>
<path d="M34.4002 16.017C40.4202 8.61147 55.3842 10.8504 63.6402 11.0226C75.1642 11.1948 86.8602 9.64481 98.2122 11.7115C108.016 13.4337 107.328 21.7004 108.532 29.1059C101.652 27.5559 94.0842 27.9004 87.2042 27.3837H87.0322C79.4642 17.9115 64.5002 13.9504 54.5242 21.1837C51.7722 22.5615 49.5362 24.6281 47.6442 27.2115C40.9362 27.7281 34.5722 28.5893 28.8962 30.6559C29.0682 30.1393 29.2402 29.4504 29.4122 28.9337C33.3682 27.5559 37.1522 27.0393 41.2802 26.0059C41.7962 25.8337 41.7962 25.1448 41.2802 25.1448C37.6682 24.2837 33.7122 24.8004 30.1002 26.1781C30.2722 25.6615 30.4442 25.1448 30.6162 24.4559C32.1642 24.2837 33.7122 24.2837 35.0882 23.767C35.6042 23.5948 35.6042 23.0781 35.0882 22.9059C34.0562 22.3893 32.5082 22.3893 31.1322 22.5615C31.8202 20.4948 32.8522 18.0837 34.4002 16.017Z" fill="#E7E9EF"/>
<path d="M21.6721 24.4561C23.0481 24.4561 24.4241 24.6283 25.9721 24.6283C25.4561 27.3838 25.1121 29.9672 25.1121 32.5505C23.0481 33.5838 20.9841 34.9616 19.0921 36.5116C19.0921 36.1672 18.9201 35.8227 18.9201 35.6505C18.5761 33.4116 18.2321 31.0005 18.2321 28.5894C17.8881 25.8338 18.9201 24.6283 21.6721 24.4561Z" fill="#E7E9EF"/>
<path d="M13.0722 57.3501C15.3082 57.8668 17.5442 58.2112 19.6082 59.4168C21.3282 60.4501 20.2962 63.3779 20.1242 64.7556C19.9522 65.6168 19.9522 66.4779 19.6082 67.1668C19.2642 68.3723 17.3722 67.5112 16.5122 67.1668C14.9642 66.8223 13.5882 66.3056 12.2122 65.9612C12.3842 63.2056 12.5562 60.2779 13.0722 57.3501Z" fill="#E7E9EF"/>
<path d="M32.5081 91.1058C31.4761 95.9281 27.0041 96.9614 22.5321 96.1003C14.9641 94.7225 15.9961 84.3892 15.6521 77.8447C16.3401 78.0169 17.0281 78.1892 17.7161 78.3614C17.5441 79.3947 17.7161 80.6003 17.7161 81.6336C17.7161 82.8392 17.8881 84.3892 18.4041 85.4225C18.5761 85.7669 19.0921 85.7669 19.2641 85.4225C19.7801 84.3892 19.7801 83.0114 19.9521 81.9781C20.1241 81.1169 20.2961 80.0836 20.2961 79.0503C20.9841 79.2225 21.6721 79.2225 22.3601 79.3947C21.5001 82.3225 21.5001 86.2836 22.5321 89.0392C22.7041 89.5558 23.3921 89.5558 23.5641 89.0392C24.5961 86.1114 23.7361 82.8392 24.5961 79.7392C24.9401 79.7392 25.2841 79.9114 25.6281 79.9114C25.4561 81.8058 24.7681 84.9058 25.9721 86.4558C26.1441 86.8003 26.6601 86.8003 26.8321 86.4558C27.3481 85.5947 27.3481 84.3892 27.3481 83.5281C27.3481 82.4947 27.3481 81.2892 27.5201 80.2558C29.7561 80.6003 31.8201 80.9447 33.8841 81.2892C33.5401 84.5614 33.3681 87.8336 32.5081 91.1058Z" fill="#E7E9EF"/>
<path d="M64.156 86.1114C61.404 86.2836 58.308 86.6281 55.384 86.1114C53.664 85.767 54.352 78.8781 54.352 75.7781C60.544 74.917 66.908 75.9503 72.928 75.0892C74.992 74.7447 79.636 73.1948 80.152 76.6392C80.496 79.2225 80.668 82.4947 80.84 85.2503C75.508 84.7336 69.832 85.767 64.156 86.1114Z" fill="#E7E9EF"/>
<path d="M83.5922 74.7447C82.9042 72.3336 80.6682 71.1281 78.2602 71.1281C73.6162 71.1281 68.8002 71.9892 64.1562 72.1614C60.3722 72.3336 56.0722 71.4725 52.4602 73.367C52.2882 73.5392 52.1162 73.5392 51.9442 73.7114C51.6002 73.8836 51.2562 74.4003 51.2562 74.917C51.0842 76.1225 50.9122 77.5003 50.7402 78.8781C37.6682 78.3614 24.0802 76.6392 11.5242 72.5058C11.5242 71.4725 11.6962 70.267 11.6962 69.2336C14.2762 70.0947 17.3722 71.6447 19.6082 70.9558C22.1882 70.267 22.5322 67.6836 22.7042 65.4447C23.0482 63.0336 23.7362 60.2781 22.1882 58.0392C20.4682 55.4559 16.3402 54.767 13.2442 54.2503C14.1042 50.2892 15.8242 46.5003 18.5762 43.0558C24.9402 34.9614 34.7442 33.4114 44.3762 32.5503C42.4842 37.0281 41.6242 42.0225 41.7962 46.5003C42.1402 61.8281 54.3522 70.267 68.9722 69.0614C86.6882 67.6836 96.1482 49.0836 89.7842 33.2392C89.6122 32.8947 89.6122 32.7225 89.4402 32.5503C100.62 32.8947 115.756 32.3781 120.572 44.2614C121.776 47.1892 122.292 50.117 122.636 53.217C121.088 53.5614 119.54 54.4225 117.992 55.1114C116.788 55.6281 115.584 55.9725 114.552 56.8336C112.316 58.5558 113.004 62.8614 113.348 65.1003C113.692 67.3392 114.896 69.0614 117.304 69.0614C118.68 69.0614 119.884 68.3725 121.088 67.8559C121.948 67.5114 122.808 67.167 123.668 66.6503C123.84 67.8559 124.012 68.8892 124.184 69.9225C111.8 75.6058 98.2122 76.6392 84.2802 77.6725C84.1082 76.6392 83.9362 75.6059 83.5922 74.7447Z" fill="#E7E9EF"/>
<path d="M87.376 38.9225C83.764 24.628 70.692 19.8058 58.48 23.9391C43 32.2058 41.28 61.3113 61.748 64.2391C76.368 66.3058 91.504 55.1114 87.376 38.9225ZM74.82 56.8336C65.704 60.278 55.384 58.3836 52.288 48.0502C49.88 39.7836 54.524 30.4836 62.952 28.2447C63.124 28.2447 63.296 28.2447 63.468 28.2447C70.004 26.6947 78.776 31.0002 81.356 36.6836C84.624 43.5725 82.56 53.9058 74.82 56.8336Z" fill="#E7E9EF"/>
<path d="M60.8883 32.2058C61.0603 32.2058 61.0602 32.2058 61.2322 32.0336C66.3923 29.7947 73.6163 32.7225 77.0563 36.5114C82.5603 42.1947 78.6043 51.6669 72.2403 54.0781C56.9322 60.1058 49.1922 39.6114 60.8883 32.2058Z" fill="#E7E9EF"/>
<path d="M111.112 87.4893C110.08 87.4893 110.252 89.2115 110.252 89.9004C110.252 90.9337 111.8 90.9337 111.8 89.9004C111.8 89.2115 111.972 87.4893 111.112 87.4893Z" fill="#394D8C"/>
<path d="M8.77212 43.5727C8.77212 43.4004 8.60012 43.2282 8.42812 43.4004C3.26812 49.0838 -3.95588 63.3782 2.75212 70.4393C3.09612 70.7838 3.78412 70.4393 3.61212 69.9226C2.40812 65.2726 2.58012 61.1393 3.78412 56.4893C4.81612 51.8393 7.22412 47.8782 8.77212 43.5727Z" fill="#394D8C"/>
<path d="M115.068 16.5335C115.24 16.8779 115.584 16.8779 115.584 16.5335C115.928 5.51127 102.684 -3.09984 92.8801 1.0335C92.5361 1.20572 92.5361 1.55016 92.8801 1.55016C103.716 1.72239 111.284 6.37239 115.068 16.5335Z" fill="#394D8C"/>
<path d="M125.904 100.75C127.624 98.339 129.172 95.4112 128.484 92.3112C128.484 91.9668 127.968 91.9668 127.796 92.139C126.764 94.2057 126.248 96.6168 125.044 98.5112C123.668 100.922 121.26 101.956 119.368 103.678C119.196 103.85 119.368 104.022 119.54 104.022C121.776 104.711 124.528 102.472 125.904 100.75Z" fill="#394D8C"/>
<path d="M15.1361 100.75C13.4161 99.7169 12.2121 98.1669 10.8361 96.4447C10.3201 95.7558 9.46009 96.6169 9.80409 97.3058C11.1801 100.75 16.3401 105.228 20.2961 103.161C20.6401 102.989 20.4681 102.472 20.1241 102.472C18.4041 101.784 16.6841 101.611 15.1361 100.75Z" fill="#394D8C"/>
<path d="M26.6603 9.12808C26.4883 9.81697 27.3483 10.3336 27.8643 9.81697C29.5843 8.09474 31.1323 6.37252 33.3683 5.33919C35.7763 4.13363 38.5283 3.61697 41.1083 2.75585C41.6243 2.58363 41.6243 1.89474 41.1083 1.72252C36.4643 0.689188 27.5203 3.78919 26.6603 9.12808Z" fill="#394D8C"/>
<path d="M90.1283 32.8945C93.3963 33.0667 96.6643 33.2389 99.9323 33.5833C105.092 34.1 115.068 33.9278 121.948 46.3278C121.776 45.4667 121.432 44.7778 121.088 43.9167C116.272 32.0333 101.136 32.55 89.9563 32.2056C89.9563 32.55 90.1283 32.7222 90.1283 32.8945Z" fill="#E7E9EF"/>
<path d="M19.0924 43.0557C17.3724 45.1224 16.1683 47.3613 15.3083 49.6002C18.2324 45.4668 21.8444 42.0224 26.1444 39.439C33.7124 35.1335 40.5924 34.1002 44.5484 33.7557C44.7204 33.239 44.8924 32.8946 45.0644 32.3779C35.2604 33.4113 25.4564 34.9613 19.0924 43.0557Z" fill="#E7E9EF"/>
<path d="M80.3241 76.2945C79.4641 73.3668 75.1641 74.9168 73.1001 75.2612C66.9081 76.1223 60.5441 75.089 54.5241 75.9501C54.5241 78.8779 53.8361 85.939 55.5561 86.2834C55.3841 83.8723 55.5561 81.4612 55.2121 79.2223C54.8681 76.2945 62.7801 77.1556 64.3281 76.9834C67.7681 76.8112 71.0361 76.639 74.4761 76.1223C76.1961 75.7779 78.6041 75.4334 80.3241 76.2945Z" fill="#E7E9EF"/>
<path d="M98.2122 11.7115C86.8602 9.64481 75.1642 11.1948 63.6402 11.0226C55.3842 10.8504 40.4202 8.61147 34.4002 16.017C34.0562 16.3615 33.8842 16.7059 33.7122 17.0504C41.7962 9.12814 55.9002 12.0559 66.3922 12.2281C72.4122 12.2281 78.6042 12.2281 84.6242 12.2281C90.9882 12.2281 98.3842 12.2281 103.716 16.3615C105.608 17.9115 106.64 20.1504 107.672 22.3893C106.64 17.3948 105.092 12.917 98.2122 11.7115Z" fill="#E7E9EF"/>
</g>
<defs>
<clipPath id="clip0_836_6258">
<rect width="129" height="155" fill="white"/>
</clipPath>
</defs>
</svg>
