<svg width="128" height="144" viewBox="0 0 128 144" fill="none" xmlns="http://www.w3.org/2000/svg">
<g clip-path="url(#clip0_836_9772)">
<path d="M127.277 108.181C126.988 102.38 123.661 96.5799 117.876 94.6947C116.574 94.2596 115.128 93.8246 113.826 93.5346C113.247 83.6735 113.392 70.6222 104.569 64.6766C102.111 62.9364 99.218 61.7763 96.0361 60.7611C95.8915 52.6403 94.4452 44.8095 87.3582 40.024C86.7796 39.5889 86.0565 39.2989 85.4779 38.8639C93.4327 34.3684 106.305 26.3926 100.809 15.9515C96.7593 8.41069 88.0813 11.311 83.1638 16.5315C80.5604 10.4409 75.209 6.96054 68.8452 11.601C68.2666 11.021 67.5435 10.2959 66.8203 9.71582C63.2045 6.96054 56.9853 8.26567 53.5141 10.5859C50.9107 12.3261 50.0429 15.6614 49.7536 18.8518C43.8237 15.8065 35.435 14.5013 32.8316 22.4772C30.0836 30.743 37.1706 36.2536 43.9683 39.4439C43.5344 39.5889 43.1005 39.734 42.6666 40.024C35.435 43.3593 33.9887 53.3654 33.5548 60.6161C29.5051 61.7762 25.8892 63.6614 22.9966 66.1267C15.9096 72.3624 15.331 84.6886 15.331 93.8246C14.3186 94.1146 13.4508 94.4047 12.4384 94.6947C-3.47122 100.35 -3.44813e-05 124.278 1.73556 137.184C1.88019 137.909 2.45872 138.344 3.18189 138.344C12.2938 141.535 22.7073 141.68 32.1084 142.695C46.861 144.29 61.6135 143.855 76.3661 143.565C85.9118 143.275 95.4576 142.985 105.003 142.115C111.512 141.535 119.756 141.39 125.686 138.199C126.554 138.054 127.566 137.474 127.711 136.314C128.579 127.323 127.711 117.317 127.277 108.181ZM67.8327 35.6735C68.4113 34.9485 68.9898 34.3684 69.5683 33.6433C70.1469 34.3684 70.87 35.0935 71.5932 35.8185C70.2915 35.6735 69.1344 35.6735 67.8327 35.6735Z" fill="#394D8C"/>
<path d="M81.1389 20.4469C81.5728 21.7521 83.3084 22.0421 84.0315 20.882C87.5027 15.0814 97.627 11.166 98.6395 21.027C99.3626 28.8578 87.6474 34.2234 82.1513 37.2687C82.0067 37.2687 82.0067 37.4137 81.8621 37.4137C80.1265 36.8336 78.3909 36.5436 76.5107 36.2536C74.4858 34.6584 72.6056 32.7732 71.1592 30.743C73.4734 25.3775 73.618 19.1418 70.7253 14.2113C76.0768 10.4409 79.5479 14.6463 81.1389 20.4469Z" fill="#E7E9EF"/>
<path d="M35.7244 25.9575C35.1459 16.8216 46.5719 21.027 50.477 23.4923C51.634 24.2173 53.0804 23.2022 53.225 21.8971C53.3696 19.5769 53.5143 17.2566 54.5267 14.9364C57.2747 8.99077 65.9527 12.4711 68.4114 16.3865C72.3165 22.3322 66.9651 30.888 63.4939 35.8186C63.06 35.8186 62.6261 35.8186 62.3369 35.8186C57.564 36.1086 52.6465 36.6886 47.8736 38.1388C42.6668 35.3835 36.1583 32.6282 35.7244 25.9575Z" fill="#E7E9EF"/>
<path d="M45.5594 42.634C50.7662 40.6037 56.6961 39.8787 62.1921 39.4436C68.2667 39.0086 74.6306 39.2986 80.5605 40.8938C85.0441 42.0539 87.9368 44.6642 89.817 47.8545C87.7921 46.8394 85.3334 46.4044 83.7424 46.2593C81.4283 45.9693 79.5481 46.8394 77.6679 47.9995C73.4735 50.7548 70.0023 50.1747 65.9526 47.5645C61.6136 44.8092 57.13 42.634 52.3571 45.8243C50.3323 47.1294 48.8859 49.1596 46.8611 50.4648C43.8238 52.495 41.9436 50.0297 39.9187 48.2895C41.0758 45.8243 42.956 43.7941 45.5594 42.634Z" fill="#E7E9EF"/>
<path d="M37.0261 58.2957C39.4849 57.5707 42.2329 57.7157 44.6916 56.8456C45.1255 56.7006 45.1255 56.1205 44.6916 55.9755C42.3775 55.3954 39.6295 55.5405 37.3154 56.4105C37.6046 54.3803 38.1832 52.2051 38.9063 50.1749C40.9312 52.4951 43.8238 53.6553 47.0058 52.6401C48.886 52.0601 50.477 50.3199 51.9233 49.0148C55.2498 45.9694 58.5764 45.6794 62.4815 47.9997C66.8205 50.4649 71.1594 53.8003 76.2216 51.335C79.4035 49.7398 81.4284 47.9997 85.1888 48.5797C87.9369 49.0148 89.5278 50.6099 91.408 51.9151C92.1312 54.3803 92.4205 56.9906 92.5651 59.7459C82.5854 57.5707 71.0148 58.0057 62.1922 58.0057C54.8159 58.0057 45.2702 58.0057 36.8815 59.8909C36.8815 59.3108 37.0261 58.8758 37.0261 58.2957Z" fill="#E7E9EF"/>
<path d="M24.5877 70.1872C32.5425 61.7763 49.1752 62.2113 59.7334 62.0663C72.1718 61.7763 85.0441 62.2113 97.0487 65.5467C103.123 67.2869 106.305 70.0422 108.041 75.9878C108.185 76.4228 108.33 77.0029 108.475 77.4379C106.016 76.8579 103.991 75.9878 101.677 74.2476C99.3628 72.5074 96.7594 71.6373 93.8667 71.7823C89.2385 72.0724 87.2136 76.1328 85.478 79.6132C84.0317 82.6585 81.573 82.8035 78.5357 81.4984C75.9323 80.3382 74.6306 77.2929 73.3289 74.9727C71.304 71.0573 68.1221 66.5618 63.06 68.0119C57.7085 69.6071 56.8408 76.4228 52.6464 79.1781C48.886 81.6434 47.0057 75.2627 45.9933 72.7974C45.1255 71.0573 43.9684 69.7521 42.0882 69.1721C37.7492 67.8669 33.9888 71.2023 31.9639 74.5376C30.373 77.0029 29.2159 79.7582 25.8894 79.9032C23.8645 80.0482 22.7074 78.018 21.5504 76.5678C21.4057 76.4228 21.4057 76.2778 21.2611 76.1328C21.8396 73.9576 22.9967 71.7823 24.5877 70.1872Z" fill="#E7E9EF"/>
<path d="M20.2486 79.3229C21.8395 81.4982 24.1536 83.0933 27.0463 82.5133C31.9638 81.4982 32.9762 76.4226 36.1582 73.3773C37.3152 72.2172 39.3401 71.9272 40.931 71.9272C42.6666 71.9272 43.5344 73.8124 44.113 75.1175C45.27 77.5828 46.1378 79.758 48.3073 81.4982C52.2124 84.5435 56.5514 79.3229 58.1423 76.4226C59.7333 73.3773 62.9152 68.8818 66.8203 70.767C69.5683 72.0722 71.0146 76.1326 72.461 78.5979C74.4858 82.2232 78.3909 85.8486 82.8745 84.9785C86.9242 84.1084 87.3581 79.613 89.6723 76.8577C93.2881 72.2172 98.6395 75.4075 102.255 77.8728C104.28 79.1779 106.45 80.048 108.764 80.193C109.053 81.9332 109.342 83.6734 109.487 85.4136C107.028 85.1235 104.425 85.1235 102.255 85.7036C101.821 85.8486 101.821 86.4287 102.255 86.5737C104.569 87.2988 107.173 87.1538 109.632 87.4438C109.632 88.0238 109.776 88.4589 109.776 89.039C104.136 88.4589 98.4949 87.7338 92.9988 88.8939C92.4203 89.039 92.5649 89.764 93.1434 89.764C98.7841 90.1991 104.425 90.6341 109.921 91.2142C109.921 91.7942 110.065 92.3743 110.065 92.9544C105.726 92.3743 101.388 92.2293 97.1932 91.9393C87.3581 91.3592 77.5231 91.0692 67.6881 91.0692C57.5638 91.0692 47.4395 91.2142 37.3152 91.7942C31.2406 92.0843 24.7322 92.2293 18.6576 93.3894C18.8022 89.039 19.0915 83.9634 20.2486 79.3229Z" fill="#E7E9EF"/>
<path d="M21.9845 96.7251C37.1709 94.9849 52.502 94.8399 67.6884 94.9849C82.1517 94.9849 96.7596 95.4199 111.078 97.0151C121.058 98.1752 123.661 104.411 123.372 113.982C123.372 116.012 123.372 117.897 123.517 119.927C119.033 119.782 117.297 114.562 115.996 110.792C115.273 108.616 113.537 105.281 110.789 105.571C107.752 105.861 105.004 107.456 103.123 109.776C102.111 110.937 101.822 112.532 101.533 113.982C100.52 118.767 96.7596 119.492 92.5653 118.187C86.0568 116.302 89.6726 104.991 81.4285 104.266C75.7879 103.831 72.8952 112.822 70.8704 116.447C69.5687 118.767 67.8331 120.798 65.085 121.088C62.1924 121.378 59.589 118.912 57.998 116.882C55.6839 113.692 54.5268 109.631 51.4896 107.021C46.1381 102.381 40.6421 112.242 37.1709 114.707C32.2534 118.332 30.5178 112.387 29.3607 109.051C28.6376 106.876 26.902 104.991 24.4432 104.846C19.815 104.701 17.2116 109.341 15.1867 112.677C14.0297 114.562 11.8602 120.073 8.96752 119.637C5.49634 119.057 4.91781 115.142 4.62854 111.517C5.7856 101.801 12.2941 97.7402 21.9845 96.7251Z" fill="#E7E9EF"/>
<path d="M101.388 138.779C92.7096 139.359 83.887 139.504 75.2091 139.794C61.6136 140.084 48.1627 140.229 34.7119 139.214C25.0215 138.489 14.3187 138.054 4.77291 135.734C4.77291 135.009 4.77291 134.284 4.62828 133.559C8.38873 134.719 12.7277 135.009 16.4882 135.444C25.3108 136.459 34.4226 137.329 43.2452 137.039C43.8238 137.039 43.6791 136.314 43.2452 136.314C34.4226 135.299 25.6 134.719 16.7774 133.414C12.8723 132.834 8.38873 132.689 4.48364 131.384C4.48364 130.948 4.48364 130.513 4.48364 130.078C11.8599 131.819 20.104 132.254 27.6249 131.819C28.0588 131.819 28.2034 131.239 27.7695 131.093C20.104 129.353 12.1492 129.788 4.48364 128.048C4.48364 127.468 4.48364 126.743 4.48364 126.163C7.8102 127.758 12.8723 127.903 15.9096 127.323C16.3435 127.178 16.3435 126.598 15.9096 126.453C13.7401 126.018 11.5706 125.583 9.40116 125.148C7.95483 124.858 5.78534 124.568 4.48364 123.698C4.48364 121.958 4.48364 120.362 4.48364 118.622C5.35144 120.217 6.79777 121.522 8.53336 122.103C12.2938 123.263 15.0418 117.897 16.6328 115.287C17.9345 113.112 19.2362 110.791 20.9718 109.051C21.8396 108.181 22.852 107.601 24.0091 107.456C26.6125 107.311 27.3356 110.211 27.9142 112.097C29.5051 117.462 34.278 120.507 39.1955 116.302C42.0882 113.837 44.113 109.921 47.7288 108.471C51.4893 107.021 55.1051 116.592 56.8407 119.057C60.8904 124.568 67.6882 124.858 71.7379 119.492C73.6181 117.027 74.6305 113.837 76.3661 111.226C77.3786 109.631 78.5356 108.181 80.1266 107.166C83.1639 105.426 85.1887 109.486 85.7673 111.661C86.4904 114.417 86.9243 116.882 89.0938 119.057C91.5526 121.522 95.8916 121.813 99.0735 121.087C101.966 120.362 103.268 117.607 103.846 114.852C104.425 112.097 105.727 110.501 108.041 109.051C111.512 106.876 113.103 109.631 113.971 112.532C115.562 117.317 118.454 122.828 123.661 122.683C123.806 124.568 123.806 126.598 123.95 128.483C122.07 128.628 120.19 128.918 118.599 129.498C118.31 129.643 118.454 130.078 118.744 130.223C120.479 130.513 122.215 130.513 124.095 130.368C124.095 130.803 124.095 131.384 124.095 131.819C119.467 132.979 114.694 133.124 110.066 134.429C109.487 134.574 109.632 135.299 110.21 135.444C114.549 136.024 119.611 135.299 124.095 134.139C124.095 134.719 123.95 135.299 123.95 135.879C117.008 138.489 108.475 138.344 101.388 138.779Z" fill="#E7E9EF"/>
<path d="M20.8271 126.743C20.3932 126.743 18.8022 126.163 18.8022 127.178C18.8022 128.193 20.1039 128.338 20.8271 128.338C21.6949 128.193 21.6949 126.743 20.8271 126.743Z" fill="#394D8C"/>
<path d="M88.226 89.6191C88.9491 89.6191 89.8169 89.6191 90.3954 89.039C90.5401 88.894 90.5401 88.604 90.3954 88.459C89.8169 87.8789 88.9491 87.8789 88.226 87.8789C87.0689 87.8789 87.0689 89.6191 88.226 89.6191Z" fill="#394D8C"/>
<path d="M46.4273 55.8306C45.7041 56.1206 45.9934 57.2807 46.7166 56.9907C47.1505 56.8457 47.729 56.8457 48.0183 56.5556C48.1629 56.4106 48.1629 56.1206 48.0183 55.9756C47.5844 55.5405 46.8612 55.6855 46.4273 55.8306Z" fill="#394D8C"/>
<path d="M108.619 11.8909C109.342 11.6009 110.21 11.1658 110.644 11.0208C112.09 10.5857 111.512 8.2655 110.065 8.70055C109.342 8.99058 108.474 9.28061 107.896 9.86067C107.317 10.2957 106.45 10.8758 106.305 11.6009C106.305 11.8909 106.45 12.1809 106.594 12.1809C107.317 12.4709 108.041 12.1809 108.619 11.8909Z" fill="#394D8C"/>
<path d="M106.449 18.1268C107.317 18.5618 108.185 18.5618 109.197 18.7068C110.21 18.8519 111.222 18.8519 112.379 18.8519C113.681 18.8519 113.681 16.8217 112.379 16.8217C110.499 16.8217 108.185 16.3866 106.594 17.2567C106.16 17.5467 106.16 17.9818 106.449 18.1268Z" fill="#394D8C"/>
<path d="M100.665 9.13565C101.532 8.99064 102.256 8.26556 102.979 7.6855C103.702 7.25046 104.28 6.52538 105.004 6.09034C106.305 5.36526 105.148 3.19003 103.847 4.06012C102.979 4.49517 102.4 5.36526 101.677 6.09034C101.098 6.81541 100.375 7.6855 100.086 8.55559C100.086 8.84562 100.375 9.28067 100.665 9.13565Z" fill="#394D8C"/>
<path d="M22.4178 32.7734C23.4302 32.3383 24.7319 31.7582 25.5997 30.8882C25.889 30.5981 25.7443 30.0181 25.1658 30.0181C24.1534 29.873 22.8517 30.1631 21.8392 30.4531C20.3929 31.0332 20.9714 33.3534 22.4178 32.7734Z" fill="#394D8C"/>
<path d="M25.4554 23.3471C25.7447 23.2021 25.7447 22.767 25.6001 22.622C24.5876 21.7519 23.1413 21.4619 21.8396 21.4619C20.3933 21.4619 20.3933 23.7821 21.8396 23.7821C22.9967 23.7821 24.2984 23.9272 25.4554 23.3471Z" fill="#394D8C"/>
<path d="M29.9388 17.2563C30.0834 17.1113 30.228 16.9663 30.0834 16.8213C29.6495 15.5162 27.7693 14.7911 26.4676 14.5011C25.1659 14.066 24.4427 16.2412 25.8891 16.6763C27.1907 16.8213 28.6371 17.8364 29.9388 17.2563Z" fill="#394D8C"/>
<path d="M96.181 37.5586C95.7471 37.4136 95.4578 37.8486 95.6024 38.1386C95.7471 38.8637 96.3256 39.4438 96.9041 39.8788C97.338 40.4589 98.0612 40.7489 98.4951 41.329C99.3629 42.3441 100.954 40.7489 99.9414 39.8788C99.3629 39.2988 98.7844 38.8637 98.2058 38.5737C97.4827 38.1387 96.9041 37.7036 96.181 37.5586Z" fill="#394D8C"/>
<path d="M55.539 1.30488C55.6836 1.88494 55.6836 2.31998 55.8283 2.90004C55.9729 3.4801 56.2622 3.91515 56.6961 4.49521C56.9853 4.78524 57.4192 4.78524 57.5639 4.35019C57.7085 3.91515 57.8531 3.33509 57.8531 2.75503C57.8531 2.17497 57.7085 1.44989 57.5639 0.869832C57.4192 -0.580319 55.3944 -0.000258289 55.539 1.30488Z" fill="#394D8C"/>
<path d="M104.425 134.429C103.268 134.429 103.268 136.169 104.425 136.169C105.293 136.169 106.594 136.024 106.884 135.009C106.884 134.864 106.884 134.719 106.739 134.574C106.016 134.139 105.148 134.429 104.425 134.429Z" fill="#394D8C"/>
<path d="M66.0973 17.4014C64.9402 16.6763 63.3492 16.8213 62.9153 18.2715C62.6261 19.1416 63.3492 20.0116 63.9278 20.4467C66.0973 21.8968 68.4114 18.8515 66.0973 17.4014Z" fill="#E7E9EF"/>
<path d="M64.6509 23.3471C64.6509 24.2172 66.2418 24.9423 66.8204 24.2172C67.8328 23.0571 67.2543 22.332 66.3865 22.0419C65.5187 21.7519 64.7955 22.332 64.6509 23.3471Z" fill="#E7E9EF"/>
<path d="M62.9154 22.6219C63.2047 22.7669 63.6386 22.7669 63.9279 22.6219C64.2171 22.4769 64.3618 22.1868 64.3618 22.0418C64.0725 21.1717 63.0601 21.6068 62.7708 22.1868C62.6262 22.1868 62.6261 22.4769 62.9154 22.6219Z" fill="#E7E9EF"/>
<path d="M111.078 97.0151C96.7593 95.2749 82.1514 94.9849 67.6881 94.9849C52.5016 94.9849 37.0259 94.9849 21.9841 96.725C14.7525 97.5951 9.40108 100.06 6.50842 105.281C8.67791 102.671 11.2813 100.495 14.4632 99.3353C19.5254 97.3051 25.7446 97.3051 31.096 97.0151C42.8113 96.58 53.8033 96 65.6632 96C74.9197 96 84.8994 96.29 94.1559 96.29C99.0734 96.29 102.111 97.3051 108.185 97.4501C110.499 97.5951 114.115 98.1752 116.285 99.1903C119.177 100.64 121.202 103.106 122.649 105.861C121.347 100.93 118.02 97.7401 111.078 97.0151Z" fill="#E7E9EF"/>
<path d="M59.5887 62.0663C49.1752 62.2113 32.3978 61.7763 24.5876 70.1872C23.7198 71.0573 22.9966 72.0724 22.4181 73.2325C25.3107 70.1872 28.0588 67.5769 32.3978 66.1268C37.6045 64.3866 43.3898 63.5165 48.8859 62.9364C60.3119 61.9213 71.5932 62.3564 83.0192 63.5165C88.8045 64.0965 96.1808 65.4017 101.388 68.012C102.545 68.592 103.557 69.1721 104.714 69.7521C102.834 67.7219 100.375 66.4168 96.904 65.4017C84.8995 62.0663 72.0271 61.7763 59.5887 62.0663Z" fill="#E7E9EF"/>
<path d="M88.2257 45.6793C86.4901 43.5041 84.0314 41.9089 80.5602 41.0388C74.6302 39.4436 68.411 39.1536 62.1918 39.5886C56.6958 40.0237 50.7658 40.6038 45.5591 42.779C43.2449 43.7941 41.5093 45.3893 40.2076 47.4195C41.7986 46.1143 43.3896 44.9542 45.2698 43.9391C49.4641 41.7639 54.3817 41.3288 59.0099 40.8938C62.915 40.4587 66.9647 40.3137 70.8698 40.4587C77.8122 40.4587 82.7297 42.4889 88.2257 45.6793Z" fill="#E7E9EF"/>
</g>
<defs>
<clipPath id="clip0_836_9772">
<rect width="128" height="144" fill="white"/>
</clipPath>
</defs>
</svg>
