<svg width="154" height="138" viewBox="0 0 154 138" fill="none" xmlns="http://www.w3.org/2000/svg">
<path d="M137.184 123.846C138.954 124.288 140.06 126.058 139.839 127.827C139.175 130.923 135.856 132.692 133.422 134.019C133.201 134.019 133.201 134.24 132.98 134.462C131.431 133.798 129.882 133.577 128.555 132.913C126.784 132.029 125.014 130.702 123.466 129.154C122.359 128.048 121.253 126.5 122.58 124.952C123.244 124.288 124.129 123.846 125.014 123.846C127.448 123.846 128.997 126.058 130.103 127.827C130.546 128.49 131.431 128.269 131.652 127.606C132.095 127.606 132.316 127.385 132.537 126.942C133.201 124.952 134.971 123.183 137.184 123.846Z" fill="white"/>
<path d="M103.33 107.26C101.56 110.135 97.7988 111.24 95.1436 113.452C95.1436 113.231 94.9224 113.01 94.7011 113.01C91.3821 111.24 86.9569 111.019 84.9655 107.039C82.089 101.289 90.2758 97.5289 92.0459 104.164C92.2672 105.269 93.8161 105.048 94.0373 104.164C94.0373 104.164 94.2586 104.164 94.2586 103.942C95.5862 102.173 97.5775 100.625 99.7902 100.846C103.33 101.067 105.101 104.385 103.33 107.26Z" fill="white"/>
<path d="M63.7239 120.529C67.2641 118.76 71.2469 121.635 68.813 125.615C66.6003 129.154 62.175 130.702 59.0773 133.356C55.7584 130.923 50.2268 129.596 48.0141 125.836C46.4653 122.961 49.563 120.75 52.2181 121.192C54.4308 121.635 56.2009 123.404 57.5285 125.173C57.5285 125.394 57.7498 125.394 57.971 125.615H58.1923H58.4135C58.4135 125.615 58.4135 125.615 58.6348 125.615C58.8561 125.615 59.0773 125.394 59.0773 125.173C60.4049 123.404 61.7325 121.413 63.7239 120.529Z" fill="white"/>
<path d="M23.8966 112.567C21.0201 109.913 17.0374 108.587 14.6035 105.712C12.3908 103.279 13.7184 99.7404 17.2586 100.404C19.25 100.846 20.5776 102.394 21.6839 103.721C22.3477 104.385 23.2328 103.721 23.2328 103.058C23.454 103.058 23.6753 103.058 23.8966 102.837C25.0029 101.288 25.6667 99.7404 27.6581 99.2981C30.3132 98.6346 32.0834 100.846 32.0834 103.5C31.8621 107.923 27.2155 110.577 23.8966 112.567Z" fill="white"/>
<path d="M125.457 41.1347C136.963 40.4712 152.009 46.2212 148.026 60.5962C145.149 71.4327 133.201 74.3077 123.466 75.4135C108.641 77.1827 93.3736 76.9616 78.3276 76.9616C63.9454 76.7404 49.1207 76.9616 34.7385 75.4135C27.2155 74.75 17.7012 73.202 11.727 68.5577C4.64655 63.0289 1.99138 53.5193 8.85058 46.4424C13.9397 41.1347 21.6839 41.3558 28.1006 43.7885C28.3218 44.0097 28.5431 44.2308 28.7644 44.452C29.2069 44.8943 29.8707 44.8943 30.3132 44.452C31.8621 44.6731 32.7471 42.9039 31.4195 42.0193C30.7557 41.577 30.092 41.1347 29.4282 40.9135C24.7816 31.1827 27.658 19.0193 38.9425 15.0385C50.0057 11.2789 60.8477 17.6924 65.0517 27.8654C65.9368 30.077 69.6983 29.1924 68.8132 26.7597C68.592 26.3174 68.3707 25.6539 68.1494 25.2116C74.1236 13.9327 82.7529 5.5289 96.25 4.64428C101.782 4.20197 107.756 4.86544 113.066 6.41351C127.227 10.8366 132.095 26.3174 122.138 37.375C120.589 38.9231 122.58 41.3558 124.129 40.6924C124.572 40.9135 125.014 41.1347 125.457 41.1347Z" fill="white"/>
<path d="M44.6954 122.298C47.3506 115.885 54.8735 118.096 58.1925 122.74C58.1925 122.519 57.9712 122.298 57.9712 121.856L59.0776 121.413C62.3965 117.433 68.1494 114.779 71.6896 120.087C73.4598 122.962 72.3534 126.058 70.362 128.49C67.7069 131.587 63.5029 134.904 59.7414 136.452C58.8563 136.894 58.1925 136.452 57.9712 135.788C54.2098 134.904 50.0057 132.25 47.1293 129.817C44.9166 127.827 43.5891 124.952 44.6954 122.298ZM57.5287 125.173C55.9799 123.625 54.431 121.635 52.2184 121.192C49.5632 120.75 46.4655 122.962 48.0143 125.837C50.0057 129.596 55.7586 130.923 59.0776 133.356C62.1753 130.702 66.6006 129.154 68.8132 125.615C71.2471 121.635 67.4856 118.981 63.7241 120.529C61.7327 121.413 60.4052 123.404 59.0776 125.173C58.8563 125.394 58.8563 125.615 58.635 125.615C58.635 125.615 58.635 125.615 58.4138 125.615H58.1925H57.9712C57.75 125.394 57.75 125.173 57.5287 125.173Z" fill="#394D8C"/>
<path d="M23.2327 103.058C23.2327 103.721 22.3476 104.385 21.6839 103.721C20.5775 102.173 19.0287 100.625 17.2586 100.404C13.7183 99.7404 12.3907 103.058 14.6034 105.712C17.0373 108.808 21.0201 110.135 23.8965 112.567C27.2155 110.577 31.862 108.144 31.862 103.5C31.862 100.846 30.3132 98.6347 27.4367 99.2981C25.4453 99.7404 24.7816 101.289 23.6752 102.837C23.6752 103.058 23.454 103.058 23.2327 103.058ZM22.1264 100.404C22.1264 100.625 21.9051 100.625 21.9051 100.625C22.1264 100.846 22.3476 101.067 22.5689 101.289C22.7902 99.2981 24.5603 97.7501 26.3304 96.8654C28.9856 95.7597 32.0833 96.4231 33.6321 98.8558C38.5 105.712 30.7557 111.904 25.6666 115C24.7816 115.442 24.1178 115 23.6752 114.558C23.2327 114.779 23.0114 114.779 22.5689 114.558C18.1436 112.567 8.18673 106.817 11.0632 100.625C13.2758 95.9808 18.5862 97.0866 21.4626 99.9616L22.1264 100.404Z" fill="#394D8C"/>
<path d="M100.011 100.846C97.5775 100.625 95.8074 102.173 94.4798 103.942L94.2586 104.163C94.0373 105.048 92.7097 105.269 92.2672 104.163C90.2758 97.5289 82.089 101.288 85.1867 107.038C87.1781 110.798 91.3821 111.24 94.9224 113.01C95.1436 113.01 95.3649 113.231 95.3649 113.452C98.0201 111.24 101.56 110.135 103.552 107.26C105.101 104.385 103.33 101.067 100.011 100.846ZM139.839 127.827C140.06 126.058 138.954 124.288 137.184 123.846C134.971 123.404 133.201 124.952 132.537 127.163C132.316 127.606 132.095 127.827 131.652 127.827C131.431 128.49 130.546 128.712 130.103 128.048C129.218 126.058 127.448 123.846 125.014 123.846C124.129 123.846 123.023 124.288 122.58 124.952C121.474 126.5 122.58 127.827 123.465 129.154C124.793 130.702 126.563 131.808 128.555 132.913C130.103 133.577 131.652 134.019 132.98 134.462C132.98 134.24 133.201 134.24 133.422 134.019C135.856 132.692 139.175 130.923 139.839 127.827ZM28.1005 43.5673C21.6839 41.3558 13.9396 40.9135 8.85053 46.2212C1.99133 53.0769 4.6465 62.8077 11.727 68.3366C17.7011 72.9808 27.4367 74.5289 34.7385 75.1923C49.1206 76.7404 63.9454 76.5192 78.3276 76.7404C93.3735 76.9616 108.42 76.9616 123.465 75.1923C133.201 74.0866 145.149 71.2116 148.026 60.375C152.009 46 136.963 40.4712 125.457 40.9135C124.793 40.9135 124.351 40.6923 124.129 40.4712C122.58 40.9135 120.589 38.7019 122.138 37.1539C132.095 26.0962 127.227 10.6154 113.066 6.19233C107.756 4.4231 101.782 3.98079 96.25 4.4231C82.7528 5.52887 74.1235 13.7116 68.1494 24.9904C68.3706 25.4327 68.5919 26.0962 68.8132 26.5385C69.6982 28.9712 65.9367 29.8558 65.0517 27.6443C60.8477 17.4712 50.0057 11.0577 38.9425 14.8173C27.658 18.7981 24.7816 30.9616 29.4281 40.6923C30.0919 40.9135 30.7557 41.3558 31.4195 41.7981C32.7471 42.6827 31.862 44.6731 30.3132 44.2308C29.8706 44.4519 29.2068 44.6731 28.7643 44.2308C28.5431 44.0096 28.3218 43.7885 28.1005 43.5673ZM21.2413 100.183C19.9137 93.1058 21.0201 84.9231 21.2413 77.625C12.8333 75.1923 5.75282 70.7692 2.21259 63.4712C-5.08913 47.7693 11.2844 35.8269 25.2241 39.1443C20.5775 29.1923 25.2241 16.8077 35.6235 11.9423C47.5718 6.19233 60.1839 11.9423 66.6005 22.1154C72.3534 4.86541 91.6034 -1.99036 108.862 1.10579C127.006 4.20194 137.848 21.4519 127.227 36.9327C143.822 36.9327 162.629 51.9712 148.247 68.5577C143.601 73.8654 137.405 76.2981 130.767 77.8462C130.988 92.8846 131.431 107.702 132.095 122.74C134.307 120.087 138.954 119.865 141.388 123.183C145.371 128.49 139.175 134.019 134.75 136.231H134.529C134.307 136.452 133.865 136.673 133.644 136.894C128.333 137.558 116.828 130.702 119.261 124.288C120.147 121.856 123.023 120.308 125.678 120.75C128.112 121.192 129.882 122.962 130.988 125.173C130.988 124.952 131.21 124.51 131.21 124.288C130.988 124.288 130.767 124.067 130.767 123.625C129.218 108.587 128.776 93.3269 128.555 78.2885C125.678 78.7308 122.802 79.1731 119.925 79.3942C111.296 80.0577 102.667 80.5 94.0373 80.5C94.0373 87.3558 94.2586 94.4327 93.5948 101.288C96.6925 97.0865 103.552 96.4231 106.207 101.731C109.747 108.808 100.233 113.01 96.0287 116.106C95.1436 116.769 94.0373 115.885 93.8161 115C87.6207 115 78.9913 109.029 81.8678 101.731C83.6379 97.3077 89.1695 96.6442 92.2672 99.2981C91.8247 93.1058 92.0459 86.9135 92.0459 80.7212C84.5229 80.7212 77.2212 80.7212 69.6982 80.5C66.3793 80.5 62.1752 80.5 57.75 80.5C55.7586 94.4327 58.8563 107.481 59.2988 121.413L58.1925 121.635C54.2097 108.587 53.5459 93.9904 55.316 80.5C45.3591 80.5 33.4109 80.5 23.454 78.0673C23.454 85.1442 23.8965 93.3269 22.1264 100.183H21.2413Z" fill="#394D8C"/>
<path d="M143.601 51.5288C141.388 47.7692 137.405 44.6731 132.98 44.2308C132.316 44.2308 131.874 45.3365 132.537 45.7789C136.299 47.5481 138.954 49.5385 141.388 52.8558C142.273 54.4038 144.486 53.0769 143.601 51.5288Z" fill="#394D8C"/>
<path d="M140.503 57.9423C139.175 54.625 136.963 51.75 134.086 49.5384C133.201 48.875 132.095 49.9807 132.98 50.6442C135.414 52.8557 137.184 55.5096 138.29 58.6057C138.954 59.9327 141.167 59.2692 140.503 57.9423Z" fill="#394D8C"/>
<path d="M35.181 39.5866C33.8534 37.8174 32.9683 35.827 32.7471 33.6154C32.5258 31.6251 33.1896 29.8558 33.4109 28.0866C33.6321 26.9808 31.862 26.7597 31.4195 27.6443C28.7643 31.4039 30.7557 37.8174 33.8534 40.6924C34.7385 40.9135 35.6235 40.2501 35.181 39.5866Z" fill="#394D8C"/>
<path d="M36.2873 26.0961C35.6235 28.3077 35.6235 30.9615 36.2873 33.3942C36.5085 34.2788 37.8361 34.0577 37.8361 33.173C37.6149 30.9615 38.0574 28.9711 38.7212 26.7596C39.1637 25.2115 36.7298 24.7692 36.2873 26.0961Z" fill="#394D8C"/>
</svg>
