<svg width="158" height="152" viewBox="0 0 158 152" fill="none" xmlns="http://www.w3.org/2000/svg">
<path d="M97.5726 68.5439C106.728 69.3287 132.102 68.8055 130.271 53.8933C130.01 52.3236 129.225 50.7539 128.179 49.4458C136.288 54.4165 144.397 59.6489 152.245 64.8812C152.245 65.1429 152.245 65.1429 152.245 65.4045C152.245 65.9277 152.245 66.4509 152.245 66.9742C145.182 67.4974 110.652 89.9966 101.496 96.0138C96.7878 91.5663 92.0792 87.1188 87.3706 82.6713C85.2779 80.8399 82.9236 77.9621 80.0461 76.654C84.4931 67.4974 85.2779 52.5852 72.9832 49.7074C69.5825 48.9225 66.4435 49.7074 63.8276 51.0155L60.9501 47.0912C61.4733 47.0912 62.258 47.0912 62.7812 47.0912C64.6123 46.8296 64.6123 44.2134 62.7812 44.2134C58.8574 44.2134 55.4567 43.9518 51.7945 42.3821C50.2249 41.5972 48.1322 39.2427 46.0395 40.0275L44.2084 37.9346C44.9931 37.1497 46.0395 36.3649 46.8243 35.58C47.0859 35.3184 47.3474 35.0568 47.3474 34.5336C55.1951 38.7194 65.9203 40.0275 72.46 39.7659C73.2448 39.7659 73.768 38.9811 73.768 38.4578C74.5527 38.7194 75.5991 38.4578 76.1223 37.4114C77.1686 34.0103 77.9534 29.5628 78.215 24.8537C84.7547 25.1153 92.3408 30.6093 97.8342 33.4871C98.619 34.0103 99.4037 34.2719 100.189 34.7952C98.619 35.0568 96.7878 35.58 95.4799 36.8881C87.6322 43.167 90.7713 60.4337 96.0031 68.0207C96.0031 67.759 96.7878 68.5439 97.5726 68.5439ZM114.053 71.1601C111.175 71.6833 108.298 71.6833 105.42 71.4217C104.112 71.4217 103.851 73.5146 105.159 73.7763C110.652 74.5611 117.977 74.5611 122.685 71.4217C123.993 70.6368 123.208 68.2823 121.639 68.8055C119.285 69.5904 116.93 70.6368 114.053 71.1601Z" fill="white"/>
<path d="M152.245 70.6368C151.722 80.3167 151.46 89.9966 151.198 99.6764C150.937 109.095 152.245 120.083 150.152 129.239C149.106 134.21 147.275 137.873 144.92 140.489C133.41 127.146 121.116 114.589 108.559 102.293C106.99 100.723 105.682 99.4148 104.112 97.8451C120.331 89.9966 136.549 80.5783 152.245 70.6368Z" fill="white"/>
<path d="M121.115 49.4457C127.917 51.0154 126.87 58.864 121.377 61.4802C114.314 65.1428 105.158 65.1428 97.5724 64.358C95.4797 59.1256 94.6949 53.37 94.9565 47.6144C94.9565 45.7831 94.9565 43.9518 95.7413 42.1204C97.3108 38.4578 98.3572 37.9346 102.281 39.5043C106.205 41.074 106.466 41.5972 106.99 45.2599C107.251 47.0912 107.251 48.9225 107.251 51.0155C107.513 52.5852 110.129 53.37 110.39 51.5387C110.39 51.2771 110.39 51.2771 110.39 51.0155C113.268 48.9225 118.238 48.6609 121.115 49.4457Z" fill="white"/>
<path d="M73.2448 12.8192C74.0296 15.9587 74.2912 18.8365 74.2912 21.9759C73.5064 22.4991 73.5064 23.5456 74.2912 24.0688C74.0296 27.9931 73.2448 31.9173 72.4601 35.8416C72.4601 36.1032 72.4601 36.3649 72.4601 36.6265C64.0892 36.3649 55.7183 34.2719 48.3938 29.5628C44.2084 26.9466 34.268 16.7435 45.778 14.3889C50.7481 13.3425 54.9336 18.3132 58.3342 21.4526C59.6422 22.7607 61.7349 20.6678 60.427 19.3597C60.427 19.0981 60.1654 19.0981 60.1654 18.8365C59.6422 16.2203 58.8574 13.3425 59.119 10.7263C59.3806 9.41821 59.9038 8.11012 60.1654 6.80203C62.7813 6.27879 65.3972 5.75556 68.013 4.9707C70.8905 5.75556 72.7217 10.4647 73.2448 12.8192Z" fill="white"/>
<path d="M75.5994 54.9397C82.4007 60.1721 78.4768 69.3287 76.6457 75.8691C71.1523 76.1308 65.1358 81.1015 60.1656 86.3339C54.9338 82.148 49.9636 77.9621 46.5629 71.9449C45.5166 70.3752 44.4702 68.5438 43.947 66.7125C42.6391 62.7882 42.6391 62.265 46.5629 59.6488C48.9172 56.771 51.2716 56.5094 53.8874 59.6488C54.6722 60.4337 55.1954 61.4802 55.9802 62.265C57.0265 63.8347 57.8113 65.666 58.8576 67.2357C59.904 69.0671 62.2583 67.4974 61.4735 65.666V65.4044C61.4735 65.4044 61.4735 65.4044 61.4735 65.1428C59.6424 57.2943 67.7517 49.1841 75.5994 54.9397Z" fill="white"/>
<path d="M24.5889 53.1084C31.1287 48.1376 38.1916 43.1669 44.2081 37.6729L46.0393 39.7659C45.5161 40.0275 45.2545 40.5507 45.2545 41.0739C45.2545 41.5972 45.5161 41.8588 45.7777 42.1204C46.0392 42.382 46.5624 42.382 46.824 42.382C46.824 42.382 47.0856 42.382 47.0856 42.1204C47.0856 42.1204 47.0856 42.1204 47.3472 41.8588C47.3472 42.1204 47.6088 42.382 47.6088 42.382C48.132 42.9053 49.1783 43.4285 49.9631 43.9517C51.271 44.7366 52.3174 45.2598 53.6253 45.5214C55.7181 46.3063 58.334 46.8295 60.6883 46.8295L63.5657 51.0154C60.4267 52.8468 58.334 55.9862 57.8108 59.6488C55.7181 56.771 52.8406 54.4165 48.9167 53.6316C44.4697 53.1084 40.2843 55.2013 39.2379 59.6488C36.3604 70.3751 48.9167 83.7177 58.0724 88.1652C55.9796 90.2581 54.1485 92.3511 52.579 94.1824C38.4532 84.5025 21.1883 74.2994 4.44653 68.0206C11.5094 63.3115 18.0492 58.0791 24.5889 53.1084Z" fill="white"/>
<path d="M50.2245 97.3219C37.1451 110.664 23.804 124.269 11.2477 138.396C3.40005 129.239 5.23117 114.065 4.96958 102.031C4.70799 91.5663 4.70799 81.1016 4.18481 70.6368C18.3106 80.5783 35.0524 89.4733 50.2245 97.3219ZM29.559 115.897C31.3901 114.85 29.559 111.972 27.9894 113.019C23.5424 116.42 18.5722 119.821 15.1716 124.269C14.3868 125.315 15.4332 126.361 16.4795 125.577C20.6649 122.176 24.5888 118.775 29.559 115.897Z" fill="white"/>
<path d="M93.3871 100.723C88.4169 96.7986 83.4467 93.136 78.2149 89.2117C77.4301 88.6885 76.3838 89.9966 77.1685 90.7814C81.8771 94.9673 86.3242 99.1532 91.2944 103.077C92.6023 104.124 94.9566 102.031 93.3871 100.723ZM82.4003 84.241C87.3705 86.8571 92.3407 93.3976 96.5262 97.3219C101.758 102.293 106.99 107.263 111.96 112.496C122.162 122.699 131.841 133.164 141.781 143.367C134.195 148.337 122.685 146.506 112.222 146.244C100.973 145.983 89.7248 145.721 78.2149 145.721C66.7049 145.721 55.7182 145.46 44.2083 145.198C33.4831 144.936 21.9732 147.029 13.8639 140.489C24.0659 130.809 34.0063 120.606 43.9467 110.403C52.0559 102.031 69.844 77.4389 82.4003 84.241Z" fill="white"/>
<path d="M105.42 71.4217C108.298 71.6833 111.175 71.6833 114.053 71.1601C116.669 70.6368 119.023 69.5904 121.639 68.8055C123.208 68.2823 123.993 70.6368 122.685 71.4217C117.715 74.5611 110.652 74.8227 105.159 73.7763C103.851 73.5146 104.112 71.4217 105.42 71.4217Z" fill="#394D8C"/>
<path d="M93.387 100.723C94.9565 102.031 92.6022 104.386 91.0327 103.077C86.3241 99.1532 81.6155 94.9673 76.9068 90.7814C76.1221 89.9966 77.1684 88.6885 77.9532 89.2117C83.4466 92.8744 88.4168 96.537 93.387 100.723Z" fill="#394D8C"/>
<path d="M46.3014 39.7659C48.3941 38.981 50.4868 41.3356 52.0563 42.1204C55.457 43.6901 59.1192 44.2134 63.0431 43.9518C64.8742 43.9518 64.8742 46.5679 63.0431 46.8296C62.5199 46.8296 61.7351 46.8296 61.2119 46.8296C58.8576 46.8296 56.2417 46.3063 54.149 45.5215C52.8411 44.9982 51.5331 44.475 50.4868 43.9518C49.702 43.6901 48.6557 43.1669 48.1325 42.3821C48.1325 42.3821 47.8709 42.1204 47.8709 41.8588C47.8709 41.8588 47.8709 42.1204 47.6093 42.1204C47.6093 42.1204 47.3477 42.1204 47.3477 42.3821C46.8245 42.6437 46.5629 42.6437 46.3014 42.1204C45.7782 41.8588 45.7782 41.5972 45.7782 41.074C45.255 40.5507 45.5166 40.0275 46.3014 39.7659Z" fill="#394D8C"/>
<path d="M27.9893 113.019C29.5589 111.711 31.39 114.85 29.5589 115.897C24.5887 118.513 20.6648 122.176 16.4794 125.577C15.433 126.361 14.3867 125.053 15.1715 124.268C18.5721 120.083 23.2807 116.42 27.9893 113.019Z" fill="#394D8C"/>
<path d="M4.96985 101.769C5.23144 113.804 3.13873 128.978 11.248 138.134C23.8043 124.007 36.8838 110.664 50.2248 97.3218C35.0526 89.4733 18.3109 80.5783 4.18509 70.6368C4.70827 81.1015 4.70827 91.5663 4.96985 101.769ZM53.6255 59.9105C51.2712 57.0327 48.6553 57.0327 46.301 59.9105C42.3771 62.5267 42.3771 63.0499 43.6851 66.9742C44.2083 68.8055 45.2546 70.6368 46.301 72.2065C49.9632 78.2237 54.6718 82.148 59.9036 86.5955C64.8738 81.3632 70.8904 76.3924 76.3838 76.1308C78.2149 69.3287 82.4003 60.4337 75.3374 55.2014C67.4897 49.1842 59.3805 57.5559 61.2116 65.6661C61.2116 65.6661 61.2116 65.6661 61.2116 65.9277C61.2116 65.9277 61.2116 65.9277 61.2116 66.1893C61.9963 68.0206 59.642 69.5903 58.5957 67.759C57.5493 66.1893 56.7646 64.358 55.7182 62.7883C55.195 61.4802 54.4103 60.6953 53.6255 59.9105ZM58.3341 21.4527C55.195 18.5749 51.0096 13.6041 45.7778 14.6506C34.2679 17.0051 44.2083 27.2082 48.3937 29.8244C55.7182 34.5335 64.0891 36.3649 72.4599 36.8881C72.4599 36.6265 72.4599 36.3649 72.4599 36.1033C73.2447 32.179 74.0295 28.2547 74.291 24.3305C73.7679 23.8072 73.7679 22.7607 74.291 22.2375C74.291 19.0981 74.0295 15.9587 73.2447 13.0809C72.7215 10.9879 70.6288 6.01719 68.0129 5.49396C65.397 6.01719 62.5195 6.54043 59.9036 7.32528C59.642 8.63337 59.1189 9.94146 58.8573 11.2496C58.5957 13.8657 59.3805 16.7435 59.9036 19.3597C60.1652 18.8365 60.1652 19.0981 60.4268 19.3597C61.4732 20.6678 59.642 22.4991 58.3341 21.4527ZM111.96 146.506C122.685 146.768 133.933 148.599 141.52 143.628C131.579 133.425 121.9 122.699 111.698 112.757C106.728 107.525 101.496 102.554 96.2646 97.5835C92.0791 93.6592 87.3705 87.1187 82.1387 84.5026C69.5824 77.7005 51.5328 102.293 43.6851 110.403C34.0063 120.606 24.0659 130.809 13.8639 140.489C21.9732 147.029 33.7447 144.936 44.2083 145.198C55.4566 145.46 66.705 145.721 78.2149 145.721C89.7248 145.721 100.712 146.244 111.96 146.506ZM110.914 47.3528C114.053 45.2599 118.761 44.9983 122.685 46.3064C120.854 45.2599 119.023 43.9518 116.93 42.9053C114.053 41.3356 111.437 39.7659 108.559 38.4578C110.39 40.8124 110.914 43.9518 110.914 47.3528ZM121.116 49.4458C117.976 48.6609 113.268 48.9225 110.39 51.0155C110.39 51.2771 110.39 51.2771 110.39 51.5387C110.129 53.37 107.513 52.8468 107.251 51.0155C106.99 49.1842 107.251 47.3528 106.99 45.5215C106.467 41.5972 106.205 41.074 102.281 39.7659C98.3573 38.1962 97.3109 38.7194 95.7414 42.3821C94.9566 44.2134 94.9566 46.0447 94.9566 47.8761C94.9566 53.6317 95.7414 59.3873 97.5725 64.6196C105.159 65.1428 114.314 65.1428 121.377 61.7418C126.871 58.864 128.178 51.0155 121.116 49.4458ZM155.122 114.589C154.861 123.745 156.692 137.088 150.937 144.936C145.443 152.523 136.026 151.477 127.655 151.215C111.175 150.954 94.695 150.43 78.2149 150.169C61.7348 149.907 45.2546 149.907 28.7745 149.122C20.6652 148.861 11.5096 148.337 6.01621 141.274C0.522835 134.21 1.56919 122.176 1.3076 113.804C0.784424 98.3683 0.261245 82.6712 1.83078 67.2358C1.83078 66.9742 1.83078 66.7126 2.09237 66.7126C2.09237 66.4509 2.35396 66.1893 2.35396 65.9277C9.41687 59.3873 17.003 53.6317 24.5891 47.8761C31.3904 42.6437 37.6685 36.8881 44.993 32.4406C40.8076 29.5628 37.6685 25.9002 37.1454 20.9294C36.6222 15.6971 40.0228 11.5112 45.2546 10.7263C49.4401 10.2031 53.3639 12.296 56.503 14.9122C55.7182 11.2496 55.4566 7.32528 57.5493 4.18587C60.1652 0.523219 64.8738 -0.523253 68.7977 1.30807C76.1222 4.18587 78.2149 12.5576 78.2149 20.9294C88.1553 20.4062 100.712 29.5628 108.298 33.4871C124.778 42.1205 140.735 51.5387 155.645 62.5267C156.43 63.0499 156.692 63.8348 156.43 64.6196C157.476 65.4045 157.215 66.7125 156.43 67.4974C156.43 83.4561 155.645 98.8916 155.122 114.589ZM101.496 96.0138C110.39 89.9965 144.92 67.4974 152.245 66.9742C152.245 66.4509 152.245 65.9277 152.245 65.4045C152.245 65.1428 152.245 65.1428 152.245 64.8812C144.397 59.6489 136.288 54.4165 128.178 49.4458C129.225 50.7539 130.01 52.0619 130.271 53.8933C132.102 68.8055 106.728 69.3287 97.5725 68.5439C96.5261 68.5439 96.003 67.759 95.7414 66.9742C90.5096 59.3872 87.3705 42.1205 95.2182 35.8416C96.5262 34.7952 98.3573 34.0103 99.9268 33.7487C99.142 33.2255 98.3573 32.9638 97.5725 32.4406C92.0791 29.8244 84.493 24.3305 77.9533 23.8072C77.6917 28.5163 76.6454 33.2255 75.8606 36.3649C75.599 37.4113 74.5526 37.9346 73.5063 37.4113C73.5063 38.1962 72.9831 38.7194 72.1983 38.7194C65.6586 39.2427 54.9334 37.673 47.0858 33.4871C47.0858 33.7487 46.8242 34.2719 46.5626 34.5335C45.7778 35.3184 44.993 36.1033 43.9467 36.8881C37.9301 42.3821 30.6056 47.3528 24.3275 52.3236C17.7877 57.5559 11.248 62.5267 4.18509 67.2358C20.9268 73.5146 38.1917 83.7177 52.5791 93.9208C54.1487 92.0895 55.9798 89.9965 58.0725 87.9036C48.9169 83.4561 36.3606 70.1136 39.2381 59.3873C40.546 54.9397 44.4699 52.5852 48.9169 53.37C52.8407 53.8933 55.4566 56.2478 57.8109 59.3873C58.3341 55.7246 60.4268 52.5852 63.5659 50.7539C66.1818 49.1841 69.3208 48.6609 72.7215 49.4458C85.0162 52.3236 84.2314 67.2358 79.7844 76.3924C82.6619 77.7005 85.0162 80.5783 87.1089 82.4096C92.3407 87.1187 97.0493 91.5663 101.496 96.0138ZM149.89 129.239C151.722 120.083 150.675 109.095 150.937 99.6764C151.198 89.9965 151.722 80.3167 151.983 70.6368C136.288 80.5783 120.069 89.9965 103.589 98.1067C105.159 99.6764 106.728 100.985 108.036 102.554C120.592 114.85 133.149 127.408 144.397 140.75C147.274 138.134 148.844 134.472 149.89 129.239Z" fill="#394D8C"/>
</svg>
