<svg width="84" height="90" viewBox="0 0 84 90" fill="none" xmlns="http://www.w3.org/2000/svg">
<g clip-path="url(#clip0_311_44212)">
<path d="M67.9002 23.5C67.9002 22.6 68.0002 21.6 68.0002 20.7C68.0002 16.8 68.4002 11 66.6002 7.39999C63.0002 -5.24521e-06 52.7002 0.199995 45.7002 0.0999946C38.4002 -5.40167e-06 28.3002 -0.300005 22.3002 4.69999C17.0002 9.09999 16.8002 18.5 17.6002 26C12.1002 28.4 9.00019 33.3 7.90019 39C6.30019 41.6 5.20019 44.6 4.70019 47.6C3.20019 57.2 7.40019 66.8 15.0002 72.7C22.2002 78.3 32.0002 83.7 41.3002 84.4C41.5002 84.5 41.8002 84.6 42.2002 84.5C52.6002 82.7 63.7002 76.2 70.7002 67.1C82.3002 54.7 85.9002 31.1 67.9002 23.5ZM41.6002 31.3C38.2002 27.6 32.6002 25.8 27.8002 25C27.5002 20.8 27.6002 16.5 30.2002 13.8C33.0002 11 38.0002 10.5 41.7002 10.3C45.8002 10.1 50.1002 10.8 53.8002 12.7C57.6002 14.6 58.3002 18.5 58.3002 22.6C51.7002 23.5 45.4002 25.8 41.6002 31.3Z" fill="black"/>
<path d="M28 27C32.6 27.8 38.1 29.6 40.8 33.5C41.2 34.1 42.1 34.2 42.5 33.5C45.8 27.8 51.9 25.5 58.1 24.6C58 26.4 57.8 28.1 57.8 29.7C51.2 30.5 44.6 34.1 40.9 40C37.8 35.5 33.5 32.3 28.4 31C28.3 29.7 28.2 28.4 28 27Z" fill="#394D8C"/>
<path d="M77.8 48.5C77.8 47.2 77.8 45.8 77.6 44.5C76.7 37.2 72.7 32.6999 67.5 30.7999C67.6 29.0999 67.7 27.4 67.8 25.7C77.4 30.1 79.7 39.3 77.8 48.5Z" fill="#394D8C"/>
<path d="M24.3 6.5C28.8 1.8 39.9 2.7 45.8 2.7C49.4 2.7 53.1 3 56.6 3.6C58.4 3.9 60.1 4.5 61.7 5.3C64.7 6.9 64.9 10.3 65.3 13.2C65.9 18.8 65.7 24.4 65.6 30C63.8 29.5 62 29.3 60.1 29.4C61 23.7 61.8 16.2 57.2 12C53.5 8.5 47.5 7.8 42.7 7.7C37.8 7.6 32.3 8.7 28.6 12C24.2 15.9 25.3 24.8 26.4 30.4C24.6 30.1 22.7 30.1 20.7 30.3C20.6 30.3 20.6 30.3 20.5 30.3C20.3 22.8 18.6 12.5 24.3 6.5Z" fill="white"/>
<path d="M17.9 28C18 29 18.2 30 18.4 30.9C15.7 31.6 13.4 32.9 11.5 34.7C12.9 31.9 14.9 29.5 17.9 28Z" fill="#394D8C"/>
<path d="M65.8002 56.5C68.3002 55.7 71.1002 55.5 73.8002 55.4C74.5002 53.1 74.9002 50.6 74.9002 48C74.9002 47.2 74.9002 46.5 74.8002 45.8C73.5002 45.8 72.2002 45.8 71.0002 45.5C70.8002 45.4 70.8002 45.1 71.0002 45.1C72.2002 44.8 73.5002 44.8 74.7002 44.8C74.7002 44.5 74.6002 44.2 74.5002 43.9C72.8002 43.9 71.0002 44 69.3002 43.9C69.0002 43.9 68.9002 43.5 69.2002 43.4C70.8002 42.7 72.5002 42.6 74.2002 42.6C74.1002 42.2 74.0002 41.9 73.9002 41.6C70.3002 42.1 66.6002 42.3 63.0002 42.2C62.6002 42.2 62.5002 41.6 62.9002 41.5C66.3002 40.7 69.9002 40.8 73.4002 40.4C67.7002 28.9 48.5002 30.8 42.4002 43.8C41.9002 44.8 40.4002 44.7 39.9002 43.8C35.8002 36.5 28.1002 31.8 19.6002 33.9C14.7002 35.1 11.1002 39 9.2002 43.7C11.5002 43.4 13.9002 43.2 16.2002 43.4C16.6002 43.4 16.7002 44 16.3002 44.1C13.8002 44.8 11.2002 45 8.6002 45.2C8.3002 46 8.1002 46.9 8.0002 47.7C9.2002 47.6 10.4002 47.6 11.6002 47.6C12.0002 47.6 12.1002 48.1 11.8002 48.3C11.2002 48.7 10.3002 48.8 9.5002 48.9C8.9002 49 8.4002 49 7.8002 49C7.8002 49.4 7.7002 49.7 7.7002 50.1C10.0002 49.9 12.3002 49.6 14.6002 50C14.9002 50.1 14.9002 50.5 14.6002 50.6C12.3002 51.1 10.0002 51.4 7.7002 51.6C7.7002 51.8 7.7002 52 7.7002 52.1C7.8002 54.4 8.2002 56.6 8.8002 58.6C10.0002 58.3 11.3002 58 12.5002 58.2C12.8002 58.2 12.8002 58.6 12.7002 58.8C11.8002 59.6 10.6002 59.9 9.4002 60.1C9.6002 60.5 9.7002 61 9.9002 61.4C12.5002 60.7 15.3002 60 18.0002 59.8C18.3002 59.8 18.5002 60.3 18.2002 60.5C15.8002 61.5 13.1002 62.1 10.6002 62.7C12.8002 67.1 16.4002 70.7 21.2002 73.6C27.3002 77.4 34.5002 81.2 41.8002 82.1C51.1002 79.8 61.3002 74.4 67.9002 66.6C67.0002 66.7 66.1002 66.7 65.4002 66.5C65.1002 66.4 65.1002 66.1 65.3002 65.9C66.3002 65.3 67.8002 65.2 69.1002 65.2C69.3002 64.9 69.6002 64.6 69.8002 64.3C65.9002 64.7 61.9002 65.2 57.9002 65.3C57.6002 65.3 57.5002 64.9 57.8002 64.8C61.8002 63.6 66.4002 63.3 70.6002 63.1C71.8002 61.3 72.8002 59.3 73.5002 57.2C71.1002 57.4 68.6002 57.7 66.2002 57.5C65.4002 57.2 65.3002 56.6 65.8002 56.5ZM47.7002 74.1C47.6002 74.1 47.6002 74.1 47.7002 74.1C45.7002 74.4 43.6002 74.5 41.6002 74.6C40.2002 74.7 37.6002 75.4 36.4002 74.5C36.1002 74.5 35.8002 74.3 35.8002 73.8C36.3002 68.9 37.7002 64.1 38.0002 59.2C36.2002 58.7 35.4002 56.2 35.8002 54.5C36.4002 52.3 38.1002 50.4 40.4002 50C43.1002 49.6 46.1002 51.2 46.9002 53.8C47.4002 55.6 46.8002 58.4 45.0002 59.2C45.9002 64 47.8002 68.5 48.2002 73.4C48.2002 73.8 48.0002 74 47.7002 74.1Z" fill="white"/>
<path d="M38.1001 55.1C38.4001 54 39.3001 52.8 40.4001 52.4C42.0001 51.8 43.9001 52.7 44.7001 54.1C45.1001 54.7 45.1001 55.5 44.9001 56.2C44.6001 57 43.7001 57.4 43.3001 58.1C43.2001 58.2 43.2001 58.3 43.2001 58.4C43.1001 58.6 43.0001 58.9 43.0001 59.2C43.7001 63.7 45.0001 68.3 46.6001 72.7C45.0001 72.6 43.4001 72.7 41.7001 72.8C40.6001 72.9 38.9001 72.7 37.6001 73C39.0001 68.5 40.0001 63.7 40.0001 58.9C40.0001 58.4 39.7001 58.1 39.4001 58C39.1001 57.6 38.7001 57.3 38.4001 56.9C37.9001 56.4 37.9001 55.7 38.1001 55.1Z" fill="#394D8C"/>
<path d="M52.8001 7.00002C58.5001 8.90002 60.8001 13.3 62.1001 18.9C62.1001 19 62.4001 19 62.4001 18.9C63.6001 13.2 59.0001 6.40002 52.9001 6.70002C52.7001 6.70002 52.7001 6.90002 52.8001 7.00002Z" fill="white"/>
<path d="M62.6 57.8C63.1 57.7 63.7 57.5 64 57.1C64.1 56.9 64.1 56.7 63.9 56.6C63.4 56.4 62.8 56.6 62.3 56.7C61.6 56.9 61.9 58 62.6 57.8Z" fill="black"/>
<path d="M15.0002 57.5C14.7002 57.6 14.3002 57.7 14.0002 57.8C13.7002 57.9 13.6002 58.4 14.0002 58.5C14.4002 58.6 14.8002 58.5 15.3002 58.4C15.8002 58.2 15.6002 57.3 15.0002 57.5Z" fill="black"/>
<path d="M65.6001 44.6999C66.2001 44.5999 66.9001 44.4999 67.5001 44.1999C67.7001 44.0999 67.7001 43.7999 67.5001 43.6999C66.9001 43.3999 66.1001 43.1999 65.4001 43.2999C64.4001 43.4999 64.6001 44.8999 65.6001 44.6999Z" fill="black"/>
<path d="M1.90011 53.2C2.10011 53.3 2.50011 53.1 2.40011 52.9C1.80011 51.3 1.60011 49.5 1.70011 47.8C1.90011 45.3 3.20011 43.9 4.20011 41.8C4.30011 41.7 4.20011 41.5 4.00011 41.5C-0.19989 41.2 -1.39989 51.4 1.90011 53.2Z" fill="black"/>
<path d="M80.2001 30.2999C81.5001 32.6999 81.5001 35.1999 82.4001 37.5999C82.5001 37.8999 83.0001 37.8999 83.1001 37.5999C83.9001 35.2999 83.0001 32.7 82.0001 30.6C81.3001 29.1 79.6001 26.6 77.8001 26.2C77.7001 26.2 77.6001 26.3 77.6001 26.4C78.1001 27.8 79.5001 28.8999 80.2001 30.2999Z" fill="black"/>
<path d="M48.5001 87.4C48.8001 87.2 48.7001 86.8 48.3001 86.8C46.4001 86.9 44.6001 87.5 42.8001 87.6C39.9001 87.9 37.2001 86.8 34.5001 86C34.4001 86 34.3001 86.1 34.4001 86.2C37.9001 89.6 44.4001 90.2 48.5001 87.4Z" fill="black"/>
<path d="M33.6001 37.9C36.0001 39.9 37.4001 43 40.0001 44.8C41.2001 45.7 42.5001 44.8 43.3001 43.8C45.3001 40.8 47.3001 38.4 50.3001 36.4C56.5001 32.4 65.5001 32.5 71.1001 37.4C71.6001 37.8 72.1001 38.4 72.6001 39C66.2001 28.8 48.2001 31 42.3001 43.6C41.8001 44.6 40.3001 44.5 39.8001 43.6C35.7001 36.3 28.0001 31.6 19.5001 33.7C15.3001 34.7 12.1001 37.6 10.1001 41.3C13.3001 37.2 17.8001 34.7 23.3001 34.3C27.2001 33.9 30.6001 35.4 33.6001 37.9Z" fill="white"/>
<path d="M61.7002 5.4C60.1002 4.6 58.4002 4 56.6002 3.7C53.0002 3 49.4002 2.7 45.7002 2.7C39.9002 2.7 28.7002 1.8 24.2002 6.5C19.3002 11.6 19.9002 19.9 20.2002 27C20.2002 24.2 20.3002 21.4 20.7002 18.6C21.1002 15.4 21.5002 11.9 23.2002 9C27.3002 2 38.4002 3.5 45.2002 3.4C51.0002 3.4 58.5002 3.6 63.5002 7C63.1002 6.4 62.5002 5.8 61.7002 5.4Z" fill="white"/>
</g>
<defs>
<clipPath id="clip0_311_44212">
<rect width="83.4" height="89.2" fill="white"/>
</clipPath>
</defs>
</svg>
