<svg width="84" height="73" viewBox="0 0 84 73" fill="none" xmlns="http://www.w3.org/2000/svg">
<g clip-path="url(#clip0_311_44157)">
<path d="M83.3001 46.9001C83.3001 46.4001 83.3001 46.0001 83.2001 45.5001C82.7001 38.2001 83.0001 30.9001 82.3001 23.7001C81.9001 19.4001 81.4001 14.6001 78.2001 11.5001C75.0001 8.10008 68.4001 9.00008 64.4001 8.80008C56.1001 8.50008 47.8001 8.60008 39.5001 8.50008C38.2001 8.50008 37.0001 8.50008 35.7001 8.50008C35.8001 7.20008 35.7001 5.90008 35.7001 4.60008C35.7001 4.10008 35.2001 3.60008 34.7001 3.60008C33.8001 3.60008 32.8001 3.60008 31.9001 3.60008C32.0001 1.70008 30.0001 0.100077 28.1001 7.66632e-05C25.9001 -0.0999233 23.7001 1.40008 23.7001 3.60008C22.4001 3.60008 21.1001 3.60008 19.9001 3.60008C19.4001 3.60008 18.8001 4.10008 18.9001 4.60008C19.0001 5.90008 18.9001 7.20008 19.0001 8.50008C18.6001 8.50008 18.3001 8.50008 17.9001 8.60008C17.8001 8.60008 17.8001 8.60008 17.7001 8.60008C7.80007 8.30008 8.40006 18.2001 8.00006 25.7001C7.50006 35.5001 7.20006 45.3001 7.50006 55.1001C8.00006 66.0001 18.3001 65.7001 26.8001 65.6001C41.6001 65.4001 56.8001 66.8001 71.5001 65.5001C81.6001 64.5001 83.6001 55.5001 83.3001 46.9001Z" fill="black"/>
<path d="M9.69995 43.2002C10.5 43.2002 11.3 43.1002 12 42.8002C12.2 42.7002 12.2 42.5002 12 42.4002C11.3 42.1002 10.5 42.0002 9.79995 42.0002C9.79995 41.8002 9.79995 41.7002 9.79995 41.5002C11.8 41.5002 13.9 41.4002 15.9 41.0002C16.3 40.9002 16.3 40.3002 15.9 40.3002C13.9 40.0002 11.9 40.0002 9.89995 40.1002C9.89995 39.7002 9.89995 39.2002 9.89995 38.8002C13.7 39.0002 17.7 39.1002 21.5 38.5002C21.9 38.4002 21.8 37.8002 21.4 37.8002C17.6 37.4002 13.8 37.7002 9.99995 37.5002C9.99995 37.1002 9.99995 36.7002 9.99995 36.4002C10.3 36.4002 10.7 36.4002 11 36.3002C11.6 36.3002 12.3 36.3002 12.8 36.0002C13.1 35.8002 13.1 35.5002 12.8 35.3002C12.4 35.0002 11.8 34.9002 11.2 34.9002C10.8 34.9002 10.4 34.8002 9.99995 34.8002C9.99995 34.4002 9.99995 34.1002 9.99995 33.7002C9.99995 33.6002 9.99995 33.5002 9.99995 33.4002C11.5 33.1002 13.2 33.4002 14.6 32.8002C14.9 32.7002 15 32.2002 14.6 32.1002C13.3 31.7002 11.5 31.6002 9.99995 31.8002C9.99995 31.3002 9.99995 30.7002 10.1 30.2002C12.6 30.2002 15.1 30.4002 17.6 30.0002C18 29.9002 18.2 29.3002 17.7 29.2002C15.3 28.6002 12.7 28.6002 10.1 28.6002C10.1 28.0002 10.2 27.3002 10.2 26.7002C17.6 27.2002 25 27.2002 32.4 27.3002C30.2 31.6002 29.4 36.8002 30.4 42.0002C30.7 43.7002 31.2999 45.3002 32.0999 46.8002C24.6999 46.6002 17.2 46.3002 9.69995 46.6002C9.69995 45.6002 9.69995 44.4002 9.69995 43.2002Z" fill="white"/>
<path d="M70.3999 26.1001C73.7999 26.1001 77.0999 26.2001 80.4999 26.2001C80.5999 27.5001 80.6999 28.8001 80.6999 30.1001C79.9999 30.1001 79.3999 30.1001 78.6999 30.2001C78.2999 30.2001 78.2999 30.9001 78.6999 30.9001C79.3999 31.0001 79.9999 31.0001 80.6999 31.0001C80.6999 31.3001 80.6999 31.6001 80.6999 31.9001C78.9999 31.8001 77.1999 31.9001 75.4999 32.2001C75.2999 32.2001 75.2999 32.6001 75.5999 32.6001C77.2999 32.8001 78.9999 32.9001 80.7999 33.0001C80.7999 33.2001 80.7999 33.5001 80.7999 33.7001C79.8999 33.7001 78.8999 33.7001 77.9999 34.1001C77.7999 34.2001 77.8999 34.5001 78.0999 34.6001C78.9999 34.8001 79.8999 34.8001 80.7999 34.8001C80.7999 36.6001 80.7999 38.4001 80.8999 40.2001C80.8999 40.5001 80.8999 40.8001 80.8999 41.2001C79.2999 41.1001 77.5999 41.1001 76.0999 41.5001C75.7999 41.6001 75.7999 42.0001 76.0999 42.1001C77.5999 42.6001 79.2999 42.5001 80.8999 42.4001C80.8999 42.8001 80.8999 43.1001 80.8999 43.5001C79.6999 43.4001 78.2999 43.3001 77.3999 44.0001C77.1999 44.2001 77.1999 44.5001 77.4999 44.6001C78.0999 44.8001 78.7999 44.8001 79.4999 44.8001C79.9999 44.8001 80.4999 44.8001 80.9999 44.8001C80.9999 45.3001 80.9999 45.7001 81.0999 46.2001C77.5999 46.2001 74.1999 46.3001 70.6999 46.5001C73.7999 40.1001 73.7999 32.7001 70.3999 26.1001Z" fill="white"/>
<path d="M72.1999 11.3001C78.8999 11.7001 79.5 18.4001 80.2 23.7001C80.2 23.9001 80.2 24.1001 80.3 24.4001C76.6 24.3001 72.9 24.3001 69.3 24.3001C64.1 16.7001 52.4999 14.6001 43.7999 17.7001C39.3999 19.0001 35.8 21.9001 33.4 25.7001C25.8 25.6001 17.9 24.6001 10.2 25.2001C10.2 24.2001 10.3 23.2001 10.3 22.2001C10.4 19.7001 10.5 17.3001 11.2 15.4001C13.7 10.9001 17.5 10.6001 22.8 10.7001C27.7 10.8001 32.6 10.8001 37.4 10.8001C49.1 10.6001 60.6999 10.6001 72.1999 11.3001Z" fill="white"/>
<path d="M72.1999 11.3001C78.8999 11.7001 79.5 18.4001 80.2 23.7001C80.2 23.9001 80.2 24.1001 80.3 24.4001C76.6 24.3001 72.9 24.3001 69.3 24.3001C64.1 16.7001 52.4999 14.6001 43.7999 17.7001C39.3999 19.0001 35.8 21.9001 33.4 25.7001C25.8 25.6001 17.9 24.6001 10.2 25.2001C10.2 24.2001 10.3 23.2001 10.3 22.2001C10.4 19.7001 10.5 17.3001 11.2 15.4001C13.7 10.9001 17.5 10.6001 22.8 10.7001C27.7 10.8001 32.6 10.8001 37.4 10.8001C49.1 10.6001 60.6999 10.6001 72.1999 11.3001Z" fill="#394D8C"/>
<path d="M20.8 8.5002C20.9 7.6002 21 6.6002 21 5.7002C25.2 5.7002 29.4 5.7002 33.6 5.7002C33.6 6.7002 33.5 7.7002 33.6 8.6002C29.3 8.5002 25.1 8.5002 20.8 8.5002Z" fill="white"/>
<path d="M25.6 2.90004C25.9 2.30004 26.6999 2.00004 27.2999 1.90004C27.9999 1.70004 28.7999 1.80004 29.2999 2.30004C29.6999 2.70004 29.7999 3.20004 29.7999 3.70004C28.2999 3.70004 26.7 3.70004 25.2 3.70004C25.4 3.40004 25.5 3.20004 25.6 2.90004Z" fill="white"/>
<path d="M80.9 54.4001C79.7 61.7001 73.9 63.5 67.3 63.6C56.4 63.7 45.5 63.6 34.5 63.5C29.6 63.5 24.7 63.5 19.9 63.5C17.3 63.5 14.9 62.9 12.6 61.6C9.79995 60.1 9.89995 56.7 9.79995 54C9.69995 52.2 9.69995 50.4 9.69995 48.5C17.6 48.9 25.4999 48.8001 33.2999 48.9001C39.0999 56.9001 51.6 60.3001 60.5 56.2001C64.5 54.4001 67.5999 51.5 69.6999 48.1C73.4999 47.9 77.4 47.9 81.2 47.8C81.3 50 81.2 52.2001 80.9 54.4001Z" fill="#394D8C"/>
<path d="M66.8999 24.9002C62.6999 20.2002 56.4999 18.2002 50.3999 18.5002C43.4999 19.5002 37.8999 21.1002 34.3999 27.9002C31.6999 33.1002 30.7999 39.8002 33.6999 45.2002C38.9999 55.2002 53.0999 58.9002 62.6999 52.7002C71.1999 47.3002 73.9999 32.8002 66.8999 24.9002ZM55.3999 50.6002C47.6999 52.6002 38.1999 49.3002 36.8999 40.4002C36.0999 34.4002 38.5999 28.2002 43.4999 25.2002C49.7999 20.7002 61.1999 22.0002 64.1999 29.8002C67.3999 37.8002 64.2999 48.3002 55.3999 50.6002Z" fill="white"/>
<path d="M46.5999 26.0002C52.7999 23.8002 60.0999 24.4002 62.8999 31.6002C65.5999 38.5002 61.8999 46.4002 54.9999 48.8002C48.4999 51.0002 41.3999 47.8002 39.1999 41.2002C36.8999 34.4002 41.0999 29.0002 46.5999 26.0002Z" fill="white"/>
<path d="M13.9 35C13.3 35 13.3 35.9 13.9 35.9C14.2 35.9 14.5 35.8 14.7 35.6C14.8 35.5 14.8 35.3 14.7 35.3C14.5 35.1 14.2 35.1 13.9 35Z" fill="black"/>
<path d="M75.4 43.5C74.7 43.5 74.7 44.6 75.4 44.6C75.8 44.6 76.4 44.5 76.7 44.3C76.8 44.2 76.8 44.1 76.7 44C76.5 43.5 75.8 43.5 75.4 43.5Z" fill="black"/>
<path d="M77.2 31.0001C77.5 31.0001 77.8 31.0001 78 30.7001C78 30.6001 78 30.5001 78 30.5001C77.8 30.2001 77.5 30.2001 77.2 30.2001C76.6 30.1001 76.6 31.0001 77.2 31.0001Z" fill="black"/>
<path d="M77.2 6.60004C78 5.40004 78.4 3.80004 78.9 2.50004C79.3 1.40004 77.5 0.900038 77.1 2.00004C76.7 3.40004 76.2 5.00004 76.5 6.50004C76.6 6.90004 77 6.90004 77.2 6.60004Z" fill="black"/>
<path d="M81.4 5.30007C81 5.70007 80.6 6.20007 80.3 6.70007C80 7.20007 79.6 7.80007 79.5 8.40007C79.5 8.60007 79.8 8.80007 80 8.80007C80.5 8.60007 81 8.20007 81.4 7.70007C81.8 7.30007 82.2 6.90007 82.6 6.40007C83.3 5.60007 82.1 4.40007 81.4 5.30007Z" fill="black"/>
<path d="M72.4 3.0002C72.3 4.0002 72.4 5.5002 73.1 6.3002C73.3 6.5002 73.6 6.4002 73.6 6.2002C73.8 5.2002 73.7 4.1002 73.8 3.0002C74 2.1002 72.6 2.1002 72.4 3.0002Z" fill="black"/>
<path d="M6.09989 66.1001C5.39989 66.2001 4.69989 66.5001 3.99989 66.8001C3.19989 67.1001 2.49989 67.6001 1.79989 68.2001C0.899895 68.9001 2.19989 70.4001 3.09989 69.5001C4.09989 68.6001 5.69989 68.0001 6.39989 66.9001C6.79989 66.6001 6.49989 66.1001 6.09989 66.1001Z" fill="black"/>
<path d="M9.10002 69C8.80002 69.3 8.50002 69.8 8.40002 70.1C8.20002 70.6 8.00002 71.1 7.90002 71.7C7.70002 73 9.50002 73.2 9.60002 72C9.60002 71.1 10 70.1 9.90002 69.2C9.80002 68.9 9.40002 68.8 9.10002 69Z" fill="black"/>
<path d="M4.29998 61.8C2.99998 61.6 1.59998 61.9 0.399979 62.5C-0.600021 63 0.299979 64.6 1.29998 64C2.29998 63.4 3.59998 63.3 4.59998 62.4C4.79998 62.2 4.59998 61.9 4.29998 61.8Z" fill="black"/>
<path d="M49.6999 46.9C50.2999 46.8 50.3999 45.9 49.8999 45.6C46.3999 43.9 43.5999 41.1 43.5999 37C43.5999 32.8 47.0999 29.8 50.5999 28.4C51.0999 28.2 51.0999 27.2 50.3999 27.3C45.0999 27.9 41.4999 31.9 41.0999 37C40.6999 41.4 44.8999 47.8 49.6999 46.9Z" fill="black"/>
<path d="M52 47.1002C52.9 47.2002 53.9 46.9002 54.5 46.2002C54.8 45.8002 54.4 45.2002 53.9 45.2002C53.2 45.3002 52.7 45.6002 52 45.6002C51 45.5002 51 47.0002 52 47.1002Z" fill="black"/>
<path d="M72.1999 11.3001C60.5999 10.7001 49.1 10.7001 37.5 10.6001C32.6 10.6001 27.7 10.6001 22.9 10.5001C17.6 10.4001 13.8 10.7001 11.3 15.2001C11.3 15.3001 11.2 15.4001 11.2 15.5001C15 10.0001 24.6 11.8001 30.4 11.7001C38.6 11.6001 46.8 11.3001 55 11.4001C58.5 11.4001 62.0999 11.7001 65.5999 12.0001C69.4999 12.3001 73.8 11.4001 77.1 14.1001C77.5 14.4001 78 15.1001 78.6 15.8001C77.6 13.3001 75.6999 11.5001 72.1999 11.3001Z" fill="white"/>
<path d="M62.7999 31.6002C59.9999 24.4002 52.6999 23.8002 46.4999 26.0002C41.5999 28.7002 37.7999 33.3002 38.5999 39.1002C38.9999 34.6002 40.5999 31.0002 44.5999 28.1002C49.4999 24.5002 56.9999 24.4002 60.7999 29.5002C63.5999 33.3002 63.5999 38.5002 61.8999 42.8002C63.7999 39.4002 64.2999 35.4002 62.7999 31.6002Z" fill="white"/>
</g>
<defs>
<clipPath id="clip0_311_44157">
<rect width="83.3" height="72.8" fill="white"/>
</clipPath>
</defs>
</svg>
