<svg width="90" height="100" viewBox="0 0 90 100" fill="none" xmlns="http://www.w3.org/2000/svg">
<g clip-path="url(#clip0_311_44182)">
<path d="M66.3001 24.4C67.7001 23 69.1001 21.6 70.5001 20.2C71.9001 18.8 74.1001 17.2 73.4001 14.9C72.9001 12.9 70.1001 11.5 68.9001 10C67.1001 7.90002 65.1001 7.90002 62.4001 8.00002C59.0001 8.00002 55.5001 7.80002 52.1001 8.00002C49.0001 8.20002 46.9001 11.3 45.1001 13.3C43.7001 14.8 43.6001 16 44.7001 17.6C46.5001 20.3 48.9001 22.9 51.2001 25.3C41.9001 27.7 35.0001 34.5 31.9001 43.2C30.8001 43.2 29.7001 43.2 28.6001 43.3C29.2001 40.6 29.9001 36.5 28.4001 35.1C27.1001 33.9 25.3001 33.2 23.7001 32.5C21.0001 31.3 19.4001 32 16.8001 33C15.2001 33.6 13.7001 34.5 12.1001 35.1C11.0001 35.5 9.80008 35.5 8.80008 36.1C6.60008 37.3 5.90008 39.5 5.10008 41.8C4.50008 43.6 3.90008 44.9 5.00008 46.6C6.20008 48.5 9.00008 50.2 11.2001 51.4C9.50008 53.3 8.00008 55.4 6.80008 57.9C2.30008 67.4 3.30008 78.8 9.50008 87.3C22.4001 105.2 50.9001 102.4 59.7001 82.4C75.3001 82 89.0001 68.8 89.3001 52.9C89.6001 38.6 79.8001 26.2 66.3001 24.4ZM17.1001 82.8C7.90008 70.3 14.0001 52.3 30.0001 52.1C29.9001 54 29.9001 55.9 30.1001 57.8C31.3001 68.8 39.7001 77.7 49.9001 81C43.1001 92.9 25.4001 93.9 17.1001 82.8ZM39.9001 54.4C47.3001 57.7 51.3001 64 51.7001 72C44.7001 69.2 40.2001 62.3 39.9001 54.4ZM61.5001 73.2C61.7001 60.1 54.7001 48.8 41.9001 44.9C45.4001 38 53.1001 35 61.0001 33.3C64.1001 33 67.2001 33.3 70.2001 34.6C75.7001 36.9 79.0001 42.2 80.2001 47.8C82.8001 59.8 73.0001 71.6 61.5001 73.2Z" fill="black"/>
<path d="M63.0999 24.2C62.4999 24.2 61.8 24.1999 61.2 24.2999C62.7 21.9999 64.2 19.7 65.3 17.2C67 17.1 68.8 17.1 70.4 16.7C70.3 16.9 70.1999 17.0999 70.0999 17.2999C67.8999 19.6999 65.3999 21.9 63.0999 24.2Z" fill="#394D8C"/>
<path d="M57.7 24.6C56.3 22.5 55.1 20.4 54 18.2C53.9 18 53.8 17.8 53.7 17.6C54.6 17.6 55.4 17.5 56 17.5C58.6 17.6 61.1999 17.4 63.7999 17.2C62.4999 19.6 61 21.9999 59.5 24.2999C59.3 24.2999 58.9999 24.3 58.7999 24.4C58.6999 24.4 58.6999 24.5 58.5999 24.5C58.2999 24.5 58 24.5 57.7 24.6Z" fill="#394D8C"/>
<path d="M67.2 11.6C67.9 12.3 69.9001 13.9 70.4001 15.4C68.9001 15.8 67.3 15.9 65.7 15.9C65.8 14.1 63.9 11.7 62.8 10.2C64.4 10.2 66 10.3 67.2 11.6Z" fill="#394D8C"/>
<path d="M60.8001 10.3999C60.9001 10.3999 61.1001 10.3999 61.3001 10.3999C62.1001 11.4999 62.7001 12.5999 63.3001 13.6999C63.9001 14.6999 64.3001 15.2999 64.2001 16.0999C62.1001 16.1999 60.0001 16.2999 58.0001 16.3999C56.5001 16.3999 55.0001 16.3999 53.6001 16.3999C53.7001 15.6999 54.0001 14.9999 54.6001 14.0999C55.3001 12.8999 56.0001 11.7999 56.7001 10.5999C57.9001 10.3999 59.3001 10.4999 60.8001 10.3999Z" fill="#394D8C"/>
<path d="M47.9999 13.7C50.2999 11.2 52.6999 10.6 55.2999 10.5C54.5999 11.6 53.9 12.7 53.2 13.9C52.8 14.6 52.2 15.5 52.2 16.3C52.2 16.3 52.1999 16.3 52.0999 16.3C50.4999 16.3 48.9 16.3 47.4 15.9C47.2 15.1 47.3999 14.3 47.9999 13.7Z" fill="#394D8C"/>
<path d="M47.6001 17.1001C49.0001 17.6001 50.7001 17.6001 52.4001 17.6001C53.4001 20.0001 54.8001 22.4001 56.3001 24.6001C55.3001 24.7001 54.3001 24.8001 53.3001 25.0001C51.6001 23.2001 48.6001 19.9001 47.6001 17.1001Z" fill="#394D8C"/>
<path d="M21.9 44.7001C21.8 43.3001 21.9 42.0001 22 40.5001C22.1 39.6001 22 38.9001 21.7 38.2001C22 38.1001 22.4 38.0001 22.7 37.9001C24 37.5001 25.4 37.6001 26.7 37.1001C27.2 39.0001 26.6 41.7001 26.1 43.8001C24.7 43.9001 23.3 44.3001 21.9 44.7001Z" fill="#394D8C"/>
<path d="M18.1001 46.2C17.2001 45.6 16.1001 45.2999 15.1001 44.7999C13.8001 44.1999 12.7001 43.3999 11.4001 42.7999C12.6001 41.9999 13.9001 41.3 15.3001 40.7C16.9001 40 18.5001 39.3 20.2001 38.7C20.7001 39.5 20.7001 40.4999 20.5001 41.7999C20.4001 42.9999 20.4001 44.1 20.5001 45.2C19.7001 45.5 18.9001 45.8 18.1001 46.2Z" fill="#394D8C"/>
<path d="M18.5 37.2999C18.8 37.3999 19 37.5 19.2 37.7C18 38.2 16.7 38.7 15.5 39.2C13.9 39.9 12.4 40.7 11 41.7C11.4 40.2 12 38.6999 12.3 37.0999C13.4 36.5999 14.6 36.1 15.8 35.7C16.4 36.5 18 37.0999 18.5 37.2999Z" fill="#394D8C"/>
<path d="M26.1001 35.9C24.6001 36.2 23.1001 36.3 21.7001 36.8C21.4001 36.9 21.1001 37 20.8001 37.1C20.3001 36.7 18.3001 35.8 16.9001 35.2C17.5001 35 18.0001 34.8 18.5001 34.6C19.9001 34.1 24.5001 34.2 26.1001 35.9Z" fill="#394D8C"/>
<path d="M7.30015 41.5C7.90015 39.9 9.30015 38.6 11.1001 37.7C10.4001 39.3 9.80015 41 9.50015 42.7C8.70015 43.3 7.80015 44 7.00015 44.7C6.80015 43.7 6.90015 42.7 7.30015 41.5Z" fill="#394D8C"/>
<path d="M7.5 45.5999C8.1 45.1999 8.7 44.6999 9.3 44.1999C9.6 43.8999 10 43.6999 10.4 43.3999C11.9 43.9999 13.2 44.7999 14.6 45.5999C15.4 45.9999 16.2 46.2999 17 46.6999C15.4 47.5999 13.9 48.6999 12.5 49.9999C10.5 48.4999 8.4 47.3999 7.5 45.5999Z" fill="#394D8C"/>
<path d="M10.9001 85.1001C5.60011 77.8001 5.60011 68.3001 8.70011 60.1001C12.3001 50.5001 21.3001 46.3001 31.0001 46.1001C30.9001 46.3001 30.9001 46.6001 30.8001 46.8001C28.0001 46.9001 25.1001 47.4001 22.5001 48.7001C22.3001 48.8001 22.4001 49.2001 22.7001 49.1001C25.3001 48.3001 27.9001 47.8001 30.6001 47.7001C30.4001 48.5001 30.3001 49.2001 30.2001 50.0001C22.5001 49.9001 15.8001 53.5001 12.2001 60.6001C8.40011 68.1001 10.9001 77.2001 15.2001 83.9001C23.8001 97.3001 45.0001 95.0001 52.2001 81.6001C53.5001 81.9001 54.8001 82.1001 56.1001 82.2001C56.3001 82.2001 56.5001 82.2001 56.6001 82.2001C48.0001 100.6 22.4001 101 10.9001 85.1001Z" fill="white"/>
<path d="M80.0001 34.2001C74.2001 28.1001 67.2001 27.2001 59.2001 26.7001C59.1001 26.7001 59.0001 26.7001 58.9001 26.6001C50.7001 27.7001 42.4001 30.3001 37.5001 37.6001C34.8001 41.6001 33.1001 46.3001 32.7001 51.1001C32.7001 51.2001 32.7001 51.4001 32.7001 51.5001C32.5001 53.9001 32.6001 56.3001 33.1001 58.7001C35.3001 69.4001 44.8001 79.1001 56.2001 79.7001C71.4001 80.5001 87.3001 69.1001 86.8001 52.9001C86.5001 46.3001 84.7001 39.1001 80.0001 34.2001ZM60.5001 75.6001C47.7001 75.8001 36.4001 66.3001 37.6001 52.9001C38.8001 39.6001 49.5001 31.1001 62.8001 31.2001C62.9001 31.2001 62.9001 31.2001 63.0001 31.2001C72.6001 31.3001 81.1001 37.3001 82.7001 48.5001C84.4001 61.4001 73.6001 75.4001 60.5001 75.6001Z" fill="white"/>
<path d="M58.7 73.3C57.1 73.3 55.5 73.0999 54.1 72.6999C53.8 63.0999 48.9 55.7 40 52C40 51.9 40 51.7999 40 51.7999C40.1 50.0999 40.5 48.6 40.9 47.2C52.7 51.1 59 61.1 58.7 73.3Z" fill="white"/>
<path d="M20.4001 50.0001C20.7001 49.8001 21.0001 49.7001 21.2001 49.4001C21.3001 49.3001 21.2001 49.1001 21.1001 49.1001C20.7001 49.1001 20.4001 49.2001 20.1001 49.4001C19.8001 49.7001 20.1001 50.3001 20.4001 50.0001Z" fill="black"/>
<path d="M54.2 29.9C54.4 29.8 54.4 29.5 54.1 29.5C46.7 29.7 38.6 36.6 36.1 43.3C36 43.5 36.3 43.5 36.4 43.4C41.2 37.1 46.4 32 54.2 29.9Z" fill="black"/>
<path d="M16.9001 28C17.3001 27.5 17.5001 26.6 17.6001 26C17.8001 25 16.2001 24.8 16.2001 25.8C16.2001 26.5 16.1001 27.3 16.4001 27.9C16.5001 28.1 16.7001 28.1 16.9001 28Z" fill="black"/>
<path d="M11.0001 29.3C11.2001 29.5 11.5001 29.4 11.6001 29.1C11.6001 28.2 11.2001 27.1 10.8001 26.2C10.4001 25.3 9.0001 26.1 9.5001 27C10.0001 27.7 10.3001 28.7 11.0001 29.3Z" fill="black"/>
<path d="M4.89996 31.2C5.19996 31.4 5.49996 31.8 5.89996 31.9C6.09996 31.9 6.29996 31.8 6.29996 31.6C6.29996 31.1 5.99996 30.6 5.69996 30.3C5.39996 29.9 5.09996 29.5 4.59996 29.3C3.79996 29.1 3.49996 30.1 4.09996 30.6C4.39996 30.7 4.69996 31 4.89996 31.2Z" fill="black"/>
<path d="M21.5002 28.9999C22.0002 28.6999 22.5002 28.1999 22.9002 27.6999C23.4002 26.9999 22.1002 26.2999 21.8002 26.9999C21.5002 27.5999 21.1002 27.9999 21.0002 28.6999C20.9002 28.9999 21.3002 29.0999 21.5002 28.9999Z" fill="black"/>
<path d="M0.900043 35.8C-0.199957 35.6 -0.399957 37.2 0.700043 37.2C1.40004 37.2 2.20004 37.4 3.00004 37.3C3.30004 37.2 3.30004 36.9 3.10004 36.8C2.60004 36.2 1.60004 35.9 0.900043 35.8Z" fill="black"/>
<path d="M57.5001 3.69998C57.6001 3.89998 57.8001 3.89998 58.0001 3.69998C58.2001 3.29998 58.3001 2.79998 58.4001 2.39998C58.5001 1.89998 58.6001 1.39998 58.7001 0.899982C58.9001 -0.100018 57.4001 -0.400018 57.3001 0.699982C57.2001 1.19998 57.2001 1.69998 57.3001 2.19998C57.2001 2.69998 57.2001 3.29998 57.5001 3.69998Z" fill="black"/>
<path d="M64.5 4.09986C64.7 4.19986 64.8 4.09986 65 3.99986C65.1 3.89986 65.1 3.89986 65.2 3.79986C65.1 3.99986 65.4 3.59986 65.4 3.59986C65.7 3.19986 65.9 2.79986 66.1 2.39986C66.6 1.69986 65.4 0.999862 64.9 1.69986C64.6 2.09986 64.4 2.59986 64.3 2.99986C64.3 3.09986 64.2 3.19986 64.2 3.39986C64.2 3.49986 64.2 3.49986 64.2 3.49986V3.59986C64.3 3.79986 64.4 3.99986 64.5 4.09986Z" fill="black"/>
<path d="M71.2 6.2C71.5 6.2 71.9 6 72.1 5.8C72.4 5.6 72.7 5.4 72.9 5.2C73.4 4.7 72.8 3.9 72.1 4.2C71.6 4.5 70.6 5.3 70.8 6C70.9 6.1 71 6.2 71.2 6.2Z" fill="black"/>
<path d="M49.5002 4.5C49.7002 4.6 49.9002 4.5 49.9002 4.3C50.0002 3.7 49.8002 3 49.6002 2.5C49.3002 1.5 47.8002 2.1 48.2002 3.1C48.5002 3.7 49.0002 4.3 49.5002 4.5Z" fill="black"/>
<path d="M41.1 7.70006C41.5 7.90006 41.9 8.20006 42.3 8.30006C42.7 8.50006 43.2 8.70006 43.6 8.60006C43.7 8.60006 43.9 8.40006 43.8 8.20006C43.7 7.80006 43.3 7.50006 43 7.30006C42.6 7.00006 42.2 6.70006 41.8 6.40006C41.1 5.90006 40.3 7.20006 41.1 7.70006Z" fill="black"/>
</g>
<defs>
<clipPath id="clip0_311_44182">
<rect width="89.3" height="99.3" fill="white"/>
</clipPath>
</defs>
</svg>
