<svg width="86" height="139" viewBox="0 0 86 139" fill="none" xmlns="http://www.w3.org/2000/svg">
<path d="M84.5089 18.7951V133.728C84.5089 136.122 82.5673 138.064 80.1733 138.064H5.33568C2.94163 138.064 1 136.122 1 133.728V18.7951C1 17.6075 1.47127 16.5519 2.2253 15.7602C2.62117 15.3454 3.11129 15.025 3.63911 14.7988L4.03499 14.648L40.1908 1.45242C41.8308 0.849194 43.6216 0.849194 45.2616 1.45242L81.3797 14.6291L81.8698 14.8176C82.3788 15.0438 82.8501 15.3643 83.246 15.7602C84.0377 16.5519 84.5089 17.6264 84.5089 18.7951Z" fill="#6C6EA0" stroke="#231F20" stroke-miterlimit="10"/>
<path d="M75.0095 93.689H10.653C8.57938 93.689 6.88281 91.9924 6.88281 89.9188V30.1242C6.88281 28.0506 8.57938 26.354 10.653 26.354H75.0095C77.0831 26.354 78.7797 28.0506 78.7797 30.1242V89.9188C78.7797 92.0113 77.0831 93.689 75.0095 93.689Z" fill="#FFEDEA" stroke="#231F20" stroke-miterlimit="10"/>
<path d="M73.3118 90.2962H12.3295C11.3304 90.2962 10.501 89.4856 10.501 88.4677V31.5949C10.501 30.5958 11.3116 29.7664 12.3295 29.7664H73.3118C74.3109 29.7664 75.1403 30.5769 75.1403 31.5949V88.4677C75.1403 89.4668 74.3109 90.2962 73.3118 90.2962Z" fill="#FFEDEA" stroke="#231F20" stroke-width="0.3" stroke-miterlimit="10"/>
</svg>
