<svg width="27" height="27" viewBox="0 0 27 27" fill="none" xmlns="http://www.w3.org/2000/svg">
<path d="M13.63 26.26C20.6054 26.26 26.26 20.6054 26.26 13.63C26.26 6.65465 20.6054 1 13.63 1C6.65465 1 1 6.65465 1 13.63C1 20.6054 6.65465 26.26 13.63 26.26Z" fill="#FFEDEA" stroke="#231F20" stroke-miterlimit="10"/>
<path d="M10.7099 12.4271C11.2638 12.987 12.0191 13.2416 12.7241 13.2416C13.429 13.2416 14.134 12.987 14.6879 12.4271C14.9901 12.1216 14.9901 11.6125 14.6879 11.3071L12.7241 9.32162L12.4723 9.06708C10.9616 7.53982 8.49424 7.53982 6.98358 9.06708C5.47292 10.5943 5.47292 13.0889 6.98358 14.6161C7.08429 14.7179 7.2857 14.7179 7.38641 14.6161L9.60205 12.3761C9.95454 12.1216 10.4077 12.1216 10.7099 12.4271Z" fill="#6C6EA0"/>
<path d="M20.6296 11.3066L16.2487 6.87753C15.9466 6.57207 15.443 6.57207 15.1409 6.87753L13.3784 8.65932C13.2777 8.76114 13.2777 8.96477 13.3784 9.06659L15.0905 10.7975C15.6444 11.3575 15.6444 12.3247 15.0905 12.9356C14.4359 13.5974 13.6302 13.9029 12.7742 13.9029C11.9181 13.9029 11.0621 13.5974 10.4075 12.9356C10.3068 12.8338 10.1054 12.8338 10.0047 12.9356L8.24222 14.7174C7.94009 15.0229 7.94009 15.532 8.24222 15.8374L12.2203 19.8592C12.3713 20.0119 12.5728 20.1137 12.7742 20.0628C12.9756 20.0628 13.1267 19.961 13.2777 19.8592L20.6296 12.4266C20.9317 12.1211 20.9317 11.612 20.6296 11.3066Z" fill="#6C6EA0"/>
</svg>
