<svg width="156" height="123" viewBox="0 0 156 123" fill="none" xmlns="http://www.w3.org/2000/svg">
<g clip-path="url(#clip0_301_5345)">
<path fill-rule="evenodd" clip-rule="evenodd" d="M125.065 41.7548C122.557 33.4822 117.467 27.0674 110.991 21.5668C107.68 18.7513 103.757 16.9952 99.921 15.0794C94.6996 12.4815 89.3032 10.4352 83.4109 9.99976C79.9543 9.75304 76.5123 9.43375 73.0411 9.79658C68.9573 10.232 65.1069 11.4656 61.2565 12.8153C57.7269 14.049 54.5328 15.8631 51.5429 18.0256C49.9824 19.1576 48.378 20.3622 47.6342 22.278C47.5467 22.5102 47.6779 22.8295 47.7071 23.1198C47.955 23.0472 48.2613 23.0472 48.4363 22.9021C49.0781 22.3796 49.6469 21.77 50.2886 21.2621C54.0953 18.2433 58.3103 15.9937 62.89 14.3392C67.4842 12.6847 72.2243 11.9736 77.0811 12.3945C80.2314 12.6702 83.3672 13.1346 86.5029 13.5265C90.6742 14.049 94.5538 15.4277 98.2292 17.4306C103.436 20.2752 107.928 24.0341 112.114 28.1559C116.708 32.6695 119.888 38.0539 121.463 44.3091C122.192 47.2118 122.703 50.158 123.286 53.1042C123.84 55.9198 123.709 58.7644 123.461 61.609C123.155 65.1502 122.046 68.5028 121.142 71.8989C118.823 80.5923 114.112 87.7764 107.024 93.335C104.719 95.1346 102.284 96.8762 99.6585 98.1098C96.056 99.7934 92.2494 101.042 88.4719 102.348C83.7318 103.988 78.8313 103.843 73.9453 103.378C71.6263 103.16 69.3365 102.623 67.0175 102.319C59.798 101.346 53.4973 98.3566 47.853 93.8574C47.0945 93.2479 46.3945 92.5658 45.709 91.8691C42.5295 88.6327 39.9917 84.9028 37.556 81.1293C36.4184 79.3732 35.3829 77.5155 34.6536 75.5707C33.866 73.4808 33.3993 71.2603 32.918 69.0688C31.7366 63.6553 31.6346 58.2274 32.6117 52.7704C33.0785 50.187 33.3118 47.5746 33.691 44.9767C33.8515 43.8737 33.9827 42.7417 34.3765 41.7113C35.8788 37.8652 37.5998 34.1208 40.2105 30.8408C40.6772 30.2603 41.0272 29.5782 41.3918 28.9251C41.4794 28.7654 41.4648 28.4461 41.3627 28.3445C41.246 28.2284 40.9397 28.2284 40.7647 28.2865C39.2187 28.8525 38.0373 29.8829 37.1331 31.2182C34.5369 35.0352 32.743 39.244 31.2262 43.569C30.6574 45.1945 30.1323 46.849 29.8698 48.5325C29.3593 51.856 29.0384 55.2231 28.6447 58.5757C28.1633 62.6249 28.4259 66.6451 29.2572 70.6362C30.074 74.5403 31.445 78.2267 33.1951 81.826C35.6454 86.8766 38.5624 91.5208 42.9378 95.1636C47.5321 98.9951 52.3889 102.391 58.1353 104.263C64.611 106.382 71.2763 107.514 78.1312 107.384C79.1084 107.384 80.0856 107.413 81.0628 107.384C84.6215 107.239 88.1218 106.687 91.491 105.57C98.55 103.219 104.924 99.6482 110.612 94.8298C113.529 92.3626 115.891 89.4599 117.904 86.3251C120.909 81.6518 123.315 76.6592 125.007 71.3183C126.772 65.7598 127.88 60.1286 127.516 54.3088C127.253 50.0129 126.32 45.8621 125.065 41.7548Z" fill="#0D214F"/>
<path fill-rule="evenodd" clip-rule="evenodd" d="M113.368 71.9856C114.52 71.4776 114.885 70.6504 115.046 69.7505C115.381 67.9073 115.789 66.0642 115.891 64.2065C116.139 59.0833 115.527 54.0617 114.2 49.0836C112.581 43.0171 109.576 37.6472 105.682 32.8723C101.715 28.0104 96.829 24.1063 90.8346 21.8132C86.8821 20.3038 82.8421 19.1863 78.6416 18.7364C76.6289 18.5187 74.5579 18.4751 72.5597 18.7364C69.8178 19.0847 67.0466 19.6072 64.4068 20.4054C58.8937 22.0744 54.3432 25.427 50.1427 29.244C49.2093 30.0857 48.5238 31.2033 47.78 32.2482C47.4445 32.7272 47.0508 33.3657 47.6341 33.8737C48.3488 34.4978 48.6843 33.6996 49.0489 33.2932C52.3742 29.4762 56.6914 27.0525 61.0522 24.6723C61.5773 24.382 62.1461 24.1643 62.7149 23.9757C69.2927 21.8132 76.0163 21.5955 82.7837 22.6404C88.6177 23.5403 93.8391 25.9785 98.6083 29.4327C99.0313 29.7374 99.4105 30.1148 99.7605 30.4921C100.563 31.3774 101.365 32.2773 102.138 33.1771C102.925 34.0769 103.757 34.9477 104.457 35.9056C106.863 39.2727 108.978 42.7994 110.451 46.6889C111.706 49.9834 112.814 53.2925 113.208 56.8482C113.631 60.7523 113.631 64.6273 113.295 68.5169C113.193 69.6199 112.887 70.7374 113.368 71.9856Z" fill="#0D214F"/>
<path fill-rule="evenodd" clip-rule="evenodd" d="M39.2041 60.3899C39.2916 62.1895 39.2041 64.0037 39.5104 65.7598C40.5897 71.9279 42.5295 77.8203 46.0007 83.1177C47.0216 84.6706 48.1738 86.1945 49.4427 87.5442C50.3032 88.4586 51.4846 89.0536 52.5055 89.8083C54.6933 91.3902 56.881 93.0012 59.5063 93.843C60.2793 94.0897 61.1106 94.1623 61.9128 94.2494C62.3649 94.2929 62.9046 94.1623 62.9191 93.6108C62.9191 93.335 62.5837 92.9722 62.292 92.8125C61.6357 92.4497 60.9502 92.1304 60.2355 91.8837C56.9685 90.7226 54.387 88.4731 51.9367 86.209C50.2157 84.6125 48.9031 82.5081 47.5758 80.5198C45.0818 76.7899 43.9004 72.523 42.6316 68.2851C41.844 65.6727 41.6398 63.0168 41.6106 60.3028C41.5814 56.2391 42.2232 52.2479 42.7045 48.2278C42.9524 46.1524 43.1566 44.0479 44.1192 42.1177C44.2213 41.929 44.2651 41.6823 44.2505 41.4646C44.2359 41.2614 44.163 40.9131 44.0317 40.8695C43.7838 40.797 43.39 40.7679 43.2149 40.9131C42.8212 41.2324 42.4128 41.6242 42.194 42.0886C41.7856 42.9594 41.3773 43.8738 41.1876 44.8171C40.1375 49.9403 39.2479 55.1071 39.2041 60.3899Z" fill="#0D214F"/>
<path fill-rule="evenodd" clip-rule="evenodd" d="M78.5981 96.3391C78.6273 96.5133 78.6711 96.6729 78.7002 96.8471C80.64 96.702 82.5944 96.6294 84.5196 96.3972C88.968 95.8747 93.1393 94.554 96.9751 92.1448C101.365 89.3873 105.026 85.9331 107.972 81.7098C108.191 81.3905 108.176 80.926 108.264 80.5197C107.841 80.4761 107.389 80.331 106.995 80.4326C106.587 80.5487 106.207 80.8535 105.901 81.1583C104.778 82.2467 103.655 83.3498 102.576 84.4818C100.184 87.0071 97.4272 89.0099 94.3644 90.6935C89.8285 93.1752 84.9717 94.6411 79.9983 95.8602C79.5316 96.0053 79.0649 96.194 78.5981 96.3391Z" fill="#0D214F"/>
<path fill-rule="evenodd" clip-rule="evenodd" d="M104.996 52.0594C104.821 51.9723 104.355 52.0884 104.238 52.2626C103.669 53.1334 103.042 54.0042 102.677 54.9766C100.913 59.6789 99.2208 64.3957 97.5436 69.127C97.281 69.8672 96.8727 70.6364 97.106 71.6814C97.9082 71.2024 98.302 70.6074 98.5791 69.9252C99.3813 67.9079 100.198 65.8906 100.956 63.8587C101.948 61.1883 102.692 58.4307 104.078 55.9199C104.617 54.9475 104.938 53.8445 105.288 52.7851C105.347 52.5964 105.171 52.161 104.996 52.0594Z" fill="#0D214F"/>
<path fill-rule="evenodd" clip-rule="evenodd" d="M98.1709 57.8355C98.1125 57.7629 97.5875 57.9516 97.4416 58.1403C97.0332 58.6627 96.6103 59.2142 96.3477 59.8238C95.2539 62.3636 94.2183 64.918 93.1828 67.4723C93.0661 67.7481 92.9203 68.0819 92.9932 68.3286C93.0807 68.6334 93.3724 68.8656 93.737 69.3155C94.2183 68.735 94.6996 68.3576 94.9038 67.8642C96.1144 65.0486 97.2666 62.2185 98.4334 59.3884C98.5209 59.1852 98.6376 58.9385 98.5938 58.7498C98.5209 58.416 98.3896 58.0822 98.1709 57.8355Z" fill="#0D214F"/>
<path fill-rule="evenodd" clip-rule="evenodd" d="M101.627 70.2295C101.773 70.302 101.919 70.3746 102.065 70.4327C102.955 69.6344 103.436 68.5459 103.932 67.4865C104.982 65.1934 105.988 62.8567 106.951 60.5201C107.243 59.8089 107.914 59.0833 107.316 58.2415C107.009 57.8061 106.178 58.3866 105.536 59.838C104.384 62.4939 103.348 65.2079 102.298 67.9219C102.021 68.6765 101.846 69.4603 101.627 70.2295Z" fill="#0D214F"/>
<path fill-rule="evenodd" clip-rule="evenodd" d="M68.4617 94.4815C68.0533 94.6847 67.922 95.3813 68.3158 95.5845C69.0888 95.9619 69.9347 96.2521 70.489 96.4698C71.1161 96.3537 71.437 96.3537 71.6849 96.2231C72.0495 96.0344 72.2391 95.7006 71.962 95.3088C71.3932 94.5396 69.3076 94.0606 68.4617 94.4815Z" fill="#0D214F"/>
<path fill-rule="evenodd" clip-rule="evenodd" d="M155.402 4.83295C155.256 3.65737 154.95 2.46728 154.556 1.34976C154.133 0.116134 153.229 -0.304751 152.062 0.203213C151.26 0.551532 150.487 1.10304 149.874 1.71259C148.168 3.43967 146.928 5.47153 146.024 7.7356C144.143 12.4089 142.786 17.2418 141.576 22.1183C139.315 31.3197 138.046 40.6372 138.134 50.1434C138.192 55.1069 140.598 58.8078 143.734 62.262C144.42 63.0167 145.164 62.8425 145.995 62.5668C146.928 62.262 147.001 61.5073 146.972 60.7671C146.957 60.2737 146.768 59.7367 146.505 59.3158C145.893 58.2853 145.193 57.313 144.551 56.297C142.772 53.4669 141.342 50.5353 141.561 47.0521C141.707 44.6574 141.707 42.2627 141.897 39.8825C142.378 34.1207 143.311 28.417 144.872 22.8584C146.564 16.7919 148.445 10.7979 150.268 4.7749C150.414 4.29596 150.677 3.78799 151.027 3.42516C151.289 3.14941 151.8 2.94622 152.179 2.97525C152.383 2.98976 152.631 3.51224 152.733 3.84605C152.835 4.19436 152.791 4.58622 152.821 4.96357C152.923 6.98091 152.908 9.01277 153.156 11.0156C153.71 15.4131 153.885 19.8252 153.783 24.2372C153.623 31.7986 153.389 39.36 153.054 46.9215C152.675 55.5133 151.843 64.0907 151.741 72.7115C151.727 74.0613 151.771 75.3965 151.771 76.7462C151.785 78.9087 151.771 81.0857 151.785 83.2482C151.814 89.6921 151.858 96.1215 151.887 102.565C151.902 106.237 151.858 109.909 151.931 113.581C151.96 114.844 152.208 116.106 152.456 117.354C152.514 117.645 152.923 118.066 153.171 118.066C153.564 118.066 154.031 117.833 154.323 117.543C154.556 117.311 154.644 116.875 154.687 116.513C154.804 115.395 154.921 114.278 154.935 113.16C155.008 110.083 154.863 107.006 155.14 103.944C155.533 99.5321 155.475 95.1055 155.402 90.6935C155.315 85.6719 155.125 80.6503 155.096 75.6432C155.038 69.0542 155.081 62.4507 155.081 55.8471C155.081 55.8471 155.081 55.8471 155.067 55.8471C155.067 55.0924 155.038 54.3522 155.067 53.5976C155.329 45.8039 155.636 38.0248 155.84 30.2312C155.971 25.5144 155.898 20.783 156 16.0662C156.073 12.2928 155.84 8.56286 155.402 4.83295Z" fill="#0D214F"/>
<path fill-rule="evenodd" clip-rule="evenodd" d="M151.785 118.878C151.712 118.835 151.362 119.023 151.275 119.198C150.837 120.054 150.166 120.359 149.233 120.155C148.329 119.952 147.818 119.372 147.497 118.559C147.308 118.065 147.103 117.587 146.928 117.093C146.666 116.411 146.214 115.845 145.47 115.845C143.982 115.859 143.822 114.887 143.647 113.784C143.078 110.214 142.961 106.615 143.413 103.03C143.997 98.429 144.682 93.8283 145.412 89.2421C146.33 83.3933 147.278 77.5444 147.162 71.6085C147.162 70.1136 147.191 68.6188 147.147 67.1094C147.133 66.674 147.016 66.2096 146.812 65.8322C146.607 65.4259 146.155 65.4404 145.878 65.7742C145.645 66.0499 145.47 66.4128 145.426 66.7611C145.251 68.0237 145.047 69.2864 145.047 70.549C145.076 76.4269 144.128 82.1887 142.976 87.9214C141.94 93.0591 141.094 98.2258 140.526 103.451C140.103 107.224 140.424 110.925 141.488 114.568C141.984 116.251 142.772 117.804 144.449 118.617C145.237 118.994 145.499 119.618 145.791 120.301C146.505 121.882 147.833 122.666 149.481 122.927C151.173 123.203 152.048 122.507 152.296 120.838C152.354 120.402 152.369 119.938 152.296 119.502C152.237 119.27 151.989 119.023 151.785 118.878Z" fill="#0D214F"/>
<path fill-rule="evenodd" clip-rule="evenodd" d="M150.676 53.1186C150.924 51.7253 151.289 50.332 151.405 48.9388C151.653 45.949 151.741 42.9593 151.945 39.9696C152.616 30.1005 152.456 20.217 152.237 10.3335C152.222 9.8255 152.105 9.28851 151.96 8.80957C151.814 8.33064 151.23 8.22904 150.866 8.59187C150.239 9.18692 149.947 9.9271 149.918 10.7979C149.859 13.9328 149.757 17.0821 149.699 20.217C149.611 25.3112 149.568 30.3908 149.495 35.485C149.436 40.2743 149.305 45.0637 149.305 49.8531C149.305 51.8414 149.32 53.8733 150.195 55.7455C150.341 54.8602 150.516 53.9894 150.676 53.1186Z" fill="#0D214F"/>
<path fill-rule="evenodd" clip-rule="evenodd" d="M146.111 96.4553C145.98 96.615 146.009 96.8762 145.966 97.0939C145.207 100.853 144.988 104.641 145.105 108.458C145.12 109.183 145.368 109.938 145.674 110.606C145.82 110.94 146.33 111.114 146.68 111.375C146.87 111.012 147.22 110.678 147.249 110.301C147.453 108.066 147.57 105.831 147.73 103.596C147.803 103.596 147.862 103.596 147.935 103.596C147.935 101.811 147.949 100.011 147.92 98.2259C147.92 97.6309 147.891 97.0213 147.716 96.4698C147.628 96.1941 147.191 95.8603 146.899 95.8603C146.637 95.8313 146.316 96.1941 146.111 96.4553Z" fill="#0D214F"/>
<path fill-rule="evenodd" clip-rule="evenodd" d="M149.495 66.0498C149.539 66.2239 149.801 66.4126 149.991 66.4271C150.122 66.4416 150.385 66.2239 150.428 66.0788C150.56 65.4983 150.618 64.9032 150.691 64.4098C150.633 63.9453 150.618 63.568 150.516 63.2052C150.472 63.0165 150.297 62.7698 150.151 62.7407C150.005 62.7117 149.743 62.8859 149.641 63.0455C149.028 64.0034 149.247 65.0338 149.495 66.0498Z" fill="#0D214F"/>
<path fill-rule="evenodd" clip-rule="evenodd" d="M18.3627 5.26853C18.319 4.89119 18.3044 4.49933 18.1586 4.16553C18.0565 3.94783 17.721 3.65756 17.5314 3.68659C17.3126 3.71561 17.0064 4.03491 16.9626 4.26712C16.8605 5.0073 16.8313 5.76199 16.8605 6.50216C16.9918 9.95632 17.2105 13.396 17.2835 16.8356C17.3418 19.8253 17.1814 24.8324 17.2397 27.8367C17.298 31.1312 16.5542 35.2239 15.2562 38.2282C14.9353 38.9684 14.7019 39.7376 13.7102 39.9988C13.3164 40.1004 12.9518 40.7099 12.8059 41.1599C12.5871 41.7839 12.5142 42.4806 12.4996 43.1482C12.3829 49.0696 12.2079 56.9938 12.2371 62.9153C12.2663 67.7046 12.485 72.5085 12.7476 77.2979C12.8934 80.1425 13.0101 83.0162 13.5789 85.7882C15.4312 94.6558 15.8979 103.61 15.8833 112.623C15.8833 113.9 15.8541 114.075 14.5853 114.336C13.331 114.597 12.8351 115.352 12.5142 116.426C12.2225 117.355 11.9016 118.269 11.5954 119.198C11.2599 120.199 10.4869 120.489 9.40762 120.01C8.91174 119.793 8.48877 119.256 8.18249 118.777C7.86162 118.283 7.70119 117.688 7.48242 117.122C7.21989 116.44 6.78234 115.845 6.0531 115.86C4.58002 115.874 4.39042 114.916 4.20082 113.813C3.64659 110.62 3.55908 107.398 3.80702 104.176C4.24457 98.5744 5.16342 93.0303 6.28646 87.5007C7.07404 83.6112 7.89079 79.6926 8.24083 75.7595C8.76589 69.9397 8.88257 62.088 9.17426 56.2392C9.11592 56.2392 9.05758 56.2392 8.99925 56.2246C8.86798 52.1029 8.73672 47.9811 8.59087 43.8593C8.57628 43.4094 8.5617 42.916 8.35751 42.5386C8.18249 42.2048 7.7887 41.842 7.43866 41.7694C6.79693 41.6388 6.47606 42.1177 6.44689 42.7128C6.38855 43.8303 6.34479 44.9623 6.34479 46.0799C6.33021 52.0738 6.31563 60.0852 5.74681 66.0646C5.10508 72.7843 4.43417 79.5039 3.77785 86.2091C3.71951 86.7315 3.632 87.254 3.52991 87.762C2.45063 92.9723 1.61929 98.2261 1.05048 103.523C0.656687 107.224 0.948385 110.853 1.96933 114.437C2.40687 115.976 3.03402 117.456 4.46334 118.312C5.41136 118.878 6.00934 119.575 6.49064 120.576C7.36574 122.405 9.10134 123.29 10.9536 122.928C12.6601 122.608 14.454 121.781 14.9207 119.735C15.1687 118.646 15.3874 117.804 16.7438 117.601C17.2397 117.529 17.7502 116.73 18.0273 116.164C18.8586 114.452 19.092 112.609 19.1212 110.707C19.2233 105.149 18.7274 99.6193 18.1294 94.1043C17.8085 91.1291 17.5168 88.1248 16.948 85.1931C16.3063 81.8696 15.8541 78.5315 15.6354 75.179C15.4604 72.4069 15.5333 69.6349 15.4166 66.8629C15.1249 60.2013 14.7749 51.5223 14.4832 44.8607C14.4394 43.8884 14.4832 42.916 14.5853 41.9436C14.6144 41.6388 14.9207 41.1599 15.1687 41.1018C17.0793 40.6954 17.7939 39.1715 18.4357 37.6477C19.3837 35.4271 19.9671 32.0891 20.0254 29.6653C20.0692 27.1981 20.1421 22.699 19.9379 20.2462C19.5004 15.2537 18.9024 10.2611 18.3627 5.26853Z" fill="#0D214F"/>
<path fill-rule="evenodd" clip-rule="evenodd" d="M5.09013 41.0148C5.411 41.2035 6.14024 41.0293 6.49028 40.7681C6.73822 40.5794 6.81114 39.9118 6.67988 39.5635C6.43194 38.8668 6.03815 38.2137 5.64435 37.5896C4.56507 35.8481 3.66081 34.0484 3.36911 32.002C3.04824 29.7089 2.66904 24.3971 2.56694 22.0895C2.33358 17.155 2.2169 12.2059 2.8003 7.28594C2.85864 6.76346 2.82947 6.22647 2.77113 5.7185C2.75654 5.54434 2.52319 5.31213 2.34817 5.26859C2.18773 5.22505 1.8377 5.34116 1.77936 5.47178C1.47307 6.22647 1.10845 6.98116 0.962603 7.76487C0.262528 11.6109 0.0875093 15.5004 0 19.4045C0.0875093 22.3943 0.102094 28.4027 0.306283 31.3925C0.510471 34.179 1.21055 36.8785 2.88781 39.1861C3.44203 39.9263 4.27337 40.5358 5.09013 41.0148Z" fill="#0D214F"/>
<path fill-rule="evenodd" clip-rule="evenodd" d="M12.689 24.4114C12.8786 24.9339 13.7829 24.9194 13.9433 24.3969C14.2058 23.6277 14.41 20.8121 14.483 19.9994C14.6142 18.519 14.6434 17.0096 14.7017 15.4422C14.5121 11.7994 14.3079 8.06947 14.0746 4.35407C14.0308 3.68646 13.885 3.01885 13.6662 2.38026C13.5495 2.00292 13.2432 1.45141 12.937 1.40787C12.3098 1.29177 12.091 1.93035 11.9744 2.43832C11.7848 3.30911 11.5368 4.19442 11.5514 5.06522C11.6681 9.98522 11.8431 14.9052 12.0619 19.8252C12.1056 20.696 12.3973 23.5842 12.689 24.4114Z" fill="#0D214F"/>
<path fill-rule="evenodd" clip-rule="evenodd" d="M5.57142 19.7381C5.65893 21.32 6.49026 24.3388 8.16753 24.7307C8.16753 22.2489 8.1967 17.8659 8.16753 15.4857C8.12377 12.1186 8.02168 8.76605 7.93417 5.39897C7.905 4.42658 7.86124 3.45419 7.72998 2.49631C7.68623 2.17702 7.36536 1.611 7.20492 1.62552C6.82572 1.66906 6.32983 1.87224 6.11106 2.17702C5.81936 2.56888 5.64434 3.12039 5.57142 3.61384C5.42557 4.57171 5.33806 5.5441 5.33806 6.51649C5.30889 8.91118 5.35264 11.2914 5.3964 13.686C5.42557 15.7034 5.46932 17.7207 5.57142 19.7381Z" fill="#0D214F"/>
<path fill-rule="evenodd" clip-rule="evenodd" d="M7.89033 98.995C7.87574 98.6612 7.40903 98.3273 7.1465 98.0081C6.84022 98.2838 6.4756 98.516 6.24224 98.8498C6.09639 99.0675 6.11097 99.4304 6.11097 99.7206C6.03805 101.665 5.86303 103.61 5.92137 105.54C5.96512 107.021 6.28599 108.501 6.56311 109.967C6.62144 110.243 7.01524 110.446 7.24859 110.693C7.36527 110.446 7.59863 110.214 7.59863 109.967C7.6278 108.167 7.61322 106.382 7.61322 104.597C7.71531 104.597 7.8174 104.597 7.9195 104.597C7.9195 102.725 7.96325 100.853 7.89033 98.995Z" fill="#0D214F"/>
<path fill-rule="evenodd" clip-rule="evenodd" d="M12.7179 108.124C12.7762 108.937 12.8491 109.764 13.0971 110.548C13.1992 110.882 13.7096 111.245 14.0743 111.288C14.6577 111.346 14.6868 110.766 14.7306 110.33C14.7452 110.185 14.7306 110.025 14.7306 109.561C14.6723 109.213 14.6431 108.516 14.3951 107.921C14.2639 107.587 13.7534 107.253 13.3888 107.21C12.8346 107.123 12.6887 107.674 12.7179 108.124Z" fill="#0D214F"/>
<path fill-rule="evenodd" clip-rule="evenodd" d="M13.7974 104.786C13.9287 104.38 14.0016 103.944 14.0016 103.509C14.0016 103.378 13.7245 103.233 13.462 102.986C13.1995 103.291 12.8057 103.552 12.8057 103.814C12.8057 104.191 13.0536 104.597 13.2578 104.96C13.2578 105.004 13.7537 104.902 13.7974 104.786Z" fill="#0D214F"/>
</g>
<defs>
<clipPath id="clip0_301_5345">
<rect width="156" height="123" fill="white"/>
</clipPath>
</defs>
</svg>
