<svg width="86" height="92" viewBox="0 0 86 92" fill="none" xmlns="http://www.w3.org/2000/svg">
<path d="M84.5089 6.4593V86.971C84.5089 89.365 82.5673 91.3066 80.1733 91.3066H5.33568C2.94163 91.3066 1 89.365 1 86.971V5.72412L3.65798 8.57059L41.3407 17.3739L54.6305 14.4897L78.6087 9.87129L84.5089 6.4593Z" fill="#6C6EA0" stroke="#231F20" stroke-miterlimit="10"/>
<path d="M80.7256 9.13623V84.5936C80.7256 85.9958 79.6177 87.1362 78.2513 87.1362H7.19983C5.83346 87.1362 4.72559 85.9958 4.72559 84.5936V9.13623" stroke="#FBE9DA" stroke-width="0.3" stroke-miterlimit="10"/>
<path d="M80.7203 6.1265L42.7737 16.7018L4.82709 6.1265C2.62155 5.50443 1.03809 2.95957 1.03809 0V4.39223C1.03809 7.3518 2.62155 9.89666 4.82709 10.5187L42.7737 21.094L80.7203 10.5187C82.9259 9.89666 84.5093 7.3518 84.5093 4.39223V0C84.5093 2.95957 82.9259 5.52328 80.7203 6.1265Z" fill="#1B264F" stroke="#231F20" stroke-miterlimit="10"/>
<path d="M67.8829 79.0753H17.7587C13.8189 79.0753 10.6143 75.8706 10.6143 71.9308C10.6143 67.991 13.8189 64.7864 17.7587 64.7864H67.8829C71.8228 64.7864 75.0274 67.991 75.0274 71.9308C75.0274 75.8706 71.8228 79.0753 67.8829 79.0753Z" fill="#FFEDEA" stroke="#231F20" stroke-miterlimit="10"/>
<path d="M42.7549 28.8542V65.0289" stroke="#231F20" stroke-miterlimit="10"/>
<path d="M22 69.7341H23.0934L24.6203 73.3158L26.1472 69.7341H27.2405V74.5599H26.2791V71.4119L24.9973 74.5411H24.2621L22.9614 71.4119V74.5411H22V69.7341Z" fill="black"/>
<path d="M28.1826 69.7343H29.144V72.7127C29.144 73.3725 29.5022 73.7118 30.1243 73.7118C30.7463 73.7118 31.1045 73.3725 31.1045 72.7127V69.7343H31.1987C31.5569 69.7343 31.8208 69.5458 31.8208 69.0556H32.688C32.688 69.6212 32.4429 69.9793 32.0659 70.149V72.6938C32.0659 73.9568 31.161 74.5789 30.1054 74.5789C29.0497 74.5789 28.1826 73.9568 28.1826 72.6938V69.7343ZM29.4456 68L30.8783 68.7917L30.5201 69.3572L29.0497 68.6409L29.4456 68Z" fill="black"/>
<path d="M37.1183 69.7341V74.5599H36.1569L33.9702 71.2611V74.5599H33.0088V69.7341H33.9702L36.1569 73.0519V69.7341H37.1183Z" fill="black"/>
<path d="M42.5479 71.1863H41.4358C41.2096 70.7716 40.8137 70.5642 40.3047 70.5642C39.4376 70.5642 38.8344 71.1863 38.8344 72.1288C38.8344 73.1091 39.4376 73.7123 40.3424 73.7123C41.0964 73.7123 41.5677 73.2787 41.6997 72.6001H40.0408V71.8649H42.6422V72.7132C42.4537 73.6934 41.5677 74.5983 40.2859 74.5983C38.8909 74.5983 37.8164 73.5803 37.8164 72.1477C37.8164 70.6962 38.872 69.6782 40.267 69.6782C41.3792 69.6782 42.2275 70.2249 42.5479 71.1863Z" fill="black"/>
<path d="M49.1446 69.7341V74.5599H48.1832L45.9965 71.2611V74.5599H45.0352V69.7341H45.9965L48.1832 73.0519V69.7341H49.1446Z" fill="black"/>
<path d="M54.5558 71.1863H53.4436C53.2173 70.7716 52.8215 70.5642 52.3125 70.5642C51.4454 70.5642 50.8421 71.1863 50.8421 72.1288C50.8421 73.1091 51.4454 73.7123 52.3502 73.7123C53.1042 73.7123 53.5755 73.2787 53.7075 72.6001H52.0486V71.8649H54.65V72.7132C54.4615 73.6934 53.5755 74.5983 52.2937 74.5983C50.8987 74.5983 49.8242 73.5803 49.8242 72.1477C49.8242 70.6962 50.8799 69.6782 52.2748 69.6782C53.387 69.6782 54.2353 70.2249 54.5558 71.1863Z" fill="black"/>
<path d="M58.062 73.6362H56.1392L55.8187 74.5599H54.8008L56.5351 69.7341H57.6661L59.4004 74.5599H58.3824L58.062 73.6362ZM57.1006 70.8463L56.4031 72.8634H57.7981L57.1006 70.8463Z" fill="black"/>
<path d="M59.043 69.7341H60.1363L61.1731 71.9397L62.2099 69.7341H63.2844L61.6632 72.8822V74.5599H60.7018V72.8822L59.043 69.7341Z" fill="black"/>
</svg>
