<svg width="181" height="176" viewBox="0 0 181 176" fill="none" xmlns="http://www.w3.org/2000/svg">
<g clip-path="url(#clip0_301_12258)">
<path d="M37.1628 80.7356L37.083 81.047C37.2003 81.1063 37.2904 81.0997 37.1628 80.7356Z" fill="white"/>
<path d="M39.4236 79.4154L39.5633 78.6695C39.1216 78.9848 39.1946 79.2171 39.4236 79.4154Z" fill="white"/>
<path d="M40.5695 78.0185L40.5936 78.0394C40.7988 77.8999 40.9395 77.8103 41.0039 77.7603C40.95 77.7982 40.8197 77.8757 40.5695 78.0185Z" fill="white"/>
<path d="M40.3677 78.203L40.4111 78.1772C40.3509 78.125 40.3268 78.1042 40.3677 78.203Z" fill="white"/>
<path d="M39.3566 78.4695L39.5366 77.6527L38.9325 77.912C39.0771 78.0373 39.348 78.1872 39.3566 78.4695Z" fill="white"/>
<path d="M39.7552 77.5462L39.6219 77.2617L39.5348 77.6302L39.7552 77.5462Z" fill="white"/>
<path d="M42.8669 76.5824C42.8817 76.1512 43.0941 75.9546 43.3138 75.7008C42.9479 75.8068 42.6076 75.9563 42.3518 76.1787C42.4473 76.4094 42.5917 76.8516 42.8669 76.5824Z" fill="white"/>
<path d="M41.7135 77.233L41.7313 77.1638C41.6605 77.1237 41.6276 77.1374 41.7135 77.233Z" fill="white"/>
<path d="M45.8498 73.7946L45.9148 73.9144L45.9688 73.8765C45.9326 73.8452 45.886 73.8259 45.8498 73.7946Z" fill="white"/>
<path d="M42.2003 76.1107C41.8987 76.1667 41.8816 76.4057 41.9128 76.6864C42.0247 76.5084 42.1591 76.3288 42.3297 76.1804C42.2888 76.0816 42.251 76.0277 42.2003 76.1107Z" fill="white"/>
<path d="M44.6401 75.7281C44.4326 75.6754 44.2268 75.6452 44.0226 75.6375C44.2694 75.7666 44.7099 75.9154 44.6401 75.7281Z" fill="white"/>
<path d="M45.7987 72.5873C45.4226 72.3885 44.1608 72.6281 44.249 71.7953C44.7265 71.0247 44.9495 71.6195 45.4754 71.6942C44.7014 71.151 45.6519 70.0288 44.8132 69.0489L44.4395 69.846C44.3262 69.6845 44.3756 69.2621 44.0902 69.2264C44.4395 69.846 44.2015 70.8028 43.2545 70.5327C43.0384 71.3181 44.6968 73.0076 45.838 73.7841C45.6838 73.5238 45.5312 73.286 45.7987 72.5873Z" fill="white"/>
<path d="M45.9031 73.9039L44.838 74.5252L44.851 74.3884L44.6956 74.5922C44.9972 74.5362 45.322 74.6482 45.9506 74.8964C46.0957 74.3878 46.0195 74.1104 45.9031 73.9039Z" fill="white"/>
<path d="M43.9759 75.6184C43.8706 75.5696 43.8224 75.5278 43.902 75.5333C43.902 75.5333 43.9124 75.5212 43.9109 75.4987C43.8595 75.4119 43.8185 75.3131 43.7792 75.2367C44.1588 75.1636 43.9359 75.3724 43.9109 75.4987L43.9759 75.6184L44.7076 74.6028C44.4406 74.6676 44.1936 74.8555 43.7912 75.2472C43.5015 74.5101 43.8204 73.8981 43.0183 73.4363C42.4285 73.8983 42.963 74.2552 42.7849 74.7776C43.6539 73.9443 42.7555 75.3231 43.7189 75.1845C43.5997 75.4196 43.4517 75.5663 43.3036 75.713C43.5376 75.6619 43.7628 75.6454 44.0121 75.6498L43.9759 75.6184Z" fill="white"/>
<path d="M40.4955 74.5718C39.9349 74.8053 40.3415 75.1151 40.4748 75.3996L41.0432 74.4751L40.2256 74.2747L40.4955 74.5718Z" fill="white"/>
<path d="M46.6172 74.8815L46.4469 73.5924L46.2808 74.1252L46.6172 74.8815Z" fill="white"/>
<path d="M47.2658 73.3287L47.6031 73.9379L47.667 73.4012L47.2658 73.3287Z" fill="white"/>
<path d="M117.76 56.5956L117.613 56.912C117.761 56.7653 117.843 56.6461 117.76 56.5956Z" fill="white"/>
<path d="M76.4686 62.8585C76.9755 63.4665 77.565 64.442 77.4192 63.6604L77.2075 62.9063C76.9139 63.0749 76.6824 63.0013 76.4686 62.8585Z" fill="white"/>
<path d="M98.6748 57.7904C98.6355 57.7141 98.5961 57.6377 98.5552 57.5388C98.4376 57.7965 98.3184 58.0316 98.2097 58.2546C98.3698 58.1184 98.5283 57.9596 98.6748 57.7904Z" fill="white"/>
<path d="M132.153 61.3813L132.84 60.8555C132.3 60.5782 132.368 61.0599 132.153 61.3813Z" fill="white"/>
<path d="M58.6974 67.1148C59.1364 67.2411 59.4563 67.2855 59.7129 67.2328C59.1502 66.9571 58.5717 66.4562 58.6974 67.1148Z" fill="white"/>
<path d="M116.699 64.9584C116.909 64.8865 117.024 64.7535 117.08 64.5909C116.858 64.6525 116.719 64.7645 116.699 64.9584Z" fill="white"/>
<path d="M60.6845 66.8899C60.6017 66.8394 60.5325 66.8218 60.4393 66.7834C60.2389 66.9905 60.0265 67.1871 59.7024 67.2448C60.134 67.4282 60.5352 67.5007 60.6845 66.8899Z" fill="white"/>
<path d="M166.993 90.3384C166.996 90.3835 167 90.4285 167.003 90.4736C167.078 90.4115 167.041 90.3802 166.993 90.3384Z" fill="white"/>
<path d="M170.547 104.916C170.419 104.869 170.25 104.723 170.083 104.599C170.124 104.698 170.257 104.813 170.547 104.916Z" fill="white"/>
<path d="M51.8328 71.0246C51.6067 71.1883 51.8391 71.1147 51.8328 71.0246V71.0246Z" fill="white"/>
<path d="M49.0939 68.6108C49.1742 68.786 49.1942 68.9091 49.178 69.0008C49.1926 68.8865 49.1726 68.7635 49.0939 68.6108Z" fill="white"/>
<path d="M61.7676 61.4004L61.7901 61.3987C61.668 61.2719 61.6816 61.3048 61.7676 61.4004Z" fill="white"/>
<path d="M51.2918 70.8945C51.43 70.9297 51.5667 70.9423 51.7139 70.9428C51.6327 70.9148 51.5065 70.8901 51.2918 70.8945Z" fill="white"/>
<path d="M51.5168 71.1949C51.4163 71.2135 51.3487 71.2185 51.2707 71.2355C51.3133 71.3569 51.3856 71.4195 51.5168 71.1949Z" fill="white"/>
<path d="M52.146 70.8093C52.0157 70.8867 51.8717 70.9312 51.7246 70.9307C51.7937 70.9483 51.8299 70.9796 51.8435 71.0125C51.8974 70.9746 51.9843 70.923 52.146 70.8093Z" fill="white"/>
<path d="M148.515 74.9753C148.517 74.9979 148.53 75.0308 148.522 75.0654C148.948 75.0115 148.809 74.9764 148.515 74.9753Z" fill="white"/>
<path d="M83.1923 54.2392C83.1819 54.2513 83.1714 54.2634 83.161 54.2755L83.2076 54.2947L83.1923 54.2392Z" fill="white"/>
<path d="M84.2456 53.6074C83.8291 54.6 83.5719 54.483 83.2198 54.3051L83.67 56.5131L84.2456 53.6074Z" fill="white"/>
<path d="M56.8177 60.371C57.0231 61.035 56.2073 61.6607 55.8554 62.2864C56.4312 63.2289 57.1108 61.9567 57.5004 61.3849C58.018 62.7844 57.6814 64.586 56.8016 65.7484C56.0162 66.485 56.0149 65.025 55.9319 65.2914C54.0588 65.8475 55.4978 68.2773 53.6575 68.0161C52.6777 67.4427 52.8024 66.3244 52.3662 65.7565C52.9594 65.0226 53.7895 65.7201 54.293 65.4795L53.4577 65.3483C53.5657 64.9555 53.9979 64.5051 54.3918 64.6347C53.5109 64.0201 51.3353 65.8999 49.6265 65.9006C49.5306 66.3038 49.2833 66.8086 49.6627 67.0525L50.0232 66.7091C50.7698 67.1864 49.7343 68.0659 50.4386 68.1048C50.1293 68.8518 49.958 69.951 48.9898 70.0219L48.2957 69.1673C48.4724 69.426 49.1181 69.4353 49.1675 69.0129C49.1083 69.6171 47.2598 68.4396 47.6334 69.8836L48.5506 70.2125C48.2895 71.0013 48.2515 72.385 47.432 72.479C48.2983 73.2078 47.5198 72.2801 48.6401 73.0808C47.4195 71.9819 50.3166 72.1431 48.841 71.1194C50.0641 72.0937 49.9868 71.1599 51.2029 71.8744C51.0005 71.5723 50.6484 71.3944 51.2709 71.2356C51.2525 71.1351 51.2413 70.9774 51.247 70.8978C51.2695 70.8961 51.2816 70.9066 51.3041 70.9049L51.2575 70.8857C51.2527 70.8181 51.2527 70.8181 51.2454 70.8753C51.0364 70.8 50.8363 70.6902 50.7021 70.5529C50.5725 69.6796 51.5032 69.2379 51.6122 68.6979C52.0295 68.6786 51.6544 69.1362 52.0338 69.3801L52.2033 68.5754C52.6249 69.2575 53.7031 69.303 53.1163 70.127L53.8403 69.8023C54.4536 69.995 55.0777 69.8588 55.304 69.3781C55.7125 69.3935 55.7978 68.1988 55.7571 68.9035L56.6978 67.9631L56.7901 68.1487C57.9403 67.7701 58.6324 65.8745 60.4739 66.7922C60.8014 66.4626 61.1258 66.088 61.8494 66.0802L62.1988 66.6998C62.622 66.2839 63.8945 66.8358 63.9111 66.1102C64.9882 67.7404 66.47 65.8095 67.4477 65.8737L67.261 64.9932C67.8867 64.8795 68.4378 64.5109 69.1474 63.9835L68.9236 63.2189C69.479 62.4312 70.8027 63.3868 71.8675 63.0824C71.8552 63.3889 71.5593 63.3654 71.3351 63.2346C72.9252 64.7593 73.8717 61.4981 75.274 62.6064C75.5219 62.2714 75.7639 62.3329 75.9913 62.5086C75.9584 62.5223 75.9479 62.5344 75.927 62.5586C75.9615 62.5674 76.0066 62.5641 76.0516 62.5608C76.2067 62.6739 76.3634 62.8096 76.5185 62.9227C76.3691 62.7299 76.2365 62.6152 76.1296 62.5438C76.3516 62.4822 76.6934 62.3553 77.0168 62.1279L77.2574 62.9704C77.2904 62.9567 77.3129 62.955 77.3338 62.9309C77.7043 63.2093 77.5633 62.4953 77.3041 61.8691C77.4626 61.7104 77.597 61.5308 77.7058 61.3077C78.118 62.6584 78.5714 60.7463 79.0922 62.1908C79.2543 61.4433 80.762 61.4799 80.846 59.9458C80.8708 60.1364 80.9792 60.2303 80.7887 60.2556C81.1826 60.3852 81.5901 60.5477 81.9097 60.1055L82.1453 61.1975L82.9095 59.6814C83.4751 60.3191 83.6943 60.6991 83.2233 61.5599C84.3951 60.2064 84.1926 61.0248 85.2068 59.6828L85.1781 60.398C85.5488 60.3595 86.1349 59.3658 86.3805 59.959C87.2584 61.3321 90.5746 60.0591 92.7527 61.4162C92.378 59.3158 93.749 62.3845 93.8733 60.7795C93.9879 61.2804 94.2908 61.5638 93.9126 61.9763C95.0354 61.5319 95.5676 62.8171 96.3791 61.49C96.4937 61.9909 96.1237 62.1991 96.2239 62.4974C96.3181 62.3886 96.5901 62.0744 96.7025 62.3831C96.8027 62.6813 96.5269 62.7808 96.3385 62.9983C97.4675 62.9609 97.6222 61.4668 97.7817 60.0403C98.3296 60.7472 98.6071 60.6703 99.0749 59.7645C99.2555 60.2379 99.5518 60.7482 98.8361 60.8686C99.2268 60.9531 101.18 61.6928 101.315 60.5624C101.416 60.8606 101.867 60.6804 101.971 60.5596C102.852 60.6875 102.924 60.7501 103.797 60.7654L103.537 60.4562C104.021 59.1417 104.281 60.2545 104.99 60.1913L104.954 60.3297C106.409 61.5473 105.709 59.9687 107.117 61.3143L107.169 60.4503C107.608 58.6525 108.39 61.719 109.403 61.1581L109.162 60.6325C109.789 60.0546 110.067 63.3392 110.487 63.6819C110.557 63.8692 110.264 63.8907 110.101 63.9819C111.114 65.3451 110.49 62.9234 111.484 62.8958C111.528 63.5264 110.929 64.3399 111.525 64.6019C111.71 65.1429 113.797 63.1225 114.377 64.4495C114.308 63.9452 114.24 63.4635 114.766 63.2213C115.51 63.1893 116.073 65.3891 117.074 64.1839C117.119 64.3278 117.116 64.4525 117.091 64.5788C117.7 64.3871 118.897 64.5144 119.462 63.8618C118.935 66.8093 123.117 63.5374 122.124 66.1455L123.676 66.643L123.534 66.8797C124.412 67.4492 125.001 66.9872 125.603 66.5357C125.757 66.796 125.486 66.963 125.404 67.0822C126.569 68.1966 126.764 68.0691 128.497 67.4554L128.218 68.3134C128.764 68.0245 129.532 70.5714 131.338 70.3372C131.275 70.4097 131.172 70.5531 130.995 70.6113C133.03 70.4282 133.208 74.7049 135.389 72.2588L136.752 72.1702C135.641 71.1876 137.683 71.0946 137.447 70.3196C138.057 70.4673 138.206 71.9278 137.511 71.7071L137.521 71.5253C136.412 72.8063 138.744 72.9862 138.086 73.9173C140.481 75.4622 142.279 77.8431 144.284 79.4732L144.842 78.2439L145.52 78.8733C145.525 79.2578 145.138 79.8746 144.677 79.4331C144.495 80.2273 145.912 79.6142 146.102 79.4192C146.764 80.627 144.762 80.3097 145.051 80.5601L145.499 80.8215L145.497 80.6293C146.166 80.4897 146.555 80.0651 147.125 80.6006C147.341 81.1053 146.794 81.3718 146.93 81.5316C146.867 81.6041 146.895 81.67 147.138 81.7541C147.159 81.7299 147.912 82.6142 147.912 82.6142L148.254 81.5364C148.964 81.4957 149.023 82.329 149.41 81.0782C148.786 82.9689 152.185 84.4741 152.118 85.2827C153.158 85.2744 153.66 85.8148 154.219 86.5096C154.219 86.1926 154.959 85.2896 155.401 85.9476C153.479 87.4126 155.647 87.6613 154.814 89.3295C155.261 88.1309 156.522 90.7662 157.111 89.014C157.404 89.6264 156.477 89.649 156.395 90.4021C158.128 90.9089 158.276 93.3202 159.823 94.5537C160.07 94.3658 160.21 93.7896 160.844 93.7885L160.384 95.6105C160.759 95.7868 161.957 94.6463 161.627 95.9042C161.756 95.657 161.944 95.2698 162.191 95.3988C162.949 97.324 164.529 98.5438 166.003 99.8619C167.564 101.128 168.888 102.571 169.453 104.963C169.44 104.149 169.759 104.34 170.083 104.6C169.973 104.313 170.608 104.018 170.856 103.683L171.347 105.673C172.349 104.954 172.76 106.769 173.611 106.005L173.078 105.818C174.463 105.241 174.242 102.914 175.434 101.683C173.873 102.341 175.452 98.7394 173.089 99.569C173.137 99.1241 173.637 99.3251 173.801 98.917C173.077 99.2416 172.704 99.0879 172.438 98.3717L172.626 98.3013C171.124 97.0645 171.006 96.0319 169.84 94.1139L169.358 94.817C169.113 94.3936 169.231 94.1359 169.233 93.8415C167.933 94.3442 170.085 94.8543 168.738 95.485C169.548 93.8184 166.459 93.0261 167.6 91.3919C167.11 90.8619 167.024 92.2038 166.533 91.6738L166.793 91.1794L166.171 91.508C165.926 91.0845 166.243 90.45 166.56 90.1325C166.603 90.2539 166.878 90.3017 166.995 90.361C167.035 89.4865 165.657 89.2027 165.659 88.9083L165.904 89.6487C164.206 88.5168 163.036 86.2143 160.904 85.5104L160.716 85.8976C159.146 85.2996 160.247 84.7096 158.844 83.7485L158.955 83.7177C158.437 83.7557 157.983 83.5739 157.698 83.2213C158.33 83.1976 157.794 82.0145 158.555 82.0606C156.825 81.4291 157.526 81.9096 155.734 82.1768L156.028 81.5214C155.338 81.6852 155.103 81.8835 154.403 81.4255C155.254 81.4649 154.686 80.3181 155.772 80.3065C155.476 78.0418 152.847 79.5927 153.693 77.4708C151.872 78.2833 154.125 79.2614 153.535 79.2367C153.403 79.9255 152.126 79.7927 151.842 79.2929C151.463 78.9018 152.734 76.8732 151.596 75.972C151.704 76.0659 151.81 75.9676 151.908 76.0736C151.791 75.3804 150.673 75.8924 150.648 74.8982C149.663 75.5251 150.018 74.3106 149.051 75.3548L150.279 75.91C149.451 75.7217 147.894 76.5941 147.458 75.2226C147.706 75.0573 148.21 74.9864 148.538 74.9737C148.51 74.4211 147.833 74.765 147.803 74.1899C148.746 73.1248 149.237 74.9451 150.536 74.5896C150.599 73.8832 148.704 74.4409 149.972 73.4878C148.313 74.6733 148.999 72.3706 147.335 73.0019L147.889 72.3614C147.686 72.3762 147.199 72.5251 146.982 72.3373L148.038 71.7506C146.849 72.0528 147.296 70.2204 146.389 70.1963C147.686 71.086 146.078 71.2378 146.265 72.1182C144.045 71.93 146.658 69.6673 144.647 68.7508C144.946 68.8194 145.253 69.8042 144.657 69.8592C144.415 69.4808 144.159 68.8997 144.213 68.3751C142.943 67.6985 143.899 69.2243 143.113 69.3046C143.293 68.1709 142.327 69.2376 141.611 69.1883L142.081 68.4747C140.992 67.1511 140.723 69.7514 139.848 68.4233L141.022 67.7487L140.198 67.6054L140.858 66.8666C139.761 67.0375 139.639 66.7409 139.071 66.0807C138.912 66.7036 138.167 67.3694 137.54 66.9965C137.389 66.2945 138.191 66.4395 137.256 66.01C137.718 65.6705 138.298 65.2206 138.261 66.1401C138.449 65.9226 138.734 65.7885 138.912 65.5831C138.754 64.791 137.835 64.7565 137.505 64.5769C137.603 64.6829 137.738 64.8203 137.747 64.9554C137.747 64.9554 137.276 65.0125 136.817 65.0801C136.356 65.1252 135.865 65.2291 135.865 65.2291C135.826 64.8358 136.111 64.7018 136.406 64.5556C136.085 64.4886 135.707 64.754 135.277 64.5931C135.724 64.0284 136.041 63.3939 136.777 63.3966L135.125 63.4045C135.183 63.0947 134.857 62.3263 135.152 62.1801C134.59 61.4403 132.74 62.4814 132.049 61.5021C131.942 61.6004 131.788 61.657 131.539 61.6526C130.748 61.0315 130.263 59.9352 128.786 60.3264L128.663 58.9093C127.694 58.8105 128.87 60.7164 127.263 60.5512C126.105 60.5002 127.306 59.4048 127.081 58.9347C126.325 59.2956 125.004 60.1394 124.445 58.7883C124.835 58.7031 125.001 58.9739 125.332 59.0062L124.88 58.0659C126.143 57.3622 126.641 58.0048 126.33 56.8052C125.832 57.917 125.134 57.6512 124.386 57.4684C123.649 57.296 122.911 57.101 122.459 58.232L122.143 57.5987C122.283 57.6564 122.353 57.5268 122.482 57.5965C121.918 56.1778 121.225 59.0242 120.144 58.2998C119.782 57.9868 119.605 57.5583 119.977 57.3726L118.876 57.6457C118.617 57.5062 118.817 57.1294 119.063 57.2585L117.595 56.9812L117.625 56.9225C117.308 57.24 116.684 57.6932 116.392 57.8844C116.124 57.4625 116.637 57.674 116.627 57.3691L115.681 57.7553C115.519 57.0655 116.337 56.632 116.862 56.8539C116.741 54.3388 116.044 57.2873 114.765 55.5248L115.606 55.4067C115.447 53.9582 114.712 54.295 114.028 53.2586C114.153 53.7474 115.281 55.7813 114.266 56.1499C114.057 55.905 113.751 55.7463 113.177 56.1165C113.356 55.2772 112.853 55.3707 112.27 55.2889L112.542 54.1711C111.842 54.3469 111.781 54.9286 111.313 55.3477C110.637 55.0803 110.656 54.23 110.613 53.4523C109.502 53.1036 111.138 54.9644 109.759 54.9749C108.903 54.4038 108.148 54.7647 106.94 55.2833C106.34 54.8066 107.152 54.6 106.969 54.2512L106.257 55.073C106.119 55.0379 106.19 54.761 106.248 54.621C105.713 54.8978 106.056 55.7442 105.255 55.9388C104.922 57.1516 103.886 53.8659 102.797 55.27C102.604 54.9333 102.975 54.5779 102.943 54.1275C101.554 54.9762 101.764 54.7345 100.603 55.9288L99.7547 55.1307C100.35 56.0266 99.4437 56.9758 98.6736 57.7679C98.8735 58.1947 99.0581 58.566 99.173 58.75L98.001 59.2999C97.8741 59.1055 98.0047 58.7111 98.2101 58.2546C98.1264 58.3513 98.0531 58.4359 97.9903 58.5084C97.5967 58.0619 97.8448 57.4099 98.1758 56.8084C98.3059 57.0478 98.4255 57.2994 98.5556 57.5389C98.8817 56.8698 99.2015 56.1107 99.1763 55.4334C99.0837 55.5647 98.9325 55.6664 98.7781 55.723C98.8554 55.5362 98.9239 55.384 98.8918 55.2506C98.8493 55.1292 98.7196 55.3764 98.5136 55.6631L98.3087 54.3652L98.2191 54.8584L96.6976 53.9852C95.5524 55.2349 94.5507 57.074 92.8304 57.5509C93.2862 56.6347 92.961 56.036 93.0077 54.9347C93.4538 56.1244 94.3677 54.4842 95.2577 54.7472C94.7946 54.6001 94.9052 54.0826 95.0396 53.903L93.4025 54.9171C93.4635 54.0185 93.0709 54.2284 92.67 53.839C92.9444 55.6411 91.4598 54.9689 90.7863 55.5276C90.7554 54.93 90.9256 54.295 91.7191 54.4746C90.8533 53.1119 90.5427 56.5641 89.6928 55.4266C89.885 55.4239 89.9935 55.5178 90.0733 55.2063C89.613 55.7381 88.4972 55.3218 88.7549 54.8049L88.9576 54.7901C87.6519 54.5689 84.9757 54.8102 84.8362 56.3598C84.8114 56.1692 84.9445 54.5296 85.0123 54.2077C85.0123 54.2077 84.4814 55.5029 83.9522 56.8207C83.4558 58.1247 82.937 59.4304 82.937 59.4304C83.0819 58.1182 82.1194 55.0648 83.1717 54.2633C82.8542 54.0942 82.4555 53.897 81.8119 54.3969C82.0393 54.5727 82.4409 56.2523 82.1787 56.3847C81.2976 54.9666 81.5826 55.6361 80.5148 54.458C80.8492 54.7052 80.6442 56.7688 80.1456 56.7601C80.203 56.4503 79.9469 54.7486 80.1127 54.5328L79.0296 56.6608C79.3073 56.2669 78.9433 54.958 78.6003 54.4285C78.7625 54.8015 77.5075 54.4973 77.1961 54.7352L77.7683 55.146C76.3098 55.0038 76.6734 58.0671 75.3208 58.1436C75.4257 57.7058 75.4096 55.5565 74.6643 55.4187C74.4569 56.4865 73.9279 60.532 72.9092 61.4895L72.5872 60.9358L71.8066 61.74C72.078 60.1356 73.1573 56.6723 73.919 55.2809C73.3155 54.9064 73.6687 54.6202 72.8781 54.8026C72.5142 54.2973 73.1884 53.9083 73.4329 53.8451L71.4942 53.7948C71.7691 54.9631 70.2701 55.2087 70.5082 56.176L72.3234 54.6395C72.5879 55.8199 71.7112 58.1478 70.4126 58.1863C69.9996 57.7865 70.2719 56.0348 70.1653 55.6465C70.0724 56.0947 69.0733 56.6886 68.9071 56.4178L69.341 55.673C68.5171 55.3825 68.4849 57.49 67.3776 56.5525C67.0712 56.541 66.1306 55.2404 66.237 55.9457C67.0482 57.1765 68.051 61.2795 67.9907 62.3479C67.8718 62.266 66.2257 61.3906 65.7235 60.8502C64.9812 59.9539 65.806 58.173 65.1737 57.3931C65.2306 57.7172 65.0598 58.1824 64.9913 58.3346C64.6047 58.1479 64.8626 57.3141 64.2303 57.6547C64.4288 58.8625 62.8471 57.9371 64.1821 58.7334C63.6301 59.2493 63.4206 58.6874 62.6815 58.9566C63.1377 59.6475 62.763 61.7123 62.244 62.2144C62.1887 61.9128 61.926 61.5586 61.8023 61.4092C60.4914 61.7543 59.6344 61.4775 58.4304 61.894C58.2207 61.649 57.51 61.52 57.5828 60.9487C57.4773 61.2168 57.4745 61.6584 57.1118 61.8095C55.9512 61.0796 57.8261 61.3497 56.8177 60.371ZM54.1271 69.0569L54.1239 69.0119C54.6738 69.1074 54.4664 69.0547 54.1271 69.0569ZM147.224 81.363L147.238 81.079C147.706 81.1465 147.463 81.2322 147.224 81.363ZM114.278 56.1604C114.53 56.0401 115.099 55.6022 115.135 56.1202C114.645 57.0276 114.575 56.5234 114.278 56.1604ZM97.8208 56.2685C97.6213 56.3284 97.3914 56.2773 97.1487 56.0461C97.3218 55.7731 97.5702 55.9247 97.8208 56.2685Z" fill="white"/>
<path d="M99.1215 54.9847C99.1657 55.1286 99.1768 55.2862 99.1775 55.4559C99.2805 55.3126 99.2919 55.1533 99.1215 54.9847Z" fill="white"/>
<path d="M132.025 61.4812C132.037 61.4916 132.049 61.5021 132.049 61.5021C132.08 61.4658 132.122 61.4175 132.153 61.3812L132.025 61.4812Z" fill="white"/>
<path d="M64.6513 57.0466C64.8933 57.1081 65.0379 57.2333 65.1496 57.3723C65.1127 57.1712 64.9665 57.0235 64.6513 57.0466Z" fill="white"/>
<path d="M49.4204 72.2766C49.5337 72.4381 49.7852 72.6347 49.6339 72.7363L50.0074 72.2562C49.7934 72.4304 49.6053 72.331 49.4204 72.2766Z" fill="white"/>
<path d="M42.4545 71.7006C42.7538 71.4523 42.7927 71.0419 42.3801 71.1288C42.3672 71.2655 42.2305 71.2529 42.2175 71.3897L42.4545 71.7006Z" fill="white"/>
<path d="M47.6828 70.5818C47.2676 69.9897 47.0695 70.389 46.7765 70.7274C46.7974 70.7033 46.8079 70.6912 46.8425 70.7C47.28 71.6073 47.4702 71.0954 47.6828 70.5818Z" fill="white"/>
<path d="M46.3782 71.0169C46.5508 71.3777 46.5584 71.0037 46.7137 70.7999C46.6075 70.8982 46.4997 70.974 46.3782 71.0169Z" fill="white"/>
<path d="M52.3443 70.0929C52.0902 70.021 52.6661 70.9635 52.425 70.7548C52.6599 71.677 53.0494 69.1811 52.3443 70.0929Z" fill="white"/>
<path d="M46.148 68.7248L46.7393 69.4059L46.5742 68.671L46.148 68.7248Z" fill="white"/>
<path d="M49.4257 67.5452L48.6995 67.6777C48.7766 67.8078 48.7516 67.9342 48.6904 68.0292C49.0725 67.8314 49.5647 67.7501 49.4257 67.5452Z" fill="white"/>
<path d="M48.2895 68.4434C48.3869 68.3796 48.5904 68.2176 48.6903 68.0292C48.494 68.1341 48.3218 68.2599 48.2895 68.4434Z" fill="white"/>
<path d="M46.8332 68.0068L47.0977 68.0667L47.5474 67.864L46.8332 68.0068Z" fill="white"/>
<path d="M56.1807 64.4923L56.7761 63.9507C56.7313 63.637 56.4757 63.5426 56.2544 63.7738C56.1714 64.0402 55.9605 64.2594 56.1807 64.4923Z" fill="white"/>
<path d="M53.6759 63.6345L53.2424 62.6249L53.0764 63.1578C53.3545 63.2506 53.4573 63.4241 53.6759 63.6345Z" fill="white"/>
<path d="M55.0674 62.0272C55.0226 61.7135 55.7816 60.7638 54.8855 61.2143C54.9302 61.5279 54.3123 62.0712 55.0674 62.0272Z" fill="white"/>
<path d="M66.5583 59.6912L66.3693 59.739L66.8223 61.5054L66.5583 59.6912Z" fill="white"/>
<path d="M76.0516 53.5967C75.0548 53.2623 75.9615 54.7238 75.0484 54.2927C74.888 54.7459 75.7976 54.6453 75.622 55.043C76.1185 54.5426 76.4512 54.7672 76.0516 53.5967Z" fill="white"/>
<path d="M75.6221 55.0429C75.5368 55.1171 75.4531 55.2138 75.3726 55.3555C75.5102 55.2209 75.5714 55.1259 75.6221 55.0429Z" fill="white"/>
<path d="M171.596 107.115L171.826 107.8L171.922 107.079L171.596 107.115Z" fill="white"/>
<path d="M173.341 106.828L172.733 107.823L173.654 107.247C173.514 107.189 173.258 107.095 173.341 106.828Z" fill="white"/>
<path d="M113.128 53.4943L113.022 53.7624C113.045 54.0777 113.184 54.1353 113.464 54.2507L113.128 53.4943Z" fill="white"/>
<path d="M120.92 56.4773L120.85 57.5577L121.05 56.5471L120.92 56.4773Z" fill="white"/>
<path d="M128.175 57.7679C127.926 57.6163 127.524 57.6911 127.276 57.5395C127.926 57.6163 127.731 59.0115 128.175 57.7679Z" fill="white"/>
<path d="M31.806 60.4946C31.7505 60.51 31.7159 60.5012 31.6829 60.515C31.6861 60.56 31.6772 60.5946 31.6265 60.6775C32.1162 60.7209 31.997 60.956 31.806 60.4946Z" fill="white"/>
<path d="M31.6727 60.5271C31.6704 60.3349 31.2449 60.5585 31.6727 60.5271V60.5271Z" fill="white"/>
<path d="M31.7063 62.6072C31.5068 62.6671 31.3137 62.8171 30.9126 62.7446C31.1771 62.8045 31.6394 62.7819 31.9819 62.8247L31.7063 62.6072Z" fill="white"/>
<path d="M31.9942 62.8351L32.4145 63.1778C32.5007 62.9564 32.2797 62.8708 31.9942 62.8351Z" fill="white"/>
<path d="M30.7126 63.7554L30.1291 63.5039L31.0181 63.9141L30.7126 63.7554Z" fill="white"/>
<path d="M30.7151 64.4341C30.2264 64.2436 29.8218 64.443 29.5268 64.2722C29.5966 64.4595 29.9969 64.6792 30.3731 64.878C30.1802 64.711 30.2712 64.5572 30.7151 64.4341Z" fill="white"/>
<path d="M30.3732 64.8781C30.4817 64.972 30.6368 65.0851 30.9165 65.2004C30.808 65.1065 30.5974 65.0088 30.3732 64.8781Z" fill="white"/>
<path d="M32.1953 63.6014C32.0256 63.6025 31.5931 63.5663 31.4088 63.6817L32.1791 63.6931L32.1953 63.6014Z" fill="white"/>
<path d="M32.1915 63.7036L32.169 63.7052C32.1199 63.8107 32.1021 63.8799 32.0933 63.9145C32.1021 63.8799 32.1319 63.8211 32.1915 63.7036Z" fill="white"/>
<path d="M32.2045 63.5667L32.1956 63.6013C32.2752 63.6068 32.2977 63.6051 32.2045 63.5667Z" fill="white"/>
<path d="M32.3537 64.8801C32.1237 64.829 31.7057 64.6786 31.7064 64.8483C32.0239 65.0175 32.0109 65.1542 32.0446 65.3102C32.2167 65.1844 32.3198 65.041 32.3537 64.8801Z" fill="white"/>
<path d="M32.0078 64.3056L32.0439 64.3369C32.1115 64.3319 32.134 64.3303 32.0078 64.3056Z" fill="white"/>
<path d="M32.4885 64.8701C32.6518 64.779 32.4862 64.6779 32.2636 64.5697C32.327 64.6669 32.3575 64.7779 32.3413 64.8696C32.4571 64.9064 32.5263 64.924 32.4885 64.8701Z" fill="white"/>
<path d="M31.8291 64.3412L31.805 64.3204C31.6248 64.3336 31.7045 64.339 31.8291 64.3412Z" fill="white"/>
<path d="M31.8292 64.3412C31.9256 64.4247 32.1121 64.5016 32.264 64.5697C32.2126 64.4829 32.1508 64.4082 32.0439 64.3368C31.9884 64.3522 31.9088 64.3467 31.8292 64.3412Z" fill="white"/>
<path d="M40.1984 79.8113C40.283 79.5674 40.3394 79.4048 40.3274 79.3944L40.1984 79.8113Z" fill="white"/>
<path d="M24.4768 86.8149C23.1179 87.9218 20.9447 89.6769 22.4226 88.6519L23.8989 87.6042C23.8234 87.4966 24.0954 87.1824 24.4768 86.8149Z" fill="white"/>
<path d="M42.9506 77.6063L42.8379 76.811C42.595 76.8967 42.8335 77.2301 42.9506 77.6063Z" fill="white"/>
<path d="M38.6513 88.3456C38.5064 88.5373 38.3961 88.7378 38.3774 88.9543C38.5207 88.74 38.6085 88.5412 38.6513 88.3456Z" fill="white"/>
<path d="M30.0369 73.2555C29.671 73.3616 29.4756 73.3193 29.9038 73.7746C29.9923 73.7455 30.0462 73.7076 30.1226 73.668C30.0303 73.4824 29.9444 73.3868 30.0369 73.2555Z" fill="white"/>
<path d="M62.6107 73.6531C62.6244 73.686 62.6485 73.7069 62.6621 73.7398C62.6662 73.6377 62.6437 73.6393 62.6107 73.6531Z" fill="white"/>
<path d="M68.314 81.339C68.2721 81.3874 68.182 81.394 68.1024 81.3885C68.1402 81.4423 68.1973 81.4494 68.314 81.339Z" fill="white"/>
<path d="M30.6762 69.3265C30.7076 69.2903 30.751 69.2645 30.772 69.2403C30.6562 69.2035 30.5766 69.198 30.6762 69.3265Z" fill="white"/>
<path d="M25.348 93.214C24.6889 93.9754 24.12 94.4132 23.7554 94.8587C23.9799 94.6724 24.6293 94.0929 24.2647 94.5384C23.9105 94.9718 23.5437 95.2251 23.0963 95.62C24.0511 95.1992 26.2577 92.7965 28.3179 90.5629C27.7745 91.3611 27.941 91.3149 28.9026 90.3503L28.9645 90.425C28.6329 90.8568 28.2876 91.2556 27.8653 91.5242C27.981 91.561 28.4454 92.0476 29.841 90.3381C29.6052 90.6836 29.9061 90.4579 30.141 90.2596L30.2886 90.7467L30.1515 90.2475C30.1829 90.2112 30.2368 90.1733 30.2577 90.1491C30.3582 90.1305 30.4483 90.1238 30.5054 90.131C30.5206 90.1865 30.5463 90.2299 30.5631 90.3079C30.5479 90.2524 30.5327 90.1969 30.5174 90.1414C30.6075 90.1348 30.6975 90.1282 30.819 90.0854C30.8993 90.2606 31.0037 90.4567 31.0494 90.6231L30.9541 90.0755L30.8954 90.0458C30.9059 90.0337 30.9284 90.0321 30.9389 90.02L30.9541 90.0755L31.0248 90.1156L30.9823 89.9942C31.0483 89.9667 31.1142 89.9392 31.2116 89.8755L31.2752 89.6558C31.4097 89.4762 31.5352 89.3312 31.6398 89.2103C31.6583 89.3108 31.6871 89.3993 31.7056 89.4998C31.8786 89.2268 31.8033 89.9227 32.1215 90.2616C32.1206 90.4088 32.1012 90.4555 32.0699 90.4917C32.1422 90.5543 32.2281 90.6499 32.3157 90.768L32.29 90.7246L32.2779 90.7142C32.2265 90.6274 32.2113 90.5719 32.237 90.6153C32.237 90.6153 32.225 90.6049 32.2354 90.5928C32.1945 90.4939 32.1656 90.4055 32.1367 90.317C32.2693 90.4318 32.217 90.4923 32.2354 90.5928L32.2659 90.7037L32.3451 90.2225C32.2486 90.1391 32.2068 90.1874 32.1247 90.3066C31.9514 89.776 31.905 89.4399 31.7501 89.0098C31.8652 88.8769 31.9489 88.7802 32.0117 88.7077C32.2284 89.2124 32.4436 89.6947 32.6298 90.0885C32.5327 89.8353 32.4581 89.5804 32.4222 89.2322C32.6128 89.2069 33.0661 88.4154 32.9512 89.3519L33.072 89.1393C33.1127 89.5551 33.1365 89.8929 32.9783 89.7347C33.4101 90.7217 32.9687 89.5996 33.5138 90.7481C32.8909 89.2997 33.9384 90.6717 33.2432 89.1607C33.7417 90.29 33.7026 89.8967 33.9989 90.407C33.9368 90.6492 33.9255 90.8085 33.9616 90.8398C33.9293 91.0232 33.6823 91.2111 33.4924 91.4061C33.6029 92.0092 33.859 91.4698 34.1957 90.7887C34.2077 90.7991 34.2077 90.7991 34.1972 90.8112C34.1972 90.8112 34.1852 90.8008 34.1957 90.7887C34.2641 90.6365 34.3446 90.4948 34.4236 90.3306C34.527 90.6738 34.5143 90.4937 34.4727 90.2251C34.5114 90.1317 34.5621 90.0488 34.6128 89.9658L34.7029 89.9592C34.7406 90.0131 34.7543 90.046 34.7904 90.0773C34.4852 90.7222 34.1349 91.3704 34.4171 91.361C34.3912 91.6345 35.0174 90.8869 35.5719 90.2464C35.7916 89.9926 36.0024 89.7735 36.173 89.6251C36.3256 89.863 36.4236 89.969 36.3556 89.4872C36.5399 89.3719 36.6661 89.3966 36.6972 89.6773C36.7045 89.6201 36.7134 89.5855 36.7207 89.5284L36.7632 89.6498C36.8237 89.385 37.312 90.2094 37.1605 89.5075C37.8161 91.2591 37.8551 89.7282 38.1564 89.9891L37.9247 89.1119C38.0493 89.1141 38.1251 88.9049 38.1961 88.628C38.3248 88.528 38.4576 88.3259 38.6316 87.9057C38.6516 88.0287 38.6387 88.1655 38.6152 88.3143C38.6571 88.266 38.7094 88.2056 38.7617 88.1451C39.4305 89.443 39.0169 86.6324 39.5966 87.7897C39.5864 87.4848 39.6603 87.57 39.7631 87.7435C39.7631 87.7435 39.7526 87.7556 39.7663 87.7886C39.7783 87.799 39.7888 87.7869 39.8009 87.7974C39.8659 87.9171 39.9446 88.0698 39.9976 88.1791C39.9173 88.0039 39.8507 87.8616 39.8113 87.7853C39.8548 87.7595 39.9143 87.6419 39.933 87.4255L40.1841 88.256C40.1945 88.2439 40.1945 88.2439 40.1929 88.2214C40.3487 88.5042 40.1522 87.8056 39.9396 87.1986C39.9405 87.0514 39.9398 86.8817 39.9135 86.6686C40.0474 87.1228 40.1093 87.1975 40.1302 87.1734C40.1937 87.2706 40.2523 87.3002 40.3408 87.2711C40.3697 87.3595 40.409 87.4359 40.4531 87.5798C40.4315 87.4342 40.4252 87.3441 40.4293 87.242C40.5926 87.1508 40.7914 86.9212 40.9556 86.6828C40.966 86.6707 40.966 86.6707 40.9765 86.6586C41.0586 86.5394 41.1423 86.4427 41.2155 86.3581C41.2628 86.5471 41.2892 86.7602 41.3188 87.0183C41.3079 86.5438 41.3161 86.3394 41.3411 86.2131C41.5938 85.9456 41.765 85.967 41.8125 86.9595L42.7609 86.4486L42.7591 86.743C43.0518 86.7216 43.2208 86.5507 43.34 86.3156C43.3882 86.3574 43.4244 86.3887 43.4742 86.4529C43.4453 86.3645 43.4285 86.2865 43.4116 86.2085C43.4414 86.1497 43.4576 86.058 43.4753 85.9888C43.6054 86.2283 43.746 86.4557 43.5704 85.7328C43.7164 86.1975 43.8481 86.4595 43.8678 86.8995C44.0114 86.3683 44.4246 87.5717 44.2825 86.2013C44.418 86.6781 44.4009 86.917 44.4771 87.1944C44.4692 87.0818 44.4573 86.7544 44.5456 87.0422C44.6443 87.3179 44.5967 87.4459 44.6126 87.6711C44.7864 87.5678 44.6616 86.7621 44.4581 85.8036C44.6125 85.747 44.7292 85.6366 44.817 85.4378C45.0155 85.5251 45.2784 85.5624 45.0861 84.7616C45.1575 84.9714 45.1977 84.9005 45.2243 84.7967L45.3728 85.1367C45.3467 84.6067 46.7447 86.1341 47.0117 84.9487C47.0301 85.0492 47.0758 85.2156 47.0733 85.3403C47.1282 85.1552 47.2134 85.0811 47.3349 85.0382C47.5186 85.5567 47.6767 86.0318 47.7385 86.1065C47.7947 86.2608 47.7456 86.3663 47.7431 86.491C48.277 87.4818 47.5405 85.3853 47.712 85.0898C47.8884 85.6654 47.9882 86.5975 48.1643 86.6865C48.3432 87.1374 48.1803 84.6707 48.6305 85.7582C48.6001 85.6472 48.5591 85.5484 48.5407 85.4478C48.724 85.4797 48.8559 85.4247 48.8714 85.1633C48.9951 85.3127 49.0716 85.2731 49.0061 84.6667C49.0486 84.7881 49.0911 84.9095 49.1095 85.01C49.1605 84.6101 49.377 84.3113 49.2868 83.5143C50.0204 86.3694 49.7415 81.9417 50.3256 84.604L50.6716 84.3749L50.7252 84.6539C51.005 84.7693 50.9588 84.1162 50.9127 83.4631C51.0034 83.6262 51.0225 83.8965 51.0425 84.0195C51.4555 84.4193 51.5063 84.3364 51.5295 83.3839C51.5641 83.3927 51.6091 83.3894 51.6437 83.3982L51.7535 83.8316C51.7394 83.312 52.5438 85.0866 52.6821 84.0012C52.7005 84.1017 52.7237 84.2698 52.7212 84.3945C52.9045 83.3058 54.1444 86.5992 53.6482 83.4211L53.7486 82.5988C53.6312 82.5395 53.5646 82.3973 53.5278 82.1962L53.5953 82.1913C53.772 82.45 53.979 83.1365 53.6983 83.1684C53.9239 83.6386 53.9758 83.0915 53.9665 82.6394C54.0734 82.7108 54.1843 82.6801 54.283 82.9558C54.2755 83.3299 54.1659 83.7001 54.2664 83.6814L54.5182 83.5611L54.429 83.4205C54.4379 83.3859 54.4347 83.3408 54.4315 83.2958C55.0734 83.0903 55.8857 83.857 56.5162 83.8108L56.1898 82.5558L56.4182 82.5843C56.5289 82.8705 56.6908 83.5603 56.5316 83.5494C56.7627 84.2568 56.6656 82.8831 56.624 82.6145C57.0297 83.0714 56.8102 84.1288 56.9019 84.1447L57.0065 84.0239L56.9399 83.8816C56.9467 83.3378 56.8394 82.7798 57.0332 82.7996C57.2083 83.0357 57.2465 83.5762 57.2947 83.6179C57.3131 83.7185 57.3267 83.7514 57.3759 83.6459L57.6629 83.7041L57.3557 82.7193C57.3761 82.2085 57.6017 82.6787 57.2945 81.6938C57.8128 83.2631 58.3951 82.0546 58.6238 82.5698C58.6598 81.7975 58.8174 81.786 59.0353 81.8266C58.9959 81.7503 58.9334 81.5058 58.8934 81.2598C58.9521 81.2894 58.9882 81.3207 59.0469 81.3504C59.3298 82.6313 59.484 81.7711 59.9026 83.2118C59.5681 82.1611 60.2898 82.7646 59.8895 81.4244C59.9 81.4124 59.9 81.4124 59.9105 81.4003C60.0301 81.6518 60.0594 82.2269 60.2504 82.6883C60.4297 81.7018 61.141 83.121 61.5208 82.731C61.4656 82.4295 61.3333 81.9978 61.3239 81.5457L61.336 81.5561L61.8326 82.9798C61.8891 82.8172 61.5703 81.1881 61.9378 82.2251C61.9057 82.0916 61.86 81.9252 61.8159 81.7813C62.0024 81.8582 62.1857 81.89 62.3522 81.8439C62.5234 81.8653 62.6883 81.7966 62.8411 81.7175L62.9687 82.0816C63.0106 82.0333 63.0292 81.8169 63.0479 81.6005C63.4927 81.3302 63.9544 81.1379 64.7124 82.5764C64.4909 82.0041 64.5537 81.9315 64.6301 81.892C64.5546 81.7843 64.5107 81.3235 64.4371 80.9214C64.4371 80.9214 64.4596 80.9198 64.4716 80.9302C64.4941 80.9286 64.4941 80.9286 64.5167 80.9269L64.9751 81.8101C64.8449 80.7671 65.244 81.4509 65.2115 80.8307C65.345 80.7983 65.4905 80.7763 65.6361 80.7544C66.4178 80.6065 67.2347 80.6372 67.9597 82.0894C67.7696 81.4808 67.9015 81.4259 68.0696 81.4023C67.9684 81.2512 68.0935 80.6196 68.0753 80.2021L68.6912 81.3907C68.8682 80.2119 69.3876 81.317 69.5227 80.1866L69.2998 80.3953C69.6579 79.0562 69.0568 77.4364 69.1626 75.7309C68.7723 77.2535 68.3249 73.4834 67.6968 75.6459C67.5813 75.2922 67.8163 75.0939 67.7547 74.7022C67.5909 75.4273 67.4323 75.5861 67.1037 75.2593L67.136 75.0758C66.2313 75.244 65.841 74.5256 64.8001 74.0472L64.9056 74.8997C64.6829 74.7915 64.6293 74.5125 64.5129 74.306C64.3092 75.5885 65.1287 74.374 64.9572 75.7901C64.6063 74.0275 63.4423 75.8105 63.1269 73.9095C62.7892 73.9343 63.2854 74.8713 62.9476 74.896L62.821 74.3847L62.7907 75.0773C62.5576 74.9812 62.3989 74.3364 62.3566 73.8981C62.4168 73.9502 62.5047 73.7514 62.5586 73.7135C62.2229 73.1269 61.7534 74.0102 61.649 73.8141L62.0091 74.1046C61.4684 74.4611 60.818 74.3843 60.218 74.5415C59.828 74.6266 59.4684 74.8228 59.1729 75.2858L59.2732 75.5841C59.1534 75.6494 59.0592 75.7582 58.9714 75.9571C58.6803 76.001 58.5352 75.3891 58.0187 75.7665L58.0228 75.6644C57.9816 75.8824 57.9252 76.045 57.831 76.1538C57.8006 76.0429 57.7926 75.9303 57.7951 75.8056C57.7508 75.9786 57.7153 76.117 57.7007 76.2313C57.6573 76.2571 57.6154 76.3054 57.5704 76.3087C57.6825 75.8138 57.0821 75.4843 57.2241 74.9306C56.7555 75.6667 56.8697 75.681 56.8337 76.4533C56.7773 76.6158 56.7377 76.8564 56.6854 76.9169L56.5442 76.5197C56.5385 76.5994 56.5433 76.6669 56.5256 76.7362C56.483 76.6148 56.4253 76.4379 56.3507 76.1831C56.393 76.6214 56.4466 76.9004 56.5044 77.0773C56.4825 77.2486 56.4487 77.4096 56.377 77.5167C56.2904 77.2514 56.1933 76.9982 56.0905 76.8246C55.9934 76.5714 55.9067 76.3061 55.9938 75.9376C55.4749 75.3191 55.2752 75.6959 55.1053 76.014C55.0884 75.936 55.0853 75.891 55.0668 75.7904C55.0853 75.891 55.078 75.9481 55.0948 76.0261C54.9458 76.32 54.7994 76.4891 54.4782 75.7883L54.4614 75.7103C54.463 75.7328 54.4526 75.7449 54.4541 75.7674C54.4269 75.7015 54.4027 75.6807 54.3739 75.5922C54.3745 75.7619 54.405 75.8729 54.4025 75.9976C54.2706 76.0525 53.9424 75.0919 53.8931 75.5143C54.226 75.422 54.1778 76.5007 54.4338 77.0818C54.4088 77.2082 54.3806 77.2895 54.3597 77.3136C54.2537 77.095 54.1477 76.8764 54.0208 76.682C53.8171 76.0405 53.5765 75.1979 53.3568 75.4517C53.3939 75.3358 53.6556 75.8373 53.6722 76.2322C53.636 76.2009 53.6103 76.1575 53.5758 76.1487C53.4625 75.9872 53.3445 75.7582 53.2201 75.4391C53.1034 75.5495 53.1266 75.7176 53.1964 75.9049C53.0709 76.0499 52.9869 76.4635 52.6713 75.9999C52.7152 76.4608 52.6644 76.5437 52.6105 76.5816L52.5337 76.1345C52.4929 76.8392 52.4054 76.7212 52.1989 76.5212C52.3517 76.4421 52.4893 76.3075 52.5041 75.8764C52.2062 75.3436 52.1229 77.0475 51.9126 75.5122C51.9421 75.7704 51.9549 75.9506 51.954 76.0978C51.7452 75.7056 51.6597 76.0967 51.5937 76.1242C51.6299 76.1555 51.6885 76.1851 51.7311 76.3065L51.7165 76.4208C51.5541 76.3648 51.366 76.2654 51.2773 76.6114C51.2021 76.1868 51.1525 75.8056 51.1921 75.5651L51.0613 76.2764L51.0429 76.1759C51.034 76.2105 51.0372 76.2555 51.0299 76.3126C50.9721 76.1358 50.8766 75.9051 50.8052 75.6953L50.802 75.6502C50.7916 75.6623 50.7916 75.6623 50.8036 75.6727C50.7611 75.5514 50.7306 75.4404 50.7243 75.3503C50.5853 75.1455 50.5585 75.5662 50.5043 75.921C50.3974 75.8496 50.2753 75.7228 50.1668 75.6289L50.1341 75.3257C50.0786 75.3411 50.0745 75.4432 50.0945 75.5663C49.9514 75.4636 49.8341 75.4042 49.7688 75.6014C49.9232 75.5448 50.039 75.5816 50.1129 75.6668C50.145 75.8002 50.1786 75.9562 50.2123 76.1122L50.1764 75.764C50.255 75.9167 50.3039 76.1281 50.3528 76.3396C50.3198 76.3533 50.2837 76.322 50.2339 76.2578C50.2434 76.3929 50.253 76.528 50.2264 76.6318C50.0399 76.555 49.7797 76.076 49.6364 76.2902C49.5063 76.0508 49.369 75.8684 49.2243 75.7432L49.1409 75.523C49.1215 75.5696 49.1247 75.6147 49.1174 75.6718C49.0001 75.6125 48.8859 75.5982 48.7572 75.6982C48.8288 75.5911 49.082 75.8102 49.2152 76.0947C49.2305 76.1502 49.2457 76.2057 49.2609 76.2612C49.2778 76.3392 49.2946 76.4172 49.2768 76.4864C49.1941 76.4358 49.0872 76.3644 48.9787 76.2705C48.9771 76.248 48.9635 76.2151 48.9514 76.2046C48.953 76.2271 48.9425 76.2392 48.9546 76.2497C48.7979 76.114 48.6396 75.9558 48.487 75.718C48.4765 75.7301 48.4661 75.7422 48.4556 75.7543C48.4809 75.311 48.55 75.3286 48.2755 74.6469C48.4302 75.3939 48.4179 75.7004 48.3599 75.8405C48.3389 75.8647 48.3301 75.8993 48.3212 75.9339C48.1763 76.1256 47.9175 75.9861 48.1249 77.1593C48.0903 77.1505 48.0798 77.1626 48.0453 77.1538L47.9393 76.9353C47.9739 76.944 47.9538 76.821 47.9884 76.8298C47.7822 76.3129 47.8197 76.6837 47.8667 77.1896C47.7066 77.3258 47.8904 77.8443 47.9383 78.203C47.9222 78.2947 47.9028 78.3414 47.8546 78.2997C47.7309 78.1503 47.6081 77.8537 47.589 77.5834L47.5563 77.2802L47.3357 77.6812L47.1096 76.7244C47.0336 77.2506 46.917 77.361 46.7457 77.3396C46.6334 77.0309 46.6293 77.1331 46.6315 77.3254C46.5624 77.3078 46.5037 77.2781 46.4105 77.2397C46.4771 77.3819 46.5333 77.5363 46.591 77.7131C46.5387 77.7736 46.4664 77.711 46.297 77.3951L46.3978 77.0595C45.9991 75.7419 45.9682 76.2648 45.5836 75.4667C45.6687 75.7095 45.94 76.3461 46.1421 76.9651C45.9067 76.6767 45.7434 76.7679 45.6163 76.8904L45.5826 76.7344C45.5754 76.7916 45.5697 76.8712 45.5745 76.9388C45.5117 77.0113 45.4594 77.0717 45.4159 77.0975C45.473 77.1046 45.5317 77.1343 45.5799 77.176C45.5863 77.2661 45.591 77.3337 45.5974 77.4238L45.5078 77.917C45.3609 77.5996 45.219 77.0327 45.0698 76.523C44.778 76.3973 45.5496 77.8687 45.309 78.1466C45.2712 78.0928 45.2487 78.0945 45.2142 78.0857C45.2062 77.9731 45.1878 77.8726 45.1798 77.76C45.138 77.8083 45.1234 77.9226 45.1193 78.0247C45.0518 78.0297 44.9938 78.1697 44.9615 78.3532C44.7907 77.6979 44.5644 77.0581 44.7175 76.662L44.3879 77.6029C44.3092 77.4503 44.1357 77.2366 43.9967 77.0317C44.0097 76.895 44.0106 76.7478 43.9874 76.5797C43.9488 76.6731 43.9463 76.7978 43.9454 76.945C43.8698 76.8373 43.8169 76.728 43.8105 76.6379C43.4207 76.4062 43.4422 77.6722 43.0915 77.8338C43.0344 77.8266 42.9894 77.8299 42.9219 77.8349C42.8873 77.8261 42.8768 77.8382 42.8527 77.8173C42.8848 77.9508 42.8718 78.0875 42.8243 78.2155C42.7222 78.2117 42.5944 78.1645 42.4665 78.1172C42.3822 78.0442 42.3324 77.9799 42.2721 77.9278C42.1757 77.8443 42.1113 77.8943 42.1358 78.4018C42.1358 78.4018 42.0356 78.1035 41.9578 77.8037C41.9137 77.6597 41.88 77.5038 41.8495 77.3928C41.9187 77.4104 41.9066 77.3999 41.8343 77.3373C41.8327 77.3148 41.8207 77.3044 41.8311 77.2923C41.865 77.1314 41.8282 76.9303 41.8259 76.7381C41.7349 76.8919 41.6665 77.044 41.6446 77.2154C41.7033 77.2451 41.762 77.2747 41.8327 77.3148C41.8343 77.3373 41.8464 77.3478 41.8359 77.3599C41.8798 77.8207 42.2514 78.7555 42.0942 79.2537C42.0555 79.3471 42.033 79.3488 42.0194 79.3158L41.8954 78.3628L41.9 78.7473C41.8641 78.3991 41.8129 77.9954 41.7688 77.8515C41.8045 78.5166 41.6675 79.9415 41.4487 78.9275C41.4972 78.6523 41.5445 78.8413 41.592 78.7133L41.4526 78.0218C41.5453 76.77 41.5739 77.1753 41.4693 76.1756C41.5359 77.4384 41.4522 77.5351 41.3685 77.6318C41.3057 77.7043 41.2341 77.8114 41.1451 78.4744L41.0969 78.4327C41.1019 78.1833 41.069 78.197 41.0262 78.3926L40.9073 78.3107L40.9525 77.9905L40.9405 77.9801L40.8968 78.3228L40.5158 78.0565C40.4949 78.0806 40.462 78.0944 40.441 78.1185C40.7602 77.1897 40.6128 77.5061 41.0115 76.5827C40.8625 76.8766 40.6128 77.5061 40.3437 78.1823L40.3332 78.1943L40.3453 78.2048C40.1431 78.7063 39.9424 79.2303 39.7564 79.6401L39.718 79.4165C39.738 79.5396 39.7412 79.5846 39.7475 79.6747C39.7371 79.6868 39.7386 79.7093 39.7282 79.7214C39.68 79.6796 39.6438 79.6483 39.5851 79.6187C39.5835 79.5962 39.5835 79.5962 39.561 79.5978C39.549 79.5874 39.5369 79.5769 39.5249 79.5665L40.2086 78.1922C39.9984 78.5811 39.7359 79.0304 39.4646 79.5143C39.4405 79.4935 39.4284 79.483 39.4043 79.4622C39.6322 79.004 39.9736 78.3905 40.2837 77.8131C40.3071 77.6643 39.7812 78.7102 39.3682 79.4308C39.3682 79.4308 39.3561 79.4204 39.3441 79.41L39.3263 79.4792C39.2658 79.7439 39.1225 79.9582 39.0388 80.0549C39.1726 79.7055 39.0366 79.8626 38.7034 80.2718C38.6777 80.2285 38.6729 80.1609 38.6592 80.1279C38.7413 80.0087 38.8339 79.8775 38.9056 79.7703L38.5232 80.285C38.4541 80.2675 38.397 80.2603 38.3808 80.3521L38.4202 80.4284L37.9976 81.014C37.9976 81.014 37.9976 81.014 37.9855 81.0035C38.0661 80.8618 38.2528 80.6218 38.3558 80.4784C38.2407 80.6113 38.1063 80.791 37.9839 80.981C37.9583 80.9376 37.9326 80.8943 37.9085 80.8734C37.9116 80.9184 37.9269 80.9739 37.9421 81.0294C37.8914 81.1123 37.8181 81.1969 37.757 81.2919C37.7322 81.1013 37.721 80.9437 37.6994 80.7981C37.7831 80.7015 37.8564 80.6169 37.928 80.5098C37.8443 80.6064 37.7816 80.679 37.7083 80.7635C37.7067 80.741 37.7035 80.696 37.702 80.6735C37.4691 80.2604 37.4966 80.0094 37.3228 80.1127C37.1166 79.5958 37.2069 79.2723 37.2487 79.224L36.8517 79.0493C37.1364 78.9153 37.1275 78.9499 37.7655 78.5296C37.8546 78.6702 37.9124 78.8471 37.9299 79.0948C37.9156 78.8921 37.9552 78.6516 37.9393 78.4264C38.101 78.3126 38.2852 78.1973 38.5233 78.044C38.8886 77.7682 38.2925 78.1402 37.924 78.3709C37.9177 78.2808 37.8992 78.1803 37.8719 78.1144C38.4922 77.7633 38.7906 77.6622 38.8131 77.6606L39.316 77.2502C38.4424 77.6991 38.1094 77.7914 37.733 77.9095C37.6607 77.8469 37.5779 77.7964 37.4742 77.77L37.6632 77.7222C37.9254 77.5898 37.5354 77.675 37.2113 77.7327C37.2113 77.7327 37.1992 77.7223 37.1888 77.7343C37.0553 77.7668 36.9427 77.775 36.8856 77.7679C36.8735 77.7574 36.8615 77.747 36.8615 77.747C36.8824 77.7228 36.9693 77.6712 37.1221 77.5921C37.3803 77.5619 37.6609 77.53 37.5492 77.391C38.023 77.2092 38.8748 76.9317 38.2627 77.0784C37.9523 77.1691 37.4979 77.3042 36.9879 77.4548C36.7805 77.4021 36.549 77.3285 36.3191 77.2774C36.5877 77.2351 36.8338 77.1944 37.0662 77.1208C36.7091 77.1922 36.3022 77.1994 36.1656 77.1868C36.3859 77.1027 36.7896 77.0505 37.0012 77.0011C37.1153 77.0153 37.24 77.0175 37.3421 77.0214C37.2536 77.0505 37.1547 77.0917 37.0662 77.1208C37.2118 77.0988 37.3227 77.0681 37.4217 77.0269C37.716 77.0279 37.9154 76.968 37.8561 76.7687C37.9179 76.8433 37.6164 76.8994 37.2964 76.8549L37.29 76.7649C37.8345 76.6231 38.9455 76.9718 38.9325 77.1086C38.3812 76.6736 37.9625 76.3534 37.2737 76.053C37.2784 76.1206 37.3089 76.2315 37.3169 76.3441C37.1351 76.3348 36.9743 76.3013 36.8015 76.2574C36.7999 76.2349 36.7879 76.2244 36.7637 76.2035C37.1047 76.2238 36.9632 76.1437 36.706 76.0267C36.4488 75.9097 36.0878 75.7664 35.9553 75.6516L36.7954 75.8504C37.4518 75.5306 35.0935 75.3073 35.8343 75.0606L36.9412 75.5114L36.6953 75.2352L37.6424 75.5053C36.9921 75.1116 37.1932 75.0742 37.5214 74.9143C37.3952 74.8896 37.2464 74.8666 37.0961 74.821C37.1532 74.8281 37.2103 74.8353 37.2899 74.8408C36.9442 74.7529 36.7288 74.5876 36.5448 74.386C36.6951 74.4316 36.7747 74.4371 36.7395 74.2586C37.2508 74.4475 37.8882 74.6611 37.0922 74.6062C37.3583 74.6886 37.6019 74.7726 37.8696 74.8775C38.4686 74.8676 38.0829 74.5336 38.087 74.4315C38.0556 74.4677 37.9897 74.4952 37.8651 74.493L36.7873 73.8137C36.8218 73.8224 36.8564 73.8312 36.8789 73.8296C37.1168 73.9932 37.3579 74.2019 37.4095 73.9718C37.4682 74.0014 37.5373 74.019 37.596 74.0487C37.5205 73.941 37.1596 73.7977 37.105 73.6659C37.7859 73.8537 38.4862 73.9948 38.765 74.2573L38.0916 73.6954C38.3891 73.7416 38.9504 73.6778 39.1956 73.7843C39.65 73.6492 37.9941 72.9556 38.582 72.788C38.4542 72.7408 38.3368 72.6815 38.2524 72.6084C38.4617 72.3667 39.3623 72.3007 38.4999 71.7867L39.7615 71.864C39.5245 71.5531 38.1606 71.7889 37.7847 71.2732C37.4529 70.9013 38.8556 71.3758 39.2159 71.3494C38.6307 71.0754 37.4065 70.5652 38.4647 70.4876C38.6785 70.6304 38.4879 70.6557 38.5634 70.7634L39.2823 70.6881C40.3458 71.1647 39.9348 71.2741 40.9303 71.269C38.5634 70.7634 40.8457 70.3924 38.4804 69.9093L39.0088 69.8592C38.9774 69.8955 39.1157 69.9306 39.0843 69.9669C40.2687 69.914 37.4065 69.4447 37.8048 69.1552C38.0027 69.0728 38.375 69.0568 38.6442 69.1842L38.1082 68.8047C38.171 68.7322 38.5858 68.8376 38.511 68.8997L38.4011 68.4663L38.4703 68.4839C38.1109 68.3631 37.5619 68.1204 37.3168 68.0138C37.6754 67.9649 37.5499 68.1099 37.8683 68.1319L37.325 67.8095C37.9602 67.8309 38.5349 68.117 38.4093 68.262C40.8351 68.4804 37.8451 67.9638 39.3127 67.7544L39.5811 68.029C40.9568 68.1206 40.4979 67.8713 41.3848 67.7723C40.9313 67.7603 39.1751 67.889 38.6302 67.5441C38.8192 67.4963 38.9165 67.4325 38.4712 67.2162C39.3186 67.3578 39.1378 67.2013 39.1026 67.0228L40.2266 67.2347C39.9268 66.9963 39.356 66.925 38.8672 66.7344C39.0137 66.5652 39.8804 66.6602 40.633 66.7408C40.8616 66.4525 39.2065 66.7322 39.0533 66.3246C39.527 66.1428 39.1011 65.8797 38.4718 65.4618C38.8932 65.3403 39.1495 65.6045 39.4872 65.5798L38.6167 65.2701C38.648 65.2338 38.923 65.2816 39.0613 65.3167C38.7422 65.1251 37.9389 65.1273 37.6721 64.8752C36.4445 64.637 39.5619 64.7141 38.1816 64.238C38.5089 64.2254 38.8698 64.3687 39.3144 64.4153C38.4416 63.9134 38.6852 63.9974 37.4746 63.5202L38.2562 63.3724C37.3781 63.4367 36.4127 63.066 35.6096 62.7514C35.1923 62.7706 34.8305 62.7745 34.6503 62.7877L34.0902 62.3873C34.2703 62.3742 34.661 62.4587 35.133 62.5713C35.0397 62.5328 34.9585 62.5048 34.8773 62.4768C35.314 62.4109 35.9588 62.5673 36.581 62.7255C36.3558 62.742 36.1066 62.7376 35.8694 62.7437C36.5487 62.9089 37.2972 63.0918 37.9701 63.167C37.8423 63.1197 37.737 63.0709 37.6768 63.0187C37.8617 63.073 38.0225 63.1065 38.135 63.0983C38.2597 63.1005 38.0177 63.039 37.7275 62.9357L39.0011 63.0235L38.5083 62.9351L39.3552 62.5901C38.1221 62.1145 36.2988 61.6143 35.8417 61.0706C36.7526 61.3094 37.35 61.277 38.4451 61.4004C37.2679 61.3962 38.8838 61.8437 38.6175 62.0782C38.7567 61.9662 39.272 62.0529 39.4569 62.1073L38.4651 61.5235C39.356 61.6393 39.1542 61.5069 39.5338 61.4338C37.7601 61.3148 38.3908 60.9517 37.8643 60.7073C38.4681 60.7649 39.0646 60.8797 38.8988 61.0956C40.2603 60.9845 36.8456 60.5443 38.0132 60.4134C38.0285 60.4689 37.928 60.4876 38.2375 60.5441C37.7262 60.3552 38.1711 60.085 38.6896 60.2167L38.7049 60.2722C38.9633 59.925 38.84 59.1418 37.3212 58.9475C37.515 58.9672 39.1375 59.1879 39.4454 59.2219L34.4336 58.1178C35.724 58.2836 38.8398 58.3382 39.5439 58.6941C39.7313 58.6237 39.9622 58.5276 39.5274 58.2991C39.3384 58.347 37.6369 58.2905 37.5284 58.1966C38.992 58.0894 38.3254 58.1043 39.5799 57.9218C39.2904 57.9883 37.2683 57.7177 37.3383 57.588C37.6358 57.6342 39.3404 57.7356 39.5599 57.7987L37.5774 57.2876C37.9247 57.3979 39.2731 57.4236 39.8481 57.3928C39.4532 57.4104 39.9054 57.083 39.7053 56.9732L39.2267 57.0875C39.5615 56.7008 36.4362 56.511 36.5667 56.1166C36.9679 56.1891 39.1099 56.3943 39.3673 56.1943C38.3487 56.0313 34.4637 55.5011 33.6904 55.1276L34.2879 55.0952L33.6336 54.8036C35.166 55.0308 38.3892 55.6435 39.6353 55.9823C40.1017 55.8576 40.3364 55.9762 40.2859 55.7422C40.8368 55.6905 41.1124 55.908 41.1293 55.986L41.5221 55.4592C40.3312 55.422 40.346 54.9908 39.349 54.9733L40.5482 55.6098C39.3573 55.5726 37.1738 55.0987 37.4096 54.7532C37.8913 54.684 39.538 54.9255 39.9344 54.9304C39.5227 54.87 39.1716 54.5449 39.4643 54.5234L40.1002 54.7145C40.5619 54.5222 38.5325 54.3088 39.6833 54.0999C39.7566 54.0153 41.241 53.8839 40.5141 53.8466C39.1407 53.9473 34.912 53.8384 33.8965 53.7204C33.985 53.6912 35.2043 53.3303 35.8886 53.2462C36.9662 53.1219 38.4422 53.5118 39.3638 53.4216C39.0349 53.4117 38.6322 53.3168 38.5059 53.2921C38.7939 53.203 39.5287 53.3529 39.3672 53.1497C38.1523 53.0916 39.4753 52.757 38.3413 53.0438C37.9997 52.8538 38.5987 52.8438 38.5483 52.6099C37.7602 52.6676 35.8837 52.375 35.5316 52.1971C35.838 52.2086 36.2433 52.1789 36.4338 52.1536C36.5539 51.7713 37.1057 51.5724 37.1253 51.2088C37.4285 51.1752 37.7776 50.9912 38.3034 51.0659C38.096 51.0132 37.6739 50.9649 37.6434 50.8539C38.6905 50.6187 37.808 51.1022 39.0746 50.9301C38.3614 50.9258 38.093 50.6512 37.6404 50.4919C36.5476 50.5607 37.4407 50.8687 37.8813 51.0176C36.3768 51.0259 34.7978 50.7795 34.0832 50.4357C33.7022 50.1693 35.057 50.2851 34.8392 50.2445C35.0832 49.6946 32.1876 49.8729 33.2742 49.3971C34.2208 49.1806 35.1808 49.314 35.8772 49.2403C36.2445 49.4737 35.2827 49.6347 35.3163 49.7907L35.7539 49.5776C36.0755 49.6445 36.3239 49.7961 36.048 49.8956C36.9061 49.7082 36.1854 48.9574 36.9673 48.4926C36.6457 48.4257 36.3105 48.3257 35.9205 48.4109L36.0651 48.5361C35.2955 48.6944 34.9878 48.3434 34.6387 48.5275C34.096 48.3748 33.2381 48.2453 33.6484 47.9662L34.7381 47.8524C34.4228 47.8755 34.0962 48.0579 34.4387 48.1007C33.9475 48.0348 35.8873 47.621 34.4383 47.614L33.696 47.8382C33.1324 47.7097 31.9577 47.5808 32.2811 47.3533C31.2188 47.533 32.4089 47.4006 31.1697 47.6385C32.7258 47.4 31.1508 48.1718 32.7801 47.8487C31.3382 48.1015 32.1792 48.1531 30.9536 48.424C31.3138 48.3976 31.6363 48.3174 31.4673 48.4882C31.5694 48.492 31.7061 48.5047 31.7857 48.5101L31.7528 48.5239L31.7857 48.5101C31.8428 48.5173 31.8533 48.5052 31.7962 48.4981C31.9506 48.4415 32.1396 48.3937 32.3423 48.3788C33.1713 48.4199 33.1574 48.7039 33.5811 48.7747C33.4194 48.8884 33.1606 48.749 32.781 48.822L33.4225 48.9335C32.6224 48.9808 32.0996 49.2681 31.6317 49.0534L31.6026 49.2819C31.1603 49.4275 30.9808 49.6104 31.316 49.7104C31.1423 49.8136 32.2148 49.9388 31.5764 49.8724L32.0868 50.2085L31.8841 50.2233C31.7834 50.5589 33.2457 50.9158 31.7924 51.3279C31.9926 51.4378 32.2393 51.5668 32.0044 51.7651L31.3169 51.8042C31.5652 51.9558 30.6129 52.2519 31.3414 52.3117C29.4726 52.4487 30.9163 53.022 30.5945 53.2719L31.491 53.3081C31.4362 53.4932 31.6861 53.6673 32.0534 53.9007L32.8463 53.9105C33.4958 54.1346 32.2581 54.395 32.3254 54.707C32.0175 54.673 32.1028 54.5988 32.2917 54.551C30.467 54.8319 33.5519 55.4094 32.2242 55.6765C32.5144 55.7797 32.405 55.833 32.2039 55.8704C32.2039 55.8704 32.1919 55.86 32.1573 55.8512C32.1468 55.8633 32.1364 55.8753 32.1484 55.8858C32.0149 55.9182 31.8468 55.9418 31.7133 55.9742C31.9039 55.949 32.072 55.9253 32.15 55.9083C32.1548 55.9759 32.2528 56.0819 32.4529 56.1917L31.603 56.1747C31.6151 56.1852 31.6151 56.1852 31.6271 56.1956C31.3046 56.2758 32.0299 56.2906 32.6756 56.2999C32.8155 56.3575 32.9778 56.4135 33.1853 56.4663C31.7918 56.4439 33.6353 56.7502 32.1534 56.7569C32.8746 56.8738 32.666 57.2853 34.1832 57.4571C33.9789 57.4494 33.8784 57.4681 33.8857 57.4109C33.6999 57.5038 33.5141 57.5966 33.9425 57.735L32.8418 57.6912L34.2816 58.0497C33.6093 58.1443 33.2145 58.1619 32.3848 57.951C33.6389 58.4024 32.8486 58.2679 34.089 58.6863L33.3935 58.6128C33.4119 58.7133 34.3364 58.9851 33.7478 58.983C32.3864 59.0941 33.4566 60.1475 32.1311 60.6068C34.052 60.7263 31.6333 60.7678 32.5289 60.9511C32.5185 60.9632 32.508 60.9753 32.4975 60.9874C32.1687 60.9775 31.8864 60.9869 31.5617 60.8749C31.7304 61.021 31.6346 61.1072 31.5494 61.1814L31.465 61.1083C31.1707 61.1073 31.0604 61.3078 30.8707 61.1858C31.0338 61.4116 31.2516 61.4522 31.5894 61.4275C31.6826 61.4659 31.8225 61.5236 32.054 61.5971C31.5539 61.5659 31.3522 61.4335 31.0579 61.4324C31.1511 61.4709 31.4759 61.5829 31.1695 61.5714C30.8752 61.5703 30.7667 61.4764 30.5577 61.4012C30.6025 61.7148 32.0899 61.9454 33.5082 62.1584C32.8118 62.232 32.8978 62.3276 33.8086 62.5664C33.3326 62.556 32.8477 62.5803 32.7088 62.3754C32.6251 62.4721 31.9348 62.9528 33.0676 63.1301C32.7733 63.129 32.9646 63.2734 33.0924 63.3207C33.0924 63.3207 33.0924 63.3207 33.0819 63.3327C32.9557 63.308 32.8295 63.2833 32.7467 63.2328L33.0344 63.4607C32.9643 63.5904 32.9104 63.6283 32.9698 63.8277L33.1708 63.7903C34.5159 64.0879 33.4376 64.0424 33.5661 64.2593L33.4278 64.2242C32.363 64.5286 33.8658 64.4977 32.6627 64.7669L33.519 64.874C35.3191 65.2061 32.3802 65.0932 33.0289 65.4645L33.5258 65.4507C33.7123 65.5276 33.5217 65.5529 33.1599 65.5568C33.1599 65.5568 33.1478 65.5463 33.1357 65.5359C33.1357 65.5359 33.1357 65.5359 33.1373 65.5584C32.8776 65.5661 32.5487 65.5563 32.1853 65.5376C32.1339 65.4508 32.1066 65.3849 32.0898 65.3069C31.982 65.3827 31.8517 65.4602 31.6972 65.5168C31.2212 65.5064 30.8127 65.4911 30.7363 65.5306C30.5667 65.5317 30.4928 65.4466 30.3859 65.3752C29.256 65.5599 31.4889 65.6113 31.7034 65.9238C31.0995 65.8662 30.1975 65.5927 30.0511 65.7619C29.6321 65.7587 31.2262 66.3775 31.0153 66.5967L30.6817 66.5193L30.9614 66.6346C30.906 66.65 30.84 66.6775 30.7154 66.6753C30.8746 66.6863 31.0112 66.6989 31.1705 66.7099L31.7645 66.9493L31.5596 66.7719C31.6979 66.807 31.8587 66.8405 31.976 66.8998C32.0531 67.03 31.3672 67.0916 31.1259 67.1998L30.7817 67.1345L31.0526 67.2844C31.0574 67.352 31.1763 67.4338 31.5582 67.553C31.4336 67.5508 31.3089 67.5486 31.1827 67.5239C31.2116 67.6123 31.296 67.6854 31.3803 67.7584C31.3023 67.7754 31.1327 67.7766 30.8054 67.7892C31.7244 67.8237 31.5063 68.1 31.4997 68.3269C31.2191 68.3588 31.2857 68.501 31.4665 68.6576C31.0885 68.7532 31.2138 68.9251 30.3011 68.9806C30.6557 69.0339 31.0039 68.9971 30.7721 69.2404C30.8412 69.258 30.912 69.2981 30.9932 69.3261L31.0211 69.5617L30.7791 69.5002L30.7896 69.4881C30.7341 69.5035 30.6891 69.5068 30.665 69.4859C30.6682 69.531 30.6713 69.576 30.6657 69.6557C30.6745 69.6211 30.6954 69.5969 30.7164 69.5727C30.6898 69.6765 30.7653 69.7842 30.9413 69.8732C30.6993 69.8117 30.3777 69.7447 30.5594 69.754C29.8769 69.5437 30.8221 70.1083 31.118 70.1318C31.0086 70.1851 30.9217 70.2368 30.8678 70.2747C30.8317 70.2434 30.7746 70.2362 30.7368 70.1824L30.636 70.518C30.1575 70.6323 29.9258 70.8757 30.2255 71.114C30.1386 71.1657 30.2712 71.2805 30.4022 71.3727C30.1625 71.5035 30.0385 71.671 30.4195 71.9374C30.3158 71.911 30.1654 71.8654 30.0481 71.8061C30.9216 72.4778 27.7351 72.3831 30.1435 73.1573C30.0896 73.1952 30.0462 73.2211 30.0148 73.2573C30.1153 73.2386 30.2279 73.2304 30.3284 73.2117C30.3871 73.2414 30.4322 73.2381 30.4908 73.2677L30.7167 73.4209C30.5879 73.5209 30.4126 73.6017 30.1005 73.6698C30.1719 73.8796 30.2313 74.079 30.2247 74.3059C30.1699 74.491 30.0684 74.6569 29.9445 74.8244L29.2779 74.8393C29.407 75.226 28.3708 75.9357 28.8298 76.1851L28.8523 76.1834C28.8764 76.2043 28.8884 76.2147 28.923 76.2235C26.8183 76.706 27.9823 78.2845 27.0295 79.2145L28.0678 79.0139C27.8157 79.4512 27.7841 79.8043 27.8441 80.1734C27.775 80.1559 27.7179 80.1487 27.6383 80.1432C27.73 80.1592 27.7991 80.1767 27.8578 80.2064C27.8762 80.3069 27.9067 80.4179 27.9476 80.5167L28.2235 80.4173C28.3247 80.5683 28.3374 80.7485 28.6879 80.9039C28.6774 80.916 28.6565 80.9402 28.646 80.9522C28.4145 80.8787 28.1605 80.8067 27.9096 80.7798C28.6601 81.4718 27.0672 81.5093 27.1881 82.1004C27.2573 82.1179 27.3385 82.1459 27.4197 82.1739C27.3223 82.2377 27.2475 82.2997 27.1727 82.3618L26.7956 82.3102C26.8092 82.3432 26.9145 82.392 27.0544 82.4497C25.9497 83.3116 26.0998 83.6741 26.4173 83.8433C26.7621 84.0783 27.2952 84.0959 25.8944 85.2511C26.097 85.2363 26.0809 85.328 25.9449 85.4851C25.8323 85.4933 25.6972 85.5032 25.55 85.5027C25.6867 85.5153 25.7904 85.5417 25.8821 85.5576C25.7984 85.6543 25.6922 85.7526 25.5425 85.8768C25.553 85.8647 25.5409 85.8543 25.4959 85.8576C25.4645 85.8938 25.4452 85.9405 25.4138 85.9768C25.3285 86.0509 25.2327 86.1372 25.1475 86.2113L25.0647 86.1608L24.6578 86.168L25.1056 86.2597C24.8932 86.4563 24.6687 86.6425 24.4772 86.815C24.7451 86.603 24.9471 86.4184 25.1402 86.2684L25.2784 86.3036L25.1836 86.2426C25.2584 86.1805 25.3542 86.0943 25.4081 86.0564C25.3308 86.2432 25.333 86.4354 25.5284 86.4777L25.3128 86.6293L25.1383 86.5629L25.3023 86.6414L23.9113 87.6148C23.9234 87.6253 23.9024 87.6494 23.9145 87.6599C23.2128 88.2998 24.3029 87.5522 25.4542 86.7095L25.701 86.8385C24.6639 87.6955 26.6323 86.5666 24.0561 88.5436C25.2588 87.7877 24.4828 88.9764 26.832 87.3103C26.3475 87.8211 25.8333 88.3908 26.6346 87.8793L24.1862 89.9036C24.1862 89.9036 24.9094 89.4092 25.6431 88.9027C26.3978 88.372 27.1404 87.8309 27.1404 87.8309C25.4844 89.3784 24.4729 90.2788 22.7826 91.5005C24.0062 90.7204 24.2025 90.6155 24.3883 90.5226C24.5846 90.4177 24.7825 90.3353 26.1253 89.3201L24.4718 90.7429C24.384 90.9417 26.4719 89.2608 24.9953 90.6253C24.6139 90.9928 24.2969 91.3103 24.0112 91.5916C23.1365 92.5045 23.335 92.5919 23.4289 92.8C23.4803 92.8868 23.5124 93.0203 23.4262 93.2416C23.3891 93.3575 23.319 93.4872 23.2296 93.6635C23.1789 93.7464 23.1073 93.8536 23.067 93.9244C23.0493 93.9936 23.0211 94.0749 22.9704 94.1579C26.2407 90.7944 22.0342 95.4828 24.7758 92.8032C24.0386 93.5816 23.7834 93.9738 22.8646 94.7429C24.3618 93.6711 22.7988 95.5739 25.348 93.214ZM57.2844 83.3131L57.201 83.0928C57.239 82.8297 57.2549 83.0549 57.2844 83.3131ZM32.0777 49.4395C32.1002 49.4378 32.1002 49.4378 32.1228 49.4362C31.793 49.5735 31.9144 49.5307 32.0777 49.4395ZM37.3427 62.4546C37.6088 62.537 37.4648 62.5815 37.1391 62.6167C37.0668 62.5541 37.1191 62.4936 37.3427 62.4546ZM38.66 67.4853C38.8256 67.5863 39.3609 67.7961 38.8488 67.7544C37.8929 67.5189 38.3584 67.5413 38.66 67.4853ZM28.9236 90.3261C28.9549 90.2899 28.9759 90.2657 29.0193 90.2399L29.0691 90.3041C29.0377 90.3404 29.0064 90.3767 28.9854 90.4008L28.9236 90.3261ZM29.2197 90.0328C29.2302 90.0207 29.2543 90.0416 29.2663 90.052C29.2349 90.0883 29.2035 90.1245 29.1842 90.1712C29.181 90.1262 29.1794 90.1037 29.1883 90.069C29.1867 90.0465 29.1972 90.0344 29.2197 90.0328ZM29.2511 89.9965C29.272 89.9724 29.2825 89.9603 29.3034 89.9361C29.3154 89.9465 29.3154 89.9465 29.3275 89.957C29.3066 89.9811 29.2961 89.9932 29.2752 90.0174C29.2631 90.007 29.2631 90.007 29.2511 89.9965ZM29.3991 89.8499C29.3991 89.8499 29.4096 89.8378 29.3991 89.8499C29.4185 89.8032 29.4394 89.779 29.4724 89.7653C29.4515 89.7894 29.4305 89.8136 29.3991 89.8499ZM30.0351 88.9204C30.011 88.8996 30.0094 88.877 29.9853 88.8562C29.9989 88.8891 30.011 88.8996 30.0351 88.9204L29.3826 89.4549C29.5065 89.2874 29.7906 88.9836 30.1584 88.5832C30.1961 88.637 30.2218 88.6804 30.2596 88.7342L30.0351 88.9204ZM26.4718 86.2161L26.4268 86.2194C26.4597 86.2057 26.4927 86.192 26.5362 86.1661C26.5152 86.1903 26.5048 86.2024 26.4718 86.2161ZM35.6069 79.05C35.5844 79.0517 35.5739 79.0637 35.5635 79.0758C35.5739 79.0637 35.5964 79.0621 35.5949 79.0396L35.6069 79.05ZM35.3274 79.7383C35.2075 79.8036 35.0877 79.869 34.9453 79.936C34.799 79.7883 34.7686 79.6773 35.3274 79.7383ZM34.4602 79.1567C34.7336 79.1819 34.9844 79.2088 35.1871 79.1939C34.6546 79.3461 34.329 79.3813 34.4602 79.1567ZM33.4406 80.2614C33.4961 80.246 33.55 80.2081 33.6055 80.1927C33.8008 80.235 34.0066 80.2651 34.2366 80.3162C34.0942 80.3832 33.9743 80.4486 33.832 80.5156C33.6455 80.4387 33.492 80.3481 33.3851 80.2767C33.4076 80.2751 33.4181 80.263 33.4406 80.2614ZM36.8232 79.4476C36.8721 79.659 36.8728 79.8287 36.8839 79.9864C36.6385 80.1968 36.4349 80.3588 36.2957 80.4709L36.3135 80.4017L36.3344 80.3775C36.3344 80.3775 36.3239 80.3896 36.3135 80.4017C36.6112 80.1309 36.8969 79.8496 36.3353 80.2303L36.3572 80.0589C36.3781 80.0348 36.4111 80.021 36.432 79.9969C36.4215 80.009 36.3781 80.0348 36.3572 80.0589L36.3644 80.0018C36.3749 79.9897 36.4184 79.9639 36.4288 79.9518C36.4288 79.9518 36.3854 79.9777 36.3644 80.0018L36.3847 79.8079C36.5432 79.6492 36.7049 79.5355 36.8232 79.4476ZM36.8048 79.347C36.8184 79.38 36.8096 79.4146 36.8232 79.4476C36.5851 79.6008 36.7211 79.4437 36.8048 79.347ZM39.521 80.4723C39.521 80.4723 39.533 80.4827 39.521 80.4723C39.5226 80.4948 39.5226 80.4948 39.521 80.4723ZM40.1228 80.0207C40.1107 80.0103 40.1212 79.9982 40.1196 79.9757C40.1316 79.9861 40.1316 79.9861 40.1316 79.9861C40.1332 80.0086 40.1228 80.0207 40.1228 80.0207ZM40.1091 79.9877L40.1123 80.0328C40.0752 80.1487 40.0156 80.2662 39.9681 80.3942L39.9144 80.1152C39.9756 80.0202 40.0054 79.9614 40.0295 79.9823C40.04 79.9702 40.04 79.9702 40.0384 79.9477C40.073 79.9564 40.0971 79.9773 40.1091 79.9877ZM39.7311 80.0833L39.7191 80.0729L39.7311 80.0833C39.7102 80.1075 39.7118 80.13 39.7118 80.13C39.7102 80.1075 39.707 80.0625 39.7054 80.04C39.6934 80.0295 39.6813 80.0191 39.6797 79.9966C39.7007 79.9724 39.7095 79.9378 39.7289 79.8911C39.7514 79.8895 39.7964 79.8862 39.8189 79.8845C39.7787 79.9554 39.7505 80.0367 39.7311 80.0833ZM39.6217 81.2572C39.6096 81.2467 39.608 81.2242 39.608 81.2242C39.6347 81.1204 39.6629 81.0391 39.6927 80.9803C39.7063 81.0133 39.7079 81.0358 39.7095 81.0583C39.6813 81.1396 39.6515 81.1984 39.6217 81.2572ZM39.5566 81.1374C39.543 81.1045 39.5414 81.0819 39.5173 81.0611C39.556 80.9677 39.5721 80.876 39.6108 80.7826C39.626 80.8381 39.6517 80.8815 39.667 80.9369L39.5566 81.1374ZM39.427 81.3846L39.3972 81.4434C39.4061 81.4088 39.427 81.3846 39.4254 81.3621C39.4149 81.3742 39.427 81.3846 39.427 81.3846ZM39.7789 80.759C39.7877 80.7243 39.7982 80.7123 39.8175 80.6656L39.7773 80.7364C39.7604 80.6584 39.7436 80.5804 39.7388 80.5129C39.7582 80.4662 39.788 80.4074 39.8073 80.3607L39.8955 80.6485C39.8673 80.7298 39.8375 80.7886 39.7973 80.8595C39.7836 80.8265 39.782 80.804 39.7789 80.759ZM33.413 80.5124L33.7226 80.5689C33.6896 80.5827 33.6566 80.5964 33.6132 80.6222C33.5545 80.5926 33.4958 80.5629 33.413 80.5124ZM36.2469 80.2594C36.1825 80.3094 36.0763 80.4078 35.9266 80.5319C35.913 80.499 35.8993 80.466 35.8857 80.4331C35.9919 80.3347 36.1311 80.2227 36.2582 80.1002L36.2469 80.2594ZM36.258 80.4171L36.2371 80.4413L36.258 80.4171L36.2507 80.4742C36.122 80.5742 36.0367 80.6483 36.0037 80.6621C36.0037 80.6621 36.0037 80.6621 35.9917 80.6517C36.0231 80.6154 36.1188 80.5291 36.225 80.4308L35.9901 80.6291L35.978 80.6187C36.0858 80.5429 36.1711 80.4687 36.258 80.4171ZM35.8213 80.483C35.835 80.516 35.8486 80.549 35.8518 80.594C35.6064 80.8044 35.2966 81.0648 34.9643 81.3268C34.9402 81.3059 34.9161 81.2851 34.9041 81.2746C35.139 81.0763 35.2991 80.9401 35.8213 80.483ZM33.487 84.7627L33.4749 84.7522C33.4749 84.7522 33.4959 84.728 33.4838 84.7176C33.5063 84.716 33.5393 84.7022 33.5739 84.711C33.5425 84.7473 33.5095 84.761 33.487 84.7627ZM32.6459 85.8316C32.6684 85.83 32.6805 85.8404 32.6909 85.8283C32.6596 85.8646 32.6386 85.8887 32.6072 85.925C32.5847 85.9267 32.5727 85.9162 32.5502 85.9179C32.5815 85.8816 32.6025 85.8574 32.6459 85.8316ZM32.6884 85.953C32.7198 85.9168 32.7512 85.8805 32.7931 85.8322C32.8067 85.8651 32.8083 85.8876 32.8219 85.9206C32.8115 85.9327 32.801 85.9448 32.7801 85.9689C32.7576 85.9706 32.711 85.9514 32.6884 85.953ZM33.9988 82.0767C34.0439 82.0734 34.0873 82.0475 34.1203 82.0338C33.9916 82.1338 33.8628 82.2338 33.7671 82.32C33.755 82.3096 33.7655 82.2975 33.7534 82.2871C33.8283 82.225 33.924 82.1387 33.9988 82.0767ZM35.6352 82.0133C35.6489 82.0463 35.6609 82.0567 35.673 82.0672C35.6746 82.0897 35.6777 82.1347 35.6793 82.1572C35.6584 82.1814 35.6375 82.2056 35.6166 82.2297C35.582 82.221 35.5579 82.2001 35.5852 82.266C35.289 82.5593 34.9824 82.8648 34.6533 83.1718C34.6381 83.1164 34.6124 83.073 34.5867 83.0296C34.874 82.7709 35.088 82.5967 35.0268 82.6917C35.0759 82.5863 35.3391 82.3067 35.6352 82.0133ZM35.8642 82.2116L35.8747 82.1995C35.8972 82.1979 35.8972 82.1979 35.9197 82.1962L35.8779 82.2446C35.8658 82.2341 35.8538 82.2237 35.8642 82.2116ZM34.5619 83.9595C34.5708 83.9249 34.5692 83.9024 34.5901 83.8782C34.8098 83.6244 35.019 83.3827 35.2178 83.1531C35.0175 83.3602 34.8171 83.5673 34.6883 83.6673C34.9724 83.3635 35.2026 83.0976 35.37 82.9043C35.5269 82.723 35.1487 83.1355 34.6836 83.5997L35.4578 82.7054C35.4851 82.7713 35.5003 82.8268 35.5171 82.9048C35.2362 83.2536 34.9224 83.6162 34.5876 84.0029C34.5876 84.0029 34.586 83.9804 34.5619 83.9595ZM35.5535 82.6192L35.6896 82.4621C35.7153 82.5055 35.7409 82.5489 35.7682 82.6148C35.7369 82.651 35.695 82.6994 35.6636 82.7356C35.6379 82.6922 35.6018 82.6609 35.5535 82.6192ZM35.7803 82.6252C35.7923 82.6356 35.7819 82.6477 35.806 82.6686C35.7826 82.8175 35.748 82.8087 35.6877 82.7565L35.7803 82.6252ZM35.8795 82.2671L35.9213 82.2187C35.9277 82.3088 35.9461 82.4093 35.9493 82.4544C35.9236 82.411 35.9068 82.333 35.8795 82.2671ZM35.6079 81.9474L34.5442 82.9082C34.5442 82.9082 34.5321 82.8978 34.5426 82.8857C35.3457 82.0798 35.4399 81.9711 35.5863 81.8019C35.5911 81.8694 35.5943 81.9145 35.6079 81.9474ZM33.927 82.5007L33.9044 82.5023C33.8924 82.4919 33.8803 82.4815 33.8787 82.459L35.0116 81.5158C35.0341 81.5141 35.0582 81.535 35.0928 81.5438C34.7501 81.8179 34.355 82.1524 33.927 82.5007ZM33.8667 82.4485C33.8305 82.4172 33.8169 82.3843 33.8048 82.3738C34.1894 82.0514 34.5652 81.7635 34.8974 81.5015C34.92 81.4998 34.9441 81.5207 34.9786 81.5295L33.8667 82.4485ZM35.0246 81.379C35.3673 81.1049 35.6562 80.8686 35.8927 80.6929C35.9048 80.7033 35.8943 80.7154 35.9064 80.7258L35.0744 81.4432C35.0487 81.3999 35.0366 81.3894 35.0246 81.379ZM34.7937 81.4751C34.5902 81.6372 34.3987 81.8097 34.2056 81.9596C34.2265 81.9355 34.2354 81.9009 34.2322 81.8558C34.4237 81.6833 34.5734 81.5592 34.6796 81.4609C34.7367 81.468 34.7592 81.4663 34.7937 81.4751ZM30.5769 88.0998C30.5889 88.1102 30.5994 88.0981 30.6114 88.1085C30.5696 88.1569 30.5157 88.1948 30.4738 88.2431C30.4827 88.2085 30.535 88.1481 30.5769 88.0998ZM33.6758 85.0318C33.6291 85.0126 33.6275 84.99 33.5809 84.9708C33.6018 84.9467 33.6123 84.9346 33.6332 84.9104L33.7595 84.9351C33.7281 84.9714 33.7071 84.9955 33.6758 85.0318ZM33.8029 84.9093L33.6976 84.8604C33.7395 84.8121 33.7708 84.7758 33.8127 84.7275C33.8577 84.7242 33.8923 84.733 33.9494 84.7401C33.9075 84.7884 33.8552 84.8489 33.8029 84.9093ZM35.0502 83.6634L35.534 82.9828C35.5476 83.0158 35.5508 83.0608 35.566 83.1163C35.418 83.263 35.249 83.4338 35.0502 83.6634ZM36.0682 82.5362C36.0482 82.4132 36.0177 82.3022 35.9873 82.1913C36.0878 82.1726 36.2092 82.1297 36.3275 82.0418C36.3428 82.0973 36.358 82.1528 36.3732 82.2083C36.2895 82.3049 36.1954 82.4137 36.0682 82.5362ZM36.4422 81.4222C36.4526 81.4102 36.4526 81.4102 36.4631 81.3981C36.4526 81.4102 36.4422 81.4222 36.4422 81.4222ZM36.2545 81.8095C36.2095 81.8128 36.1854 81.7919 36.1524 81.8057C36.1838 81.7694 36.2047 81.7452 36.2136 81.7106C36.2377 81.7315 36.2409 81.7765 36.2545 81.8095ZM36.0382 81.7914C35.9916 81.7722 35.9554 81.7409 35.9313 81.72C36.0271 81.6338 36.0899 81.5612 36.1526 81.4887C36.1679 81.5442 36.1815 81.5772 36.1968 81.6326C36.1429 81.6705 36.0905 81.731 36.0382 81.7914ZM36.1511 81.4662L35.9072 81.6991C35.8711 81.6678 35.8558 81.6123 35.8285 81.5464C35.8495 81.5223 35.8599 81.5102 35.8809 81.486C35.8599 81.5102 35.8495 81.5223 35.8285 81.5464C35.8117 81.4684 35.7949 81.3904 35.8199 81.2641C35.7781 81.3124 35.7587 81.3591 35.7289 81.4179C35.688 81.319 35.6366 81.2323 35.59 81.213C35.6398 81.2773 35.6687 81.3657 35.7201 81.4525C35.6694 81.5355 35.6516 81.6047 35.6234 81.686C35.6114 81.6755 35.5993 81.6651 35.5888 81.6772C35.6025 81.7101 35.6041 81.7327 35.6057 81.7552C35.6057 81.7552 35.6073 81.7777 35.5968 81.7898C35.1526 82.2298 34.7816 82.5852 34.496 82.8665C34.4823 82.8335 34.4462 82.8022 34.4221 82.7813C34.7407 82.4863 34.9008 82.3501 34.7439 82.5314C35.8447 81.4547 35.2283 82.0205 34.41 82.7709C34.3843 82.7275 34.3481 82.6962 34.3225 82.6528C34.4077 82.5787 34.4826 82.5166 34.5558 82.432L34.5574 82.4545C34.8085 82.1645 34.9204 81.9865 34.733 82.0568C34.6236 82.1101 34.3855 82.2634 34.0202 82.5391L33.9631 82.532C34.3372 82.2216 34.7203 81.8767 35.0839 81.5784C35.1426 81.608 35.1997 81.6152 35.2584 81.6448C35.2102 81.6031 35.1845 81.5597 35.1362 81.5179C35.4774 81.2213 35.7663 80.9851 35.9264 80.8488C36.0066 81.0241 36.0781 81.2339 36.1511 81.4662ZM35.9368 80.8368C35.8081 80.9367 35.5313 81.1834 35.1347 81.4954C35.1226 81.485 35.0985 81.4641 35.0864 81.4537L35.9095 80.7708C35.9337 80.7917 35.9352 80.8142 35.9368 80.8368ZM35.872 80.4001C35.8704 80.3776 35.8584 80.3671 35.8447 80.3342C36.0274 80.1963 36.1561 80.0963 36.2639 80.0205L36.2566 80.0776C36.1729 80.1743 36.0338 80.2864 35.872 80.4001ZM35.8077 80.4501C35.5068 80.6759 35.164 80.95 34.8092 81.2137C34.7851 81.1928 34.773 81.1824 34.7385 81.1736C35.1037 80.8978 35.469 80.622 35.7699 80.3963C35.8045 80.405 35.8061 80.4276 35.8077 80.4501ZM34.5083 81.4394C34.39 81.5273 34.2822 81.6031 34.1744 81.679C34.1503 81.6581 34.1383 81.6477 34.1262 81.6372C34.2115 81.5631 34.3089 81.4993 34.4062 81.4356C34.4287 81.434 34.4737 81.4307 34.5083 81.4394ZM33.9832 81.5345C34.0371 81.4966 34.1119 81.4345 34.1883 81.395L34.2004 81.4054C34.1014 81.4466 34.0371 81.4966 33.9832 81.5345ZM29.4795 87.784L29.4691 87.7961L29.4795 87.784ZM30.6235 88.119C30.6701 88.1382 30.7167 88.1574 30.7513 88.1662C30.6701 88.1382 30.6869 88.2162 30.719 88.3497L30.2805 88.71C30.2548 88.6666 30.2275 88.6007 30.1898 88.5469C30.3378 88.4002 30.4754 88.2657 30.6235 88.119ZM34.3186 87.7237C34.292 87.8275 34.267 87.9539 34.2403 88.0577C34.1737 87.9154 34.1191 87.7836 34.075 87.6397C34.4662 87.0904 34.4057 87.3551 34.3186 87.7237ZM34.425 88.429C34.4684 88.4032 34.5208 88.3427 34.5731 88.2823L34.6013 88.201C34.6461 88.5146 34.6106 88.6531 34.425 88.429ZM36.5022 82.9119C36.478 82.891 36.4539 82.8701 36.4419 82.8597C36.4612 82.813 36.4926 82.7767 36.5224 82.718C36.536 82.7509 36.5392 82.796 36.5529 82.8289C36.544 82.8635 36.5231 82.8877 36.5022 82.9119ZM36.9296 81.2733C36.928 81.2508 36.9264 81.2283 36.9143 81.2179C36.94 81.2613 36.9537 81.2942 36.9794 81.3376C36.9537 81.2942 36.9537 81.2942 36.9296 81.2733ZM36.847 80.9059C36.8181 80.8175 36.8102 80.7049 36.7845 80.6615C36.7909 80.7515 36.7972 80.8416 36.802 80.9092L36.8036 80.9317C36.7897 81.2157 36.6914 81.4266 36.62 81.2168L36.5739 80.5637C36.3851 80.2946 36.51 81.1004 36.4704 81.3409C36.4494 81.3651 36.439 81.3772 36.4181 81.4014C36.3714 81.3821 36.3216 81.3179 36.2398 81.1202C36.2157 81.0993 36.1113 80.9032 36.0278 80.683L36.2628 80.4846L36.2407 80.973L36.2837 80.4605L36.8719 79.976C36.8837 80.3033 36.8441 80.5439 36.9298 80.9564C36.9057 80.9355 36.8711 80.9268 36.847 80.9059ZM36.2639 80.0205C36.1666 80.0842 36.0049 80.1979 35.8327 80.3237C35.807 80.2804 35.7934 80.2474 35.7813 80.237C35.9535 80.1112 36.1256 79.9854 36.2753 79.8612L36.2639 80.0205ZM35.7893 80.3496C35.5736 80.5012 35.3355 80.6545 35.0765 80.8319C34.9357 80.9214 34.7844 81.0231 34.6541 81.1005C34.6421 81.0901 34.63 81.0797 34.6195 81.0917C34.9743 80.8281 35.3726 80.5386 35.7708 80.2491C35.7604 80.2611 35.7636 80.3062 35.7893 80.3496ZM34.1171 80.8682C34.0585 80.8386 33.9773 80.8106 33.8945 80.76C34.0787 80.6447 34.275 80.5398 34.4802 80.4002C34.5614 80.4282 34.6425 80.4562 34.7253 80.5068C34.5202 80.6463 34.3134 80.7633 34.1171 80.8682ZM27.7945 87.319C27.6223 87.4448 27.4936 87.5447 27.4936 87.5447C27.6014 87.4689 27.6867 87.3948 27.7945 87.319ZM32.3654 88.9081C32.3581 88.9653 32.3701 88.9757 32.3613 89.0103C32.2858 88.9026 32.2087 88.7725 32.1211 88.6544C32.5025 88.2869 32.1104 88.9834 32.5102 88.7164L32.3654 88.9081ZM34.0845 90.0159L34.1086 90.0367L34.0845 90.0159C34.0676 89.9379 34.0676 89.9379 34.0708 89.9829C33.9817 89.8423 33.9014 89.6671 33.8211 89.4919C33.6167 88.6806 33.8507 88.6295 33.798 88.2033C33.9322 88.3406 33.8942 88.6037 34.0547 88.9541L33.9636 88.3043C34.1048 88.7014 34.2742 89.0173 34.3954 89.2913C34.281 89.594 34.1891 89.895 34.1165 90.1493C34.0908 90.1059 34.0756 90.0505 34.0845 90.0159ZM34.4477 90.3514C34.4477 90.3514 34.4581 90.3393 34.4477 90.3514C34.4718 90.3723 34.4718 90.3723 34.4477 90.3514ZM38.8083 88.1644C38.8292 88.1402 38.8502 88.116 38.8711 88.0919C38.867 88.194 38.8461 88.2182 38.8083 88.1644ZM46.4919 78.0713C46.5017 77.8895 46.4723 77.3144 46.6199 77.8016C46.78 78.7859 46.6461 78.3316 46.4919 78.0713ZM48.8165 77.0181C48.8181 77.0406 48.8197 77.0631 48.8092 77.0752C48.7956 77.0423 48.7956 77.0423 48.7715 77.0214C48.794 77.0198 48.794 77.0198 48.8165 77.0181ZM52.91 77.1369L53.0147 77.0161C53.0194 77.0836 53.0363 77.1616 53.041 77.2292C53.0192 77.4006 52.9869 77.584 52.9666 77.7779L52.91 77.1369ZM54.5951 76.4815C54.6208 76.5249 54.6449 76.5457 54.6706 76.5891C54.6665 76.6913 54.6383 76.7726 54.6158 76.7742L54.5951 76.4815ZM54.7566 76.6847C54.7807 76.7056 54.8032 76.7039 54.8273 76.7248C54.8216 76.8044 54.8191 76.9291 54.8303 77.0868L54.7566 76.6847ZM55.1882 76.8681C55.3215 77.1526 55.3108 77.4816 55.2503 77.7464C55.2262 77.7255 55.2262 77.7255 55.2005 77.6821C55.1036 77.112 55.1255 76.9406 55.1882 76.8681ZM52.4233 77.4555C52.4129 77.4676 52.4129 77.4676 52.4249 77.4781L52.437 77.4885C52.4681 77.7692 52.4511 78.0081 52.3851 78.0356C52.3714 78.0026 52.3819 77.9905 52.3578 77.9697C52.3676 77.7879 52.3999 77.6044 52.4249 77.4781C52.3117 77.3166 52.2594 77.377 52.2191 77.4479C52.2007 77.3474 52.1645 77.316 52.0792 77.3902C52.0449 77.0645 52.009 76.7163 52.0251 76.6245C52.0356 76.6124 52.0356 76.6124 52.0581 76.6108C52.0822 76.6317 52.1216 76.708 52.205 76.9283C52.1955 76.7931 52.1755 76.6701 52.1554 76.5471C52.1884 76.5333 52.2319 76.5075 52.2648 76.4938C52.3306 76.7832 52.3906 77.1523 52.4233 77.4555ZM48.542 76.3365L48.5404 76.314C48.6553 76.498 48.7822 76.6924 48.8085 76.9055L48.542 76.3365ZM46.2652 76.9447C46.4096 77.3869 46.5178 77.7977 46.4798 78.0608C46.4011 77.9082 46.3304 77.8681 46.3076 78.1866L46.2747 78.2004C46.2074 77.8884 46.1407 77.7461 46.0925 77.7044C46.0718 77.4116 46.1178 77.2611 46.3989 77.7159C46.3468 77.4594 46.3397 77.1996 46.2652 76.9447ZM42.0837 79.2658C42.0444 79.1895 42.0196 78.9989 41.9812 78.7753L42.0837 79.2658ZM41.2368 78.4903C41.2045 78.6738 41.1858 78.8902 41.1599 79.1637L41.1338 78.6337C41.1579 78.6546 41.1692 78.4953 41.1934 78.5161C41.1918 78.4936 41.1813 78.5057 41.1918 78.4936C41.2022 78.4815 41.2143 78.492 41.2368 78.4903ZM40.3007 78.6947C40.366 78.4975 40.4344 78.3454 40.4699 78.207C40.5888 78.2888 40.744 78.4019 40.9514 78.4546L40.8624 79.1176L40.9514 78.4546C40.9859 78.4634 41.031 78.4601 41.076 78.4568C40.9582 79.0314 40.7593 80.3815 40.5995 80.2008C40.5417 80.024 40.5597 79.6378 40.683 79.3006L40.3406 80.0613C40.3045 80.03 40.4271 79.523 40.4753 79.5648L40.1703 79.8927L40.1985 79.8114C40.1792 79.8581 40.1614 79.9273 40.1421 79.974C40.118 79.9531 40.0939 79.9323 40.0577 79.901C40.8921 77.1347 39.6542 80.7568 40.0575 79.0974L40.3007 78.6947ZM39.8753 79.7219L39.8649 79.734C39.8649 79.734 39.8649 79.734 39.8528 79.7236L39.836 79.6456C39.9479 79.4676 40.0075 79.35 39.8753 79.7219ZM39.8271 79.6802L39.8287 79.7027L39.8167 79.6923C39.8287 79.7027 39.8167 79.6923 39.8271 79.6802ZM39.6572 79.9982L39.6452 79.9878C39.6524 79.9307 39.6509 79.9081 39.6404 79.9202C39.6629 79.9186 39.6854 79.9169 39.6975 79.9274C39.687 79.9394 39.6661 79.9636 39.6572 79.9982ZM39.6074 79.934C39.5954 79.9235 39.5833 79.9131 39.5713 79.9027C39.5938 79.901 39.6163 79.8994 39.6283 79.9098C39.6283 79.9098 39.6179 79.9219 39.6074 79.934ZM39.372 79.6456L39.3413 79.8516C39.2906 79.9345 39.2399 80.0175 39.2012 80.1109C39.1876 80.0779 39.2649 79.8911 39.372 79.6456ZM39.4223 80.1965C39.4223 80.1965 39.4239 80.2191 39.4359 80.2295C39.4061 80.2883 39.3747 80.3245 39.3345 80.3954C39.3627 80.3141 39.3925 80.2553 39.4223 80.1965ZM38.6367 80.1296C38.6961 80.329 38.6165 80.3235 38.5128 80.2971C38.5771 80.2471 38.6069 80.1884 38.6367 80.1296ZM38.4218 80.4509L38.4852 80.5482C38.3613 80.7157 38.1939 80.9091 38.0385 81.1128C38.0385 81.1128 38.0265 81.1024 38.0369 81.0903C38.1352 80.8794 38.2785 80.6652 38.4218 80.4509ZM37.9348 81.0865L37.926 81.1211C37.9139 81.1107 37.9348 81.0865 37.9348 81.0865ZM37.9653 81.1974C37.9548 81.2095 37.9548 81.2095 37.9444 81.2216C37.9444 81.2216 37.9548 81.2095 37.9653 81.1974ZM37.4672 81.6754C37.3537 81.8308 37.2297 81.9984 37.1267 82.1417C37.0962 82.0308 37.0778 81.9303 37.0594 81.8297C37.1697 81.6293 37.2084 81.5359 37.0289 81.7188C37.0273 81.6963 37.0153 81.6858 37.0137 81.6633C37.1392 81.5183 37.2632 81.3508 37.3872 81.1832C37.4224 81.3617 37.444 81.5073 37.4672 81.6754ZM37.3824 81.1157C37.2359 81.2848 37.0983 81.4194 36.9937 81.5403C36.9921 81.5178 36.98 81.5073 36.9905 81.4952L37.0954 81.0575C37.0713 81.0366 37.0488 81.0382 37.0246 81.0174L37.1268 79.9007C37.2182 80.2335 37.3055 80.6686 37.3824 81.1157ZM36.7238 79.0021C36.7375 79.0351 36.7391 79.0576 36.7527 79.0905C36.7422 79.1026 36.7422 79.1026 36.7318 79.1147C36.7422 79.1026 36.7422 79.1026 36.7648 79.101C36.78 79.1564 36.7848 79.224 36.8 79.2795L36.4138 79.5794L36.43 79.4877L36.2924 79.6223L36.2851 79.6794L36.1129 79.8052C36.3028 79.6102 35.8564 79.858 35.2257 80.2211C35.1879 80.1673 35.1261 80.0926 35.0658 80.0404C35.2171 79.9388 35.3699 79.8597 35.5107 79.7701C35.5678 79.7772 35.6128 79.7739 35.6819 79.7915C35.6353 79.7723 35.6007 79.7635 35.5541 79.7443C36.0199 79.4498 36.3988 79.207 36.5155 79.0966C36.2653 79.2394 35.8728 79.4493 35.4158 79.7091C35.3105 79.6603 35.1948 79.6235 35.1136 79.5955C35.827 79.2829 36.4625 78.9873 36.9001 78.7741C37.234 78.5346 37.4632 78.416 37.604 78.3264C37.6402 78.3577 37.6675 78.4236 37.6932 78.467C37.3247 78.6978 37.1662 78.8565 36.8187 79.0631L36.7238 79.0021ZM37.6932 78.467L37.7052 78.4775C37.6409 78.5275 37.6288 78.517 37.6932 78.467ZM38.1069 77.9161C38.02 77.9677 37.9211 78.0089 37.8342 78.0606C37.8221 78.0501 37.8206 78.0276 37.8085 78.0172C37.9854 77.9589 38.1069 77.9161 38.1069 77.9161ZM37.408 78.1144C37.4441 78.1457 37.4698 78.1891 37.506 78.2204C36.9381 78.511 36.3115 78.772 35.7718 78.9813C35.6497 78.8545 35.4689 78.6979 35.9449 78.7083C35.8171 78.6611 35.7359 78.6331 35.6772 78.6034C35.7432 78.576 35.8091 78.5485 35.8751 78.521C35.9353 78.5732 36.0181 78.6237 36.1234 78.6726C36.4193 78.6962 36.216 78.5413 36.1059 78.4249C36.1614 78.4095 36.2049 78.3837 36.2603 78.3683C36.3641 78.3946 36.4919 78.4419 36.6888 78.5067C36.5144 78.4402 36.4091 78.3913 36.2933 78.3546C36.7011 78.2002 37.0759 78.0595 37.3068 77.9634C37.3188 77.9738 37.3204 77.9963 37.3325 78.0068C37.1676 78.0754 36.9802 78.1458 36.7164 78.2556C36.718 78.2782 37.063 78.1963 37.408 78.1144ZM35.6716 77.5626L36.133 77.6872C36.0775 77.7026 36.0445 77.7163 35.989 77.7317C35.9063 77.6812 35.8235 77.6307 35.6716 77.5626ZM37.2281 77.8107C37.2433 77.8662 37.269 77.9096 37.3068 77.9634C36.9079 78.0832 36.6329 78.0354 36.9506 77.8876L37.0391 77.8585L37.0737 77.8673C37.0616 77.8568 37.0616 77.8568 37.0496 77.8464L37.2281 77.8107ZM37.4922 77.3839C37.4519 77.4547 37.386 77.4822 37.2734 77.4905C37.2943 77.4663 37.3932 77.4251 37.4922 77.3839ZM36.2545 77.6443C36.1355 77.5625 36.0286 77.4911 36.048 77.4444L36.4089 77.5878C36.355 77.6257 36.2995 77.641 36.2545 77.6443ZM34.7361 77.9367C35.1671 77.9504 34.5144 77.6813 34.9679 77.6933C35.2219 77.7653 35.3618 77.8229 35.4791 77.8823C35.1237 77.9762 34.7698 78.0927 34.4038 78.1987C34.2744 78.129 34.133 78.0488 34.014 77.967L34.1475 77.9346L34.1653 77.8653L33.9538 77.9148C33.7745 77.7808 33.6765 77.6748 33.7393 77.6023C33.8398 77.5836 33.9283 77.5545 34.0184 77.5479C34.2635 77.6544 34.569 77.8131 34.7361 77.9367ZM36.058 76.9457C36.0114 76.9265 36.0098 76.9039 36.0082 76.8814C36.0653 76.8886 36.1449 76.894 36.2124 76.8891C36.169 76.9149 36.136 76.9287 36.058 76.9457ZM36.738 76.1602C36.7276 76.1722 36.7396 76.1827 36.7292 76.1948C36.6826 76.1755 36.6375 76.1788 36.6014 76.1475C36.6705 76.1651 36.693 76.1635 36.738 76.1602ZM36.1018 74.3619C36.6212 74.3465 36.4973 74.514 36.6314 74.6513C36.3654 74.5689 36.1773 74.4695 36.1018 74.3619ZM31.6972 65.5168C31.7873 65.5102 31.8323 65.5069 31.8114 65.5311C31.7889 65.5327 31.7664 65.5344 31.7318 65.5256L31.6972 65.5168L31.6747 65.5184L31.6972 65.5168ZM31.1744 69.9693C31.3504 70.0582 31.5474 70.123 31.7459 70.2103C31.5553 70.2356 31.3343 70.15 31.196 70.1148C31.2394 70.089 31.2258 70.056 31.1744 69.9693ZM31.103 70.88C31.115 70.8904 31.1271 70.9008 31.1496 70.8992C30.7852 71.0277 30.9292 70.9832 31.103 70.88ZM27.4422 82.1723C27.4768 82.1811 27.4888 82.1915 27.5234 82.2003C27.4711 82.2607 27.4533 82.3299 27.4131 82.4008L27.2298 82.3689C27.2925 82.2964 27.3674 82.2344 27.4422 82.1723ZM27.1356 82.4777C27.1943 82.5074 27.2409 82.5266 27.2996 82.5562C27.1001 82.6161 27.0744 82.5727 27.1356 82.4777ZM25.4856 86.6732C25.583 86.6095 25.6787 86.5232 25.7761 86.4595C25.8991 86.4392 26.0431 86.3947 26.2184 86.3139C26.2425 86.3348 26.2771 86.3436 26.2892 86.354C26.0631 86.5177 25.8804 86.6556 25.7413 86.7677L25.4856 86.6732ZM27.1538 87.0603C27.1643 87.0482 27.1643 87.0482 27.1538 87.0603C26.9519 87.2449 26.8336 87.3328 26.8529 87.2861C26.9382 87.2119 27.0565 87.124 27.1538 87.0603Z" fill="white"/>
<path d="M42.9725 77.7518C42.9846 77.7623 42.9846 77.7623 42.9846 77.7623L42.9509 77.6063L42.9725 77.7518Z" fill="white"/>
<path d="M31.001 68.3181C30.7952 68.2879 30.5008 68.2868 30.5065 68.2072L30.6744 68.5005C30.6769 68.3758 30.8675 68.3505 31.001 68.3181Z" fill="white"/>
<path d="M69.3148 82.6918L69.2043 82.0887L69.1181 82.3101L69.3148 82.6918Z" fill="white"/>
<path d="M69.6233 80.9715L69.6144 82.1266L69.8234 81.0813C69.7591 81.1313 69.6529 81.2297 69.6233 80.9715Z" fill="white"/>
<path d="M40.4295 77.9609L40.8 77.1188L40.6332 77.4819C40.4472 77.8917 40.4488 77.9142 40.4295 77.9609Z" fill="white"/>
<path d="M41.6935 76.3063C41.6678 76.2629 41.6853 76.5106 41.6596 76.4672C41.6573 76.275 41.8879 77.6163 41.6935 76.3063Z" fill="white"/>
<path d="M30.7867 92.1928C30.8124 92.2362 30.8365 92.2571 30.8622 92.3005C30.8727 92.2884 30.8831 92.2763 30.9298 92.2955C30.6623 91.8737 30.7765 91.888 30.7867 92.1928Z" fill="white"/>
<path d="M30.8622 92.3006C30.8203 92.349 31.0903 92.6461 30.8622 92.3006V92.3006Z" fill="white"/>
<path d="M31.4196 92.8255C31.3796 92.5794 31.2254 92.3191 30.97 91.9077L31.1023 92.3394C31.2565 92.5997 31.3377 92.6277 31.4196 92.8255Z" fill="white"/>
<path d="M30.6274 91.0615L30.6747 91.2504C30.7277 91.3597 30.7518 91.3806 30.6274 91.0615Z" fill="white"/>
<path d="M30.6964 91.3959C30.5254 91.0575 30.6844 91.3854 30.7589 91.6403L30.6628 91.2399C30.56 91.0663 30.3648 90.7071 30.6964 91.3959Z" fill="white"/>
<path d="M30.1846 90.7203C30.1104 90.9521 30.5609 91.7227 30.6246 91.503C30.4495 91.2668 30.3169 91.152 30.1846 90.7203Z" fill="white"/>
<path d="M31.3249 91.6441C31.4381 91.8056 31.5707 91.9204 31.7433 92.2813C31.6358 92.0401 31.4149 91.6375 31.2576 91.3322L31.3249 91.6441Z" fill="white"/>
<path d="M31.2575 91.3321L31.1565 90.8641C31.0649 90.8482 31.1363 91.058 31.2575 91.3321Z" fill="white"/>
<path d="M32.1077 92.1526L32.3083 92.7491L32.0404 91.8406L32.1077 92.1526Z" fill="white"/>
<path d="M32.3307 91.9439C32.4903 92.4415 32.7257 92.7299 32.8051 93.0523C32.8421 92.9364 32.7323 92.503 32.6361 92.1026C32.6641 92.3382 32.5829 92.3102 32.3307 91.9439Z" fill="white"/>
<path d="M32.5149 91.5116C32.5349 91.6347 32.5733 91.8582 32.6463 92.0906C32.6263 91.9675 32.5926 91.8115 32.5149 91.5116Z" fill="white"/>
<path d="M31.4423 90.8998L31.3973 90.9031C31.476 91.0558 31.6502 91.4392 31.7843 91.5765L31.4423 90.8998Z" fill="white"/>
<path d="M31.4285 90.8668L31.4301 90.8893C31.4751 90.886 31.5202 90.8827 31.5322 90.8932C31.5322 90.8932 31.4977 90.8844 31.4285 90.8668Z" fill="white"/>
<path d="M31.3969 90.9032C31.3696 90.8373 31.3455 90.8164 31.3969 90.9032V90.9032Z" fill="white"/>
<path d="M32.0565 90.9453C31.9876 90.6108 32.0294 90.5625 32.0697 90.4916C31.9491 90.3873 31.8438 90.3384 31.7779 90.3659C31.8613 90.5861 31.9921 90.9953 32.0565 90.9453Z" fill="white"/>
<path d="M31.7212 90.8454L31.718 90.8004C31.6907 90.7345 31.6787 90.724 31.7212 90.8454Z" fill="white"/>
<path d="M32.7306 90.2395C32.717 90.2065 32.6913 90.1632 32.676 90.1077L32.7306 90.2395Z" fill="white"/>
<path d="M31.7112 90.2237C31.6011 90.1072 31.6484 90.2962 31.7094 90.5181C31.7151 90.4384 31.7328 90.3692 31.7883 90.3539C31.7474 90.255 31.7201 90.1891 31.7112 90.2237Z" fill="white"/>
<path d="M32.5555 91.1239C32.4664 90.9833 32.3909 90.8756 32.3154 90.768C32.4318 90.9745 32.6133 91.3008 32.5555 91.1239Z" fill="white"/>
<path d="M31.8103 90.986L31.824 91.019C31.9027 91.1717 31.8633 91.0953 31.8103 90.986Z" fill="white"/>
<path d="M31.8104 90.986C31.8025 90.8734 31.7447 90.6966 31.699 90.5301C31.6933 90.6098 31.6876 90.6894 31.7181 90.8004C31.7438 90.8438 31.7831 90.9201 31.8104 90.986Z" fill="white"/>
<path d="M32.3959 90.1395L32.3693 90.2433C32.4778 90.3373 32.6199 90.5872 32.88 91.0661C32.8441 90.7179 32.7695 90.463 32.6965 90.2307L32.4023 90.2296L32.3959 90.1395Z" fill="white"/>
<path d="M33.127 91.365L32.8552 90.2417L32.8687 90.5916L33.127 91.365Z" fill="white"/>
<path d="M33.1036 90.3933L33.3436 91.0661L33.2578 90.6536L33.1036 90.3933Z" fill="white"/>
<path d="M40.0337 88.2104C40.3034 88.8245 40.6541 89.7835 40.4528 89.0173L40.2307 88.2752C40.1968 88.4362 40.1124 88.3631 40.0337 88.2104Z" fill="white"/>
<path d="M64.7602 81.8145C64.7409 81.8612 64.6854 81.8766 64.6524 81.8903C64.6902 81.9441 64.7231 81.9304 64.7602 81.8145Z" fill="white"/>
<path d="M39.7052 80.0399L39.7188 80.0728L39.6915 80.0069L39.7052 80.0399Z" fill="white"/>
<path d="M50.2981 76.2077L50.2765 76.0622L50.2981 76.2077Z" fill="white"/>
<path d="M33.8311 90.9172L33.8812 90.6645C33.8289 90.725 33.7486 90.5498 33.6731 90.4421C33.7429 90.6294 33.8625 90.881 33.8311 90.9172Z" fill="white"/>
<path d="M38.059 80.602C38.0706 80.1258 38.2007 80.3653 37.8373 79.2261C37.5175 78.8647 38.0729 80.318 37.7452 79.8441C37.8204 80.2686 38.0215 80.2313 38.059 80.602Z" fill="white"/>
<path d="M65.6164 83.0421L65.4159 82.4456L65.4213 82.6829L65.6164 83.0421Z" fill="white"/>
<path d="M65.4267 81.3129L65.6654 82.4499L65.5577 81.4052C65.5279 81.464 65.5013 81.5678 65.4267 81.3129Z" fill="white"/>
<path d="M45.871 76.4982L45.6239 75.8825L45.6775 76.1615C45.7657 76.4493 45.8003 76.4581 45.871 76.4982Z" fill="white"/>
<path d="M47.6121 76.314L47.5776 76.3052L47.8639 77.3142L47.6121 76.314Z" fill="white"/>
<path d="M48.8445 74.6956C48.7633 74.6676 48.7462 74.9065 48.6876 74.8769C48.7738 74.6555 49.1378 75.9644 48.8445 74.6956Z" fill="white"/>
<path d="M30.7042 40.8929C30.7549 40.81 30.0472 41.043 29.9137 41.0754C30.076 41.1314 30.8812 40.8347 30.7042 40.8929Z" fill="white"/>
<path d="M32.5803 41.5024L32.2788 41.5584L33.0459 41.5248L32.5803 41.5024Z" fill="white"/>
<path d="M32.8099 42.5043C34.0292 42.1433 32.5158 42.1863 32.9261 41.9072L33.202 41.8077L32.1831 41.9616C32.388 42.139 33.1108 42.2785 32.8099 42.5043Z" fill="white"/>
<path d="M30.3508 43.4201C30.2953 43.4355 30.2623 43.4492 30.2293 43.4629C30.2414 43.4734 30.2446 43.5184 30.2252 43.5651C30.6917 43.4404 30.6578 43.6013 30.3508 43.4201Z" fill="white"/>
<path d="M30.2293 43.4629C30.1779 43.3762 29.8319 43.6052 30.2293 43.4629V43.4629Z" fill="white"/>
<path d="M30.5762 43.8903L30.1195 43.8332C29.842 43.9101 29.7945 44.0381 29.5677 44.0321C29.8338 44.1144 30.1234 44.0479 30.5762 43.8903Z" fill="white"/>
<path d="M31.5132 43.8555L31.3178 43.8133C31.2068 43.844 31.1634 43.8698 31.5132 43.8555Z" fill="white"/>
<path d="M31.1676 43.7677C31.5367 43.7067 31.1781 43.7556 30.9047 43.7304L31.3179 43.8133C31.5174 43.7534 31.9195 43.6786 31.1676 43.7677Z" fill="white"/>
<path d="M31.9573 43.4156C31.7372 43.1827 30.8807 43.3926 31.0888 43.615C31.351 43.4826 31.5006 43.3585 31.9573 43.4156Z" fill="white"/>
<path d="M34.1078 42.2959L34.4448 42.1014L34.0034 42.0998C34.2301 42.1059 33.7177 42.3811 34.1078 42.2959Z" fill="white"/>
<path d="M30.7817 44.5542C30.6064 44.635 30.4567 44.7591 30.0651 44.8218C30.3337 44.7795 30.7672 44.6685 31.1138 44.6091L30.7817 44.5542Z" fill="white"/>
<path d="M31.1019 44.5988L31.5947 44.6872C31.6182 44.5384 31.4035 44.5428 31.1019 44.5988Z" fill="white"/>
<path d="M32.9116 43.6285L31.9097 43.5435L32.9373 43.6719L32.9116 43.6285Z" fill="white"/>
<path d="M30.1153 45.3728L29.4713 45.3861L30.4458 45.4052L30.1153 45.3728Z" fill="white"/>
<path d="M30.2881 45.7337C29.7565 45.7387 29.4299 45.9211 29.1011 45.9112C29.2096 46.0051 29.6526 46.0293 30.0627 46.0671C29.8207 46.0056 29.8698 45.9002 30.2881 45.7337Z" fill="white"/>
<path d="M30.0507 46.0567C30.1769 46.0814 30.3602 46.1132 30.644 46.1264C30.5178 46.1017 30.2895 46.0732 30.0507 46.0567Z" fill="white"/>
<path d="M30.7469 45.1794L31.494 45.0228L31.4892 44.9552C31.3332 44.9893 30.9206 45.0761 30.7469 45.1794Z" fill="white"/>
<path d="M31.5166 45.0211L31.494 45.0228C31.4763 45.092 31.4795 45.137 31.469 45.1491C31.4795 45.137 31.4988 45.0903 31.5166 45.0211Z" fill="white"/>
<path d="M31.4997 44.9431C31.5672 44.9382 31.5897 44.9365 31.4997 44.9431V44.9431Z" fill="white"/>
<path d="M33.8218 44.0146C33.3023 44.0301 32.9516 44.1916 32.2818 44.1614C32.7353 44.1735 33.2088 44.3086 33.8218 44.0146Z" fill="white"/>
<path d="M32.5807 44.5471C32.3797 44.5844 32.0901 44.6509 31.8859 44.6433L32.4358 44.7388L32.5807 44.5471Z" fill="white"/>
<path d="M32.6763 44.7776L32.4238 44.7282L32.3836 44.7991L32.6763 44.7776Z" fill="white"/>
<path d="M31.3318 45.7704C31.6622 45.8028 31.7016 45.8791 31.7634 45.9538C31.9026 45.8417 31.9743 45.7346 31.9679 45.6445C31.7307 45.6506 31.3013 45.6594 31.3318 45.7704Z" fill="white"/>
<path d="M31.497 45.3847L31.5436 45.4039C31.5991 45.3885 31.62 45.3644 31.497 45.3847Z" fill="white"/>
<path d="M31.9712 46.81L31.8361 46.8199L31.8377 46.8424C31.8811 46.8166 31.9262 46.8133 31.9712 46.81Z" fill="white"/>
<path d="M32.1116 45.5999C32.2524 45.5104 32.0586 45.4906 31.8198 45.4742C31.9026 45.5247 31.9734 45.5648 31.9661 45.6219C32.0682 45.6258 32.1357 45.6208 32.1116 45.5999Z" fill="white"/>
<path d="M31.0201 46.3252C31.1745 46.2686 31.3064 46.2136 31.4263 46.1483C31.1938 46.2219 30.8279 46.3279 31.0201 46.3252Z" fill="white"/>
<path d="M31.332 45.4534L31.2975 45.4446C31.131 45.4907 31.209 45.4737 31.332 45.4534Z" fill="white"/>
<path d="M31.332 45.4534C31.4461 45.4677 31.6279 45.477 31.8096 45.4863C31.7388 45.4462 31.6577 45.4182 31.5435 45.404C31.488 45.4193 31.41 45.4364 31.332 45.4534Z" fill="white"/>
<path d="M34.5057 46.4885C34.8819 46.6873 34.2723 46.7093 33.92 46.8483C34.7902 46.6714 35.2225 47.0245 36.5132 46.8734L36.0486 46.7037C36.2512 46.6888 36.5712 46.7333 36.7466 46.6525C36.0365 46.6932 35.3709 46.5609 36.1116 46.3142C35.5706 46.1841 33.2762 46.5446 31.9935 46.8084C32.3087 46.7853 32.5893 46.7534 33.0178 46.8918C33.3717 46.7753 33.8552 46.4117 34.5057 46.4885Z" fill="white"/>
<path d="M31.8463 46.8079L31.9125 46.4635L32.0266 46.4777L31.9318 46.4168C31.8135 46.5047 31.5481 46.592 30.9932 46.7459C31.3493 46.8216 31.5986 46.826 31.8463 46.8079Z" fill="white"/>
<path d="M31.4715 46.1449C31.5721 46.1263 31.6276 46.1109 31.5841 46.1367L31.5962 46.1471C31.7088 46.1389 31.7988 46.1323 31.8889 46.1257C31.7376 46.2273 31.6878 46.1631 31.5962 46.1471L31.4715 46.1449L31.9216 46.4289C32.0294 46.3531 32.0006 46.2646 31.8889 46.1257C32.656 46.0921 33.0049 46.225 33.8059 46.0305C33.7345 45.8207 33.1555 45.9536 32.8098 45.8658C33.0242 46.1783 32.3772 45.8296 31.9669 46.1086C31.8391 46.0614 31.7788 46.0093 31.7531 45.9659C31.6678 46.04 31.548 46.1054 31.4281 46.1708L31.4715 46.1449Z" fill="white"/>
<path d="M35.0534 44.1507C34.9393 44.1364 34.6361 44.17 34.6973 44.0749C34.9161 43.9684 35.0664 44.0139 35.3125 43.9733C35.0962 43.9552 34.7401 43.8794 34.4046 44.0964L34.5067 44.1002C34.2702 44.276 33.342 44.593 33.2399 44.5892C33.909 44.4496 34.3875 44.3353 35.0534 44.1507Z" fill="white"/>
<path d="M34.7393 45.1471L34.3476 45.2098C34.482 45.0301 33.9915 45.134 33.6867 45.145L34.099 45.3751L34.7393 45.1471Z" fill="white"/>
<path d="M31.4561 46.893L30.6439 46.9299L31.8018 46.9809L31.4561 46.893Z" fill="white"/>
<path d="M31.3062 47.3341L31.582 47.2347L30.872 47.2754L31.3062 47.3341Z" fill="white"/>
<path d="M38.5345 68.4339C38.709 68.5003 38.8472 68.5355 38.8682 68.5113L38.5345 68.4339Z" fill="white"/>
<path d="M31.6785 55.9654C31.0167 56.0479 29.9914 56.1117 30.7859 56.144L31.5562 56.1555C31.4252 56.0632 31.5121 56.0116 31.6785 55.9654Z" fill="white"/>
<path d="M35.6392 62.6926L35.8765 62.6865C35.612 62.6267 35.3804 62.5531 35.1505 62.502C35.3129 62.558 35.4753 62.6141 35.6392 62.6926Z" fill="white"/>
<path d="M38.7862 72.7956L39.529 73.0581C39.5629 72.8972 39.1544 72.8818 38.7862 72.7956Z" fill="white"/>
<path d="M32.0394 50.823C31.741 50.9241 31.6227 51.012 31.5825 51.0829C32.0264 50.9598 32.6971 50.8427 32.0394 50.823Z" fill="white"/>
<path d="M31.5824 51.0829C31.2494 51.1752 31.0531 51.2802 31.5805 51.3773C31.6585 51.3603 31.6915 51.3466 31.7575 51.3191C31.6385 51.2373 31.5437 51.1763 31.5824 51.0829Z" fill="white"/>
<path d="M36.3884 52.1569C36.5339 52.1349 36.5114 52.1365 36.3884 52.1569V52.1569Z" fill="white"/>
<path d="M31.3474 48.5535C31.3788 48.5172 31.3997 48.493 31.4102 48.481C31.2855 48.4788 31.2075 48.4958 31.3474 48.5535Z" fill="white"/>
<path d="M31.4767 48.6232C31.4212 48.6386 31.3882 48.6523 31.3537 48.6436C31.3778 48.6644 31.3794 48.6869 31.3946 48.7424C31.381 48.7095 31.4228 48.6611 31.4767 48.6232Z" fill="white"/>
<path d="M34.7359 77.9366C34.7134 77.9383 34.6909 77.94 34.6563 77.9312C34.9513 78.102 34.9136 78.0481 34.7359 77.9366Z" fill="white"/>
<path d="M39.542 58.6714L39.5074 58.6627L39.4744 58.6764L39.542 58.6714Z" fill="white"/>
<path d="M40.0767 59.0286C39.1328 58.8034 39.2647 58.7485 39.4747 58.6765L37.2386 58.5801L40.0767 59.0286Z" fill="white"/>
<path d="M38.6463 72.7379C38.6358 72.75 38.6358 72.75 38.6463 72.7379L38.7861 72.7955L38.6463 72.7379Z" fill="white"/>
<path d="M39.764 53.3243C39.6321 53.3792 39.476 53.4133 39.3184 53.4248C39.5347 53.4429 39.7028 53.4193 39.764 53.3243Z" fill="white"/>
<path d="M31.4258 47.9025C31.2231 47.9174 30.9441 47.9718 30.9184 47.9284L31.1547 48.0695C31.1033 47.9827 31.2923 47.9349 31.4258 47.9025Z" fill="white"/>
<path d="M36.0894 45.999C35.9752 45.9848 36.0741 45.9435 35.9599 45.9293L35.5562 45.9815C35.6092 46.0908 35.9292 46.1353 36.0894 45.999Z" fill="white"/>
<path d="M34.0766 47.301C33.0618 47.3527 33.4075 47.4405 33.7548 47.5509C34.4737 47.4756 34.2196 47.4037 34.0766 47.301C34.0766 47.301 34.0886 47.3114 34.0766 47.301Z" fill="white"/>
<path d="M34.0402 47.2696C34.004 47.2383 33.9783 47.1949 34.0097 47.1586C33.6149 47.1762 33.9453 47.2086 34.0402 47.2696Z" fill="white"/>
<path d="M31.9459 48.8605C32.1333 48.7902 31.0195 48.8831 31.3211 48.827C30.4036 48.815 32.4514 49.129 31.9459 48.8605Z" fill="white"/>
<path d="M35.2376 47.3969L35.9613 47.3891L36.123 47.2754L35.2376 47.3969Z" fill="white"/>
<path d="M35.549 48.2796L35.7944 48.0692C35.6368 48.0808 35.5556 48.0528 35.4865 48.0352C35.4615 48.1615 35.2788 48.2994 35.549 48.2796Z" fill="white"/>
<path d="M35.3175 47.889C35.3311 47.922 35.3584 47.9879 35.4862 48.0351C35.4935 47.978 35.4662 47.9121 35.3175 47.889Z" fill="white"/>
<path d="M36.2247 47.5961L36.1787 47.7466L36.4121 47.5258L36.2247 47.5961Z" fill="white"/>
<path d="M35.7007 50.5887C36.007 50.6002 36.196 50.5524 36.065 50.4601C35.8472 50.4195 35.7282 50.3377 35.4371 50.3816L35.7007 50.5887Z" fill="white"/>
<path d="M37.8533 49.6613C37.6659 49.7316 37.4737 49.7344 37.1826 49.7784L38.2891 49.7426L37.8533 49.6613Z" fill="white"/>
<path d="M38.9518 50.3165C38.6455 50.305 38.3803 50.0754 38.147 50.2963C38.4533 50.3078 39.0401 50.6043 38.9518 50.3165Z" fill="white"/>
<path d="M36.7276 53.592L36.7124 53.5366L34.8879 53.5005L36.7276 53.592Z" fill="white"/>
<path d="M40.3557 56.4162C39.9304 56.3228 39.8924 56.5859 39.5242 56.4997C39.9679 56.6936 39.7009 56.7584 40.9006 56.7611C41.3696 56.5117 39.804 56.6151 40.3557 56.4162Z" fill="white"/>
<path d="M40.3655 67.4394L41.02 67.4141L40.7555 67.3543C40.4596 67.3307 40.4282 67.3669 40.3655 67.4394Z" fill="white"/>
<path d="M39.7689 69.5658L39.8003 69.5295L38.7502 69.4027L39.7689 69.5658Z" fill="white"/>
<path d="M40.6918 71.7392C40.7545 71.6667 40.5408 71.5239 40.6035 71.4514C40.7441 71.6788 39.4191 71.5042 40.6918 71.7392Z" fill="white"/>
</g>
<defs>
<clipPath id="clip0_301_12258">
<rect width="100" height="152" fill="white" transform="translate(180.371 99.4882) rotate(130.884)"/>
</clipPath>
</defs>
</svg>
