<svg width="138" height="105" viewBox="0 0 138 105" fill="none" xmlns="http://www.w3.org/2000/svg">
<g clip-path="url(#clip0_507_287)">
<path d="M2.642 88.1636C1.61415 75.2183 -1.73723 62.4026 1.14365 49.2776C5.46497 29.5721 15.6928 14.0379 33.2459 3.56664C37.6758 0.920066 42.3808 -0.71966 47.6938 0.308764C51.4939 1.04952 54.0708 3.19267 54.9611 6.91082C55.3448 8.5002 56.0324 9.26972 57.4511 10.0033C62.1995 12.4557 63.3938 15.3036 61.7001 20.2947C61.2368 21.6468 61.5553 22.2293 62.4818 22.9701C63.9223 24.1279 65.0008 25.5951 65.3772 27.4146C65.8911 29.9101 65.4134 32.2834 63.4735 34.0023C61.6204 35.642 59.6733 34.6711 57.7769 33.7218C51.3998 30.5214 47.4477 31.7584 44.299 38.1735C41.7583 43.3444 41.1068 48.9396 41.4832 54.6211C41.7438 58.5766 44.0673 61.2231 47.6286 62.8197C49.7133 63.7547 51.9282 64.4379 53.9116 65.5382C57.0747 67.3002 58.3704 70.6875 57.3353 73.8088C56.1337 77.4622 53.3542 77.8721 50.068 77.2824C46.1375 76.5704 42.3953 77.2033 38.8195 78.9221C34.1869 81.1516 31.5449 84.6755 31.5449 89.9471C31.5449 92.7016 31.5304 95.4632 31.3857 98.2105C31.306 99.7495 32.0082 102.274 29.7208 102.252C27.6579 102.238 28.4614 99.807 28.4179 98.3903C28.36 96.1177 28.5699 93.8451 28.5844 91.5653C28.6496 80.7344 35.1569 76.067 45.8045 74.5567C47.3318 74.341 48.9388 74.5136 50.495 74.679C52.1599 74.8588 53.7595 74.9163 54.4255 73.0608C55.0769 71.2341 54.2156 69.6519 52.7172 68.7314C50.9945 67.6742 49.0473 66.9622 47.1726 66.1639C40.7594 63.4166 37.8423 59.0584 38.0812 52.1615C38.3128 45.6242 39.4058 39.281 43.4665 33.844C47.2667 28.7523 52.5724 27.6375 58.1026 30.6221C59.2318 31.2334 60.484 32.9523 61.8448 31.3341C63.278 29.6297 62.7931 27.7238 61.3743 26.1201C58.5441 22.9125 54.8019 21.9201 50.6832 21.7043C49.2862 21.6324 46.8179 22.4666 46.8324 20.4098C46.8469 18.0725 49.431 18.9067 50.9004 18.9355C52.9199 18.9786 54.9611 19.3958 56.9372 19.8776C59.5068 20.5033 60.0787 19.1368 59.6661 17.1735C58.8988 13.5201 55.9021 12.4341 52.6955 11.9019C49.916 11.4344 47.1871 12.0745 44.4654 12.6427C43.5606 12.8297 42.3591 13.1245 42.0116 11.8731C41.6714 10.629 42.873 10.291 43.7271 9.96733C45.9927 9.1115 48.3597 8.62246 50.7701 8.51459C52.8765 8.42109 52.9344 7.59404 51.9427 6.07657C50.8063 4.32897 49.1632 3.50911 47.1581 3.23582C43.177 2.68205 39.5144 3.64575 36.011 5.47246C14.6288 16.6053 0.65868 43.6824 3.83633 67.5663C4.4516 72.1834 4.5457 76.8725 4.8859 81.5255C5.37087 82.9207 5.17544 84.3735 5.08858 85.7831C5.00172 87.1927 4.42265 88.3649 2.642 88.1636Z" fill="#0D214F"/>
<path d="M90.907 3.94097C90.7912 3.96255 90.6681 3.98412 90.5523 4.02008C88.5401 4.617 85.2973 4.67453 85.4131 6.93995C85.5216 8.95364 88.6631 7.81734 90.4076 8.0331C94.3887 8.52214 97.8848 9.78789 100.643 12.7653C101.142 13.3047 102.481 13.542 101.642 14.6064C101.019 15.3903 100.006 14.9804 99.3397 14.4985C96.5747 12.4632 93.6214 11.0105 90.0963 10.8379C87.5412 10.7084 84.9932 10.766 82.5901 11.5715C80.8746 12.1468 79.1012 13.3406 79.6947 15.4766C80.2955 17.6413 82.1341 16.6704 83.6469 16.4187C87.4688 15.7858 91.0807 16.4259 94.4104 18.4468C95.0763 18.8567 96.2562 19.0221 95.8291 20.1441C95.4021 21.2732 94.4249 21.1293 93.397 20.8129C90.0674 19.7917 86.7739 18.6266 83.1619 19.7701C80.4258 20.6403 78.124 21.9995 76.423 24.3225C75.8439 25.1136 75.178 26.0054 75.786 26.9259C76.3651 27.8033 77.3495 27.1417 78.1095 26.9834C90.8563 24.3297 96.6036 27.7817 100.353 40.2738C102.083 46.0345 102.952 51.9461 103.799 57.8649C104.001 59.2745 104.016 60.7632 103.791 62.1584C103.212 65.7975 101.157 67.0129 97.6242 65.8478C93.4984 64.4886 89.4014 63.0862 84.9281 63.7191C83.3067 63.9492 81.6998 64.2512 81.1714 65.9917C80.5778 67.9119 82.2426 68.7389 83.4515 69.6307C85.9053 71.4358 88.7644 72.342 91.6743 73.1906C108.685 78.153 110.928 90.2352 109.575 102.835C109.488 103.662 109.473 105.086 108.221 104.993C107.099 104.906 107.078 103.576 107.041 102.677C106.94 100.282 106.983 97.8872 106.933 95.4923C106.701 85.3663 101.374 78.5701 91.544 75.9235C88.3808 75.0749 85.319 73.9673 82.5901 72.1982C80.2159 70.6519 78.095 68.6454 78.8406 65.4379C79.5862 62.2232 82.344 61.3745 85.1887 61.0221C89.3435 60.5043 93.3463 61.281 97.1972 62.8632C99.8681 63.9636 101.417 63.4889 101.084 60.2382C100.237 51.9965 98.7679 43.8554 95.4744 36.2177C92.6659 29.7163 87.3747 27.5588 80.31 29.4071C77.8272 30.0543 74.8595 31.8954 73.1006 28.918C71.2475 25.7824 73.1802 22.8194 75.5254 20.6259C77.1613 19.0941 78.0444 17.9649 77.0382 15.5988C76.0755 13.3334 77.4074 11.3989 79.3618 10.1043C81.0121 9.01118 82.2499 7.96118 82.5105 5.68858C82.7855 3.3081 85.0946 2.46666 87.2227 1.82659C88.5545 1.15056 89.8357 1.66118 91.0083 2.1718C92.1086 2.64645 91.8987 3.3944 90.907 3.94097Z" fill="#0D214F"/>
<path d="M66.2088 46.7393C67.9388 43.9992 69.3068 41.4749 71.4277 39.5475C73.5485 37.6201 76.0385 35.8725 78.8108 37.7712C81.4529 39.5763 81.2502 42.5609 80.2513 45.2794C78.0001 51.3924 73.2518 55.7794 69.1331 60.5691C65.7166 64.5462 65.0868 64.4599 61.54 60.49C57.9064 56.4194 55.0617 51.8886 53.7588 46.5379C53.4258 45.1643 53.2665 43.7188 53.2376 42.302C53.2014 40.5256 53.9397 38.9434 55.5684 38.1307C57.2983 37.2677 58.8329 38.1883 60.2154 39.2095C62.7416 41.0938 64.2544 43.8338 66.2088 46.7393Z" fill="#0D214F"/>
<path d="M101.902 3.23621C108.366 5.16361 113.541 8.7523 117.189 14.5201C118.594 16.7352 120.338 18.7561 122.075 20.741C135.416 35.9876 139.411 53.9455 137.602 73.5574C137.138 78.5629 136.342 83.5396 136.711 88.5883C137.015 92.6948 136.096 96.6862 135.626 100.721C135.474 102.008 134.88 103.267 133.418 102.993C131.927 102.72 131.949 101.275 132.195 100.059C134.192 90.4006 134.019 80.5191 134.706 70.7742C136.002 52.3776 132.006 35.0526 119.035 20.7985C118.471 20.18 117.841 19.5759 117.428 18.8639C112.955 11.0896 106.071 6.70984 97.4648 4.71771C98.2973 2.32285 100.172 2.99888 101.902 3.23621Z" fill="#0D214F"/>
<path d="M101.902 3.23624C100.317 3.43042 98.7096 3.55987 97.4573 4.71775C95.2786 4.45884 93.0926 4.20713 90.9138 3.94823C90.9573 1.05713 88.4383 2.5674 87.2295 1.82665C92.347 -0.11513 97.1099 1.69001 101.902 3.23624Z" fill="#0D214F"/>
<path d="M2.6416 88.164C5.80478 86.7616 4.32815 83.8057 4.8855 81.5331C5.31257 84.5896 5.78307 87.639 6.15222 90.6955C6.31147 92.0475 6.18842 93.6297 4.46568 93.7016C2.90218 93.7663 2.90218 92.1554 2.7357 91.0119C2.59093 90.077 2.66332 89.1133 2.6416 88.164Z" fill="#0D214F"/>
<path d="M110.291 19.5903C111.261 19.6551 113.613 23.6753 113.106 24.4664C112.954 24.6965 112.39 24.9626 112.26 24.8691C110.674 23.7544 109.61 22.2441 109.285 20.3239C109.198 19.7845 109.82 19.6622 110.291 19.5903Z" fill="#0D214F"/>
<path d="M98.3983 24.0421C99.3683 23.9846 102.408 28.1558 102.104 28.9828C102.01 29.2489 101.634 29.5582 101.366 29.587C100.367 29.6948 97.4573 25.6099 97.812 24.6102C97.8989 24.3513 98.2536 24.1787 98.3983 24.0421Z" fill="#0D214F"/>
<path d="M29.1415 17.9363C29.7278 17.9147 30.2345 18.2023 30.1114 18.6914C29.7278 20.2232 28.519 21.1654 27.245 21.9061C26.7962 22.165 26.4054 21.3955 26.4995 20.9928C26.8324 19.5184 27.9254 18.641 29.1415 17.9363Z" fill="#0D214F"/>
<path d="M31.0595 25.3941C30.9799 25.0058 30.741 24.5383 30.8351 24.15C31.1608 22.8267 31.8629 21.7335 33.2672 21.3308C33.4916 21.2661 34.0634 21.6113 34.0851 21.8054C34.2227 23.0496 32.9632 23.5315 32.5072 24.4736C32.319 24.8835 32.2104 25.4085 31.0595 25.3941Z" fill="#0D214F"/>
<path d="M36.4301 30.2701C35.7569 30.1407 35.214 29.9465 35.3515 29.3999C35.7062 27.94 36.0392 26.4081 37.4362 25.5092C37.8922 25.2143 38.5364 25.5739 38.4858 25.991C38.2831 27.6595 37.2046 28.9253 36.4301 30.2701Z" fill="#0D214F"/>
<path d="M108.96 27.3359C106.064 26.6671 104.899 25.4589 104.407 23.625C104.363 23.4668 104.913 22.9274 105.073 22.9705C107.042 23.5027 107.476 25.3007 108.96 27.3359Z" fill="#0D214F"/>
</g>
<defs>
<clipPath id="clip0_507_287">
<rect width="138" height="105" fill="white"/>
</clipPath>
</defs>
</svg>
