<svg width="138" height="84" viewBox="0 0 138 84" fill="none" xmlns="http://www.w3.org/2000/svg">
<g clip-path="url(#clip0_507_301)">
<path d="M54.2251 31.425C47.1432 33.9339 39.7896 35.6278 32.3241 36.5067C28.5914 36.9542 24.8346 37.1779 21.0619 37.098C17.2972 37.0021 13.5085 36.6586 9.83167 35.6198C8.00126 35.0925 6.17885 34.4133 4.54826 33.3107C2.91768 32.272 1.44696 30.634 0.983365 28.5965C0.743573 27.5898 0.791531 26.5431 1.01534 25.5683C1.24714 24.5935 1.61482 23.6666 2.11038 22.8277C3.07754 21.1338 4.37242 19.7035 5.73923 18.3932C8.51282 15.7964 11.6941 13.7429 14.9712 11.9292C18.2484 10.1074 21.6694 8.55735 25.1543 7.20702C32.1323 4.51435 39.39 2.56477 46.7516 1.29434C50.4364 0.671113 54.1611 0.239647 57.9019 0.0638645C61.6426 -0.111918 65.4073 -0.0240267 69.1321 0.51131C70.9945 0.782974 72.8489 1.1665 74.6553 1.76576C76.4617 2.35703 78.2282 3.188 79.7389 4.45842C80.4822 5.10562 81.1377 5.88865 81.6013 6.79153C82.0729 7.68643 82.2887 8.72514 82.2807 9.73988C82.2487 11.7933 81.3615 13.647 80.2664 15.2211C78.0204 18.3772 75.023 20.7902 71.9057 22.8996C68.7724 25.001 65.4393 26.7908 62.0263 28.3568L61.3309 26.7908C64.7199 25.3286 68.0131 23.6587 71.1144 21.6851C72.673 20.7103 74.1517 19.6236 75.5585 18.4571C76.9653 17.2905 78.2362 15.9802 79.2833 14.526C80.3144 13.0797 81.1057 11.4258 81.1457 9.7239C81.2336 8.01402 80.3543 6.416 79.0435 5.25743C77.7087 4.10686 76.0621 3.29187 74.3436 2.7006C72.6171 2.10933 70.8186 1.70184 69.0042 1.43017C65.3594 0.894836 61.6426 0.790964 57.9418 0.950766C54.2411 1.11057 50.5483 1.51806 46.8874 2.12531C39.5658 3.33182 32.3641 5.30537 25.4661 8.01402C22.0211 9.37234 18.64 10.9224 15.4188 12.7362C12.2136 14.5659 9.1123 16.6353 6.47459 19.1682C5.17172 20.4386 3.95678 21.8209 3.10152 23.387C2.24627 24.9291 1.7507 26.6949 2.16634 28.3249C2.56599 29.9469 3.76495 31.3052 5.25965 32.232C6.73836 33.1988 8.45687 33.8221 10.1994 34.3015C13.7163 35.2363 17.4091 35.5319 21.0859 35.5719C24.7707 35.5959 28.4555 35.3242 32.1163 34.8368C39.4379 33.854 46.6557 32.1042 53.6656 29.7871L54.2251 31.425Z" fill="#0E0E3A"/>
<path d="M7.81738 34.4533C9.93554 31.9923 12.5333 30.0747 15.203 28.3888C17.8886 26.7109 20.6942 25.2646 23.5717 23.9862C29.3267 21.4294 35.3215 19.5597 41.3802 17.9936C47.4629 16.5394 53.6335 15.3489 59.8921 14.9254C63.0174 14.6857 66.1666 14.5899 69.3159 14.7577C72.4652 14.9175 75.6224 15.3409 78.7317 16.2518L78.1642 17.8738C75.3507 16.8111 72.2973 16.2518 69.228 15.9642C66.1507 15.7005 63.0494 15.6845 59.956 15.8443C53.7694 16.2358 47.5988 17.2506 41.596 18.8246C38.5906 19.6076 35.6252 20.5425 32.7077 21.6132C29.7903 22.6759 26.9288 23.8744 24.1552 25.2407C21.3816 26.607 18.6719 28.1011 16.1142 29.795C13.5644 31.4969 11.1904 33.4385 9.08828 35.5799L7.81738 34.4533Z" fill="#0E0E3A"/>
<path d="M54.5125 47.3413C52.6022 48.0285 50.492 47.9566 48.5577 48.5239C46.5994 49.0033 44.6331 49.4347 42.6588 49.8343C38.7102 50.6413 34.7217 51.2565 30.7012 51.624C26.6807 51.9516 22.6202 52.1034 18.5677 51.624C14.5472 51.1446 10.4148 50.1698 6.92188 47.6609L7.99294 46.3186C9.44768 47.5251 11.1822 48.428 13.0126 49.0832C14.843 49.7544 16.7773 50.1938 18.7356 50.4655C22.6522 51.0168 26.6647 51.0408 30.6452 50.7451C34.6258 50.4575 38.5903 49.8422 42.5149 49.0592C44.4732 48.6677 46.4235 48.1963 48.3658 47.7089C50.3401 47.3174 52.0906 46.1748 54.0249 45.7034L54.5125 47.3413Z" fill="#0E0E3A"/>
<path d="M86.4609 26.0477C86.253 27.0065 85.8454 27.9094 85.3259 28.7004C84.8303 29.5234 84.2548 30.2665 83.6313 30.9696C82.3764 32.3599 80.9696 33.5424 79.5469 34.677C78.1241 35.8196 76.6534 36.8903 75.1507 37.905L70.6106 40.9652L69.8193 39.4391C71.4979 38.8079 73.1125 38.0329 74.6551 37.13C76.1978 36.2271 77.6685 35.2044 79.0113 34.0378C80.3542 32.8713 81.5451 31.5369 82.5363 30.1067C83.0079 29.3796 83.4795 28.6525 83.8391 27.8854C84.2388 27.1264 84.4546 26.3354 84.8063 25.5763L86.4609 26.0477Z" fill="#0E0E3A"/>
<path d="M79.3472 4.39443C83.9671 11.977 89.882 26.527 79.9307 32.7753C79.6589 32.9431 79.8267 33.3905 80.1545 33.3026C92.144 29.9548 86.2132 9.97952 79.7468 4.09081C79.539 3.90704 79.1953 4.14674 79.3472 4.39443Z" fill="#0E0E3A"/>
<path d="M3.38912 21.3974C-0.511486 26.2474 -0.695326 32.6874 1.06315 38.4483C2.62978 43.5859 6.12275 49.3308 12.0456 49.4107C12.4452 49.4187 12.4612 48.8914 12.1335 48.7635C2.8456 44.9203 -1.90228 30.1546 3.7568 21.6771C3.90068 21.4613 3.55698 21.1897 3.38912 21.3974Z" fill="#0E0E3A"/>
<path d="M62.8419 27.0145C68.9646 24.0501 76.9576 20.8221 78.4763 13.3274C79.7872 6.87939 74.7036 3.64339 68.9326 3.49158C68.469 3.4756 68.3411 4.24265 68.8207 4.31456C71.7062 4.72206 74.4878 5.16151 76.1423 7.85418C78.2445 11.2819 76.6859 15.4368 74.0961 18.1614C70.8669 21.5492 66.1031 23.4908 61.9786 25.5363C60.9875 26.0237 61.8508 27.4859 62.8419 27.0145Z" fill="#0E0E3A"/>
<path d="M9.71961 17.6421C6.17869 19.6476 2.17417 23.2991 2.46192 27.7656C2.78963 32.8393 7.55349 35.7557 12.1015 36.3549C19.0235 37.2658 26.7688 36.4109 33.6908 35.7397C40.8925 35.0445 47.7585 33.3586 54.4887 30.7299C55.5038 30.3304 55.0642 28.6764 54.0331 29.0839C44.0897 32.9751 33.9785 34.2695 23.3478 34.5012C18.8956 34.5971 13.5403 35.2443 9.28798 33.6623C5.32343 32.1921 2.50188 28.0772 4.49215 23.9703C5.65114 21.5812 7.82525 19.5997 9.98338 18.0975C10.2551 17.9058 10.0153 17.4743 9.71961 17.6421Z" fill="#0E0E3A"/>
<path d="M86.8126 19.4479C94.3021 21.789 101.4 25.2088 108.082 29.2438C114.772 33.2788 121.103 37.9371 126.706 43.4103C129.488 46.1589 132.109 49.1072 134.243 52.4311C135.306 54.0931 136.242 55.8589 136.897 57.7525C137.529 59.6382 137.88 61.7396 137.337 63.793C137.057 64.8078 136.521 65.7506 135.81 66.5177C135.099 67.2847 134.227 67.884 133.3 68.3154C131.438 69.1544 129.432 69.482 127.465 69.5619C123.509 69.7297 119.608 69.0665 115.819 68.1477C112.031 67.2128 108.33 65.9344 104.725 64.4562C101.12 62.986 97.5952 61.3161 94.1662 59.4784C87.3162 55.787 80.7859 51.4643 74.847 46.4066C71.8896 43.8737 69.0521 41.173 66.5342 38.1688C65.2793 36.6666 64.0964 35.0926 63.0573 33.4147C62.0182 31.7367 61.1309 29.939 60.5634 27.9974C60.0119 26.0797 59.8361 23.8745 60.6833 21.8689C61.091 20.8782 61.7784 19.9913 62.6017 19.3201C63.425 18.6409 64.3601 18.1456 65.3193 17.77C67.2616 17.0429 69.2839 16.8032 71.2821 16.7553C73.2804 16.7073 75.2627 16.8671 77.221 17.1388L76.9652 18.8407C75.0868 18.5291 73.1925 18.3373 71.3061 18.3453C69.4277 18.3453 67.5414 18.5451 65.8229 19.1443C64.1283 19.7436 62.5857 20.8063 61.8903 22.4203C61.1629 24.0023 61.2428 25.9119 61.7384 27.6937C62.234 29.4835 63.0493 31.2094 64.0324 32.8394C65.0156 34.4693 66.1426 36.0194 67.3575 37.5056C69.7954 40.4779 72.545 43.1945 75.4625 45.7194C81.3214 50.7532 87.7878 55.0678 94.5739 58.7593C101.368 62.4347 108.546 65.479 116.035 67.3247C119.776 68.2196 123.613 68.8428 127.425 68.659C129.32 68.5631 131.214 68.2116 132.885 67.4285C134.547 66.6455 135.874 65.2632 136.322 63.5214C136.761 61.7795 136.449 59.8859 135.834 58.136C135.203 56.3702 134.283 54.6923 133.244 53.1023C131.142 49.9222 128.536 47.0618 125.771 44.401C120.192 39.1036 113.885 34.5812 107.243 30.698C100.593 26.8228 93.5827 23.5309 86.3011 21.1019L86.8126 19.4479Z" fill="#0E0E3A"/>
<path d="M79.8586 33.6063C82.3045 34.3254 84.6544 35.3082 86.9644 36.3469C89.2744 37.3936 91.5524 38.5122 93.7745 39.7347C98.2266 42.1477 102.479 44.8963 106.643 47.7648C110.744 50.7211 114.772 53.7813 118.425 57.305C122.102 60.7807 125.571 64.552 128.129 69.0984L126.586 69.8574C125.603 67.6362 124.252 65.5428 122.749 63.5612C121.223 61.5957 119.552 59.742 117.786 57.9682C114.205 54.4765 110.304 51.2964 106.164 48.4759C104.086 47.0776 101.975 45.7193 99.7853 44.4968C97.6191 43.2344 95.4051 42.0678 93.151 40.9812C90.897 39.8865 88.619 38.8558 86.317 37.913C84.007 36.9702 81.657 36.1312 79.3311 35.2443L79.8586 33.6063Z" fill="#0E0E3A"/>
<path d="M126.69 82.0104C124.916 83.0571 122.926 83.5765 120.967 83.8082C119.001 84.0319 117.035 83.976 115.1 83.7922C111.232 83.4007 107.483 82.4739 103.846 81.2674C96.5645 78.8543 89.7145 75.4266 83.1282 71.6153C76.5819 67.7401 70.1875 63.5453 64.4564 58.4876C61.5869 55.9707 58.8533 53.262 56.5353 50.1778C54.2333 47.1096 52.2191 43.6499 51.5557 39.6549L53.2582 39.4312C53.3541 40.3181 53.5299 41.205 53.7697 42.0839C54.0415 42.9548 54.3372 43.8177 54.7289 44.6567C55.4723 46.3426 56.4314 47.9486 57.5185 49.4667C59.6926 52.511 62.2903 55.2596 65.0799 57.8004C70.715 62.8182 76.9895 67.1329 83.5678 70.8722C86.845 72.7579 90.218 74.4758 93.679 76.0019C97.124 77.544 100.665 78.8703 104.27 79.941C107.875 80.9957 111.551 81.8347 115.252 82.1143C118.921 82.37 122.726 82.1383 125.851 80.5163L126.69 82.0104Z" fill="#0E0E3A"/>
<path d="M137.36 60.6768C135.274 69.7695 128.944 84.9267 116.89 82.282C116.586 82.2181 116.371 82.6495 116.666 82.8094C128.136 88.9537 138.272 69.9293 137.848 60.7487C137.84 60.469 137.424 60.3891 137.36 60.6768Z" fill="#0E0E3A"/>
<path d="M68.2123 17.4903C61.754 18.2494 56.8942 22.9156 53.9687 28.4847C51.355 33.4625 49.7404 40.2781 54.0487 44.7126C54.3284 45.0002 54.7121 44.6327 54.5682 44.3131C50.3718 34.6211 57.8134 20.0791 68.2683 17.9457C68.5241 17.8978 68.4761 17.4583 68.2123 17.4903Z" fill="#0E0E3A"/>
<path d="M75.6947 19.3519C72.1698 18.481 68.0374 18.1134 64.7522 20.0391C61.1713 22.1405 60.0923 26.8946 61.2992 30.6819C62.9138 35.7236 67.9494 39.3991 71.6502 42.8588C76.1024 47.0217 80.7063 51.0806 85.718 54.5643C90.9295 58.1758 96.6285 60.9484 102.527 63.2416C108.314 65.4868 114.781 68.2833 121.007 68.7787C125.252 69.1143 130.399 67.8279 132.837 64.0086C135.515 59.8218 133.245 55.5551 130.223 52.367C129.904 52.0315 129.272 52.4869 129.568 52.8704C131.366 55.2115 132.701 57.1132 132.365 60.1734C132.006 63.4493 129.944 65.5427 126.77 66.5575C121.911 68.1076 116.635 66.2459 111.991 64.7517C103.295 61.9552 94.7421 58.6393 87.1647 53.4617C80.1868 48.6996 73.9123 42.7549 67.9974 36.7464C64.4725 33.1428 60.7717 28.2848 63.6252 23.1712C65.8792 19.1282 71.4344 19.0243 75.5588 19.8553C75.8865 19.9192 76.0304 19.4318 75.6947 19.3519Z" fill="#0E0E3A"/>
<path d="M87.9715 23.2591C88.0195 23.2591 88.0195 23.1792 87.9715 23.1792C87.9236 23.1792 87.9236 23.2591 87.9715 23.2591Z" fill="#0E0E3A"/>
<path d="M86.3969 19.4719C85.3498 28.0453 79.1552 36.1233 70.7944 38.9758C69.2598 39.4951 70.171 41.7643 71.6657 41.0372C80.0424 36.9543 86.9164 29.2118 86.7646 19.4639C86.7566 19.2322 86.4209 19.2402 86.3969 19.4719Z" fill="#0E0E3A"/>
<path d="M24.075 13.2555C26.2811 11.7534 28.679 10.6747 31.2368 9.90764C33.5788 9.20452 36.2245 8.92486 38.3187 7.63846C38.6544 7.43071 38.5265 6.87939 38.1108 6.87939C35.4651 6.91135 32.5397 8.1658 30.0459 9.06868C27.7279 9.91564 25.6577 11.0982 23.6594 12.5524C23.2518 12.864 23.6354 13.5591 24.075 13.2555Z" fill="#0E0E3A"/>
<path d="M29.9263 13.1197C30.9334 12.6243 31.9565 12.1689 33.0036 11.7694C33.7789 11.4737 34.6661 11.2979 35.2097 10.6268C35.3056 10.5069 35.2816 10.3232 35.1217 10.2832C34.1866 10.0355 33.2274 10.5629 32.3721 10.9144C31.373 11.3299 30.3978 11.7933 29.4387 12.2887C28.8872 12.5764 29.3747 13.3914 29.9263 13.1197Z" fill="#0E0E3A"/>
<path d="M30.6775 15.6207C31.8525 15.1093 33.1953 14.8616 34.3223 14.2783C34.7459 14.0546 34.5701 13.2716 34.0665 13.3355C32.7477 13.4953 31.4048 14.2623 30.2379 14.8696C29.7263 15.1333 30.1739 15.8444 30.6775 15.6207Z" fill="#0E0E3A"/>
<path d="M32.4519 17.4103C33.2433 17.0587 33.9466 16.7232 34.6021 16.1399C34.738 16.02 34.634 15.7484 34.4502 15.7643C33.539 15.8602 32.7797 16.1798 31.9484 16.5394C31.3569 16.8111 31.8685 17.674 32.4519 17.4103Z" fill="#0E0E3A"/>
<path d="M37.1838 39.8306C38.4707 39.7587 39.7496 39.6309 41.0205 39.4391C42.2514 39.2474 43.6582 39.1515 44.7452 38.5203C45.0889 38.3205 44.9451 37.7692 44.5454 37.7772C43.4504 37.7852 42.3713 38.2326 41.3002 38.4484C39.9414 38.728 38.5666 38.8878 37.1838 38.9997C36.6563 39.0316 36.6483 39.8546 37.1838 39.8306Z" fill="#0E0E3A"/>
<path d="M40.5567 41.9959C41.7237 41.9 43.4022 41.884 44.0257 40.6935C44.0817 40.5816 44.0657 40.4138 43.9378 40.3499C42.8188 39.8306 41.5239 40.4538 40.3809 40.6296C39.6055 40.7574 39.7814 42.0598 40.5567 41.9959Z" fill="#0E0E3A"/>
<path d="M57.8296 30.1066C59.4202 35.7157 62.7933 41.5564 67.6451 44.9682C67.9408 45.176 68.4284 44.8244 68.2845 44.4728C67.3014 42.0918 64.8395 40.5737 63.2649 38.5602C61.2267 35.9554 59.708 33.023 58.6529 29.8829C58.4771 29.3715 57.6778 29.5793 57.8296 30.1066Z" fill="#0E0E3A"/>
<path d="M58.6292 38.4164C59.3566 39.9106 60.1799 41.3648 61.187 42.6912C61.8264 43.5381 62.6257 44.9923 63.7927 44.9923C63.9126 44.9923 64.0085 44.8964 64.0085 44.7766C64.0165 43.6739 62.7297 42.811 62.0822 42.004C61.0671 40.7336 60.1879 39.3912 59.4365 37.953C59.1568 37.4017 58.3654 37.8811 58.6292 38.4164Z" fill="#0E0E3A"/>
<path d="M58.1574 41.141C58.693 42.0838 59.1646 43.0586 59.7561 43.9694C60.2676 44.7525 60.7072 45.5355 61.6584 45.7752C61.8822 45.8311 62.13 45.6634 62.122 45.4236C62.098 44.4888 61.5385 43.9375 60.971 43.2344C60.2836 42.3874 59.5562 41.5804 58.9328 40.6775C58.613 40.2061 57.8617 40.6296 58.1574 41.141Z" fill="#0E0E3A"/>
<path d="M107.922 44.9204C110.024 46.4465 112.038 48.0925 113.901 49.9142C115.435 51.4164 116.722 53.366 118.433 54.6444C118.776 54.9001 119.144 54.4206 118.976 54.101C117.921 52.0316 115.707 50.3217 113.997 48.7956C112.182 47.1816 110.272 45.6875 108.274 44.3052C107.898 44.0495 107.554 44.6567 107.922 44.9204Z" fill="#0E0E3A"/>
<path d="M110.344 44.2732C111.887 45.4797 113.358 46.7661 114.82 48.0685C116.091 49.2031 117.338 50.849 118.865 51.6161C119.249 51.8079 119.664 51.4163 119.456 51.0248C118.617 49.4428 116.747 48.2043 115.388 47.0617C113.933 45.8392 112.406 44.7046 110.88 43.57C110.48 43.2824 109.945 43.9616 110.344 44.2732Z" fill="#0E0E3A"/>
<path d="M114.325 44.6407C115.084 45.4077 115.812 46.2067 116.539 47.0057C117.139 47.6609 117.802 48.7476 118.713 48.9234C119.193 49.0113 119.568 48.6437 119.472 48.1643C119.289 47.2454 118.21 46.5982 117.538 46.007C116.731 45.2879 115.932 44.5688 115.148 43.8177C114.613 43.2903 113.797 44.1053 114.325 44.6407Z" fill="#0E0E3A"/>
</g>
<defs>
<clipPath id="clip0_507_301">
<rect width="138" height="84" fill="white"/>
</clipPath>
</defs>
</svg>
