<svg width="138" height="115" viewBox="0 0 138 115" fill="none" xmlns="http://www.w3.org/2000/svg">
<path d="M2.0233 25.2833C2.12069 37.3585 2.54271 49.4336 2.93226 61.5088C3.12704 67.541 3.32182 73.584 3.55988 79.6162C3.67891 82.6484 2.72666 88.1303 5.74572 90.1266C8.93791 92.2417 15.4413 90.6662 19.0014 90.6014C25.3317 90.4935 31.6728 90.4288 38.0031 90.3209C41.1844 90.2669 44.3766 90.2129 47.558 90.1374C48.8565 90.105 50.577 89.7489 51.8431 90.0187C54.2995 90.5259 56.0525 92.3927 57.167 94.7776C59.71 100.238 60.7271 107.133 62.3936 112.928C62.7398 114.137 64.7742 114.309 65.0231 112.928C65.7372 108.881 66.5488 104.867 67.5335 100.874C68.2694 97.8854 68.7022 91.5834 71.5589 90.0295C72.7817 89.3605 76.2011 90.0079 77.5105 90.0079C79.5232 90.0079 81.5251 90.0079 83.5378 90.0079C87.2818 90.0079 91.0151 89.9971 94.7591 89.9863C102.702 89.9648 110.644 89.8892 118.587 89.6086C122.699 89.4684 126.919 89.4899 131.009 89.0259C132.892 88.8101 134.948 88.6698 136.312 87.1375C139.32 83.7599 137.405 75.5587 137.318 71.5553C137.145 64.0231 137.037 56.491 136.95 48.9588C136.755 33.2903 136.636 17.6217 136.171 1.96391C136.149 1.15458 135.511 0.507121 134.699 0.49633C106.998 -0.118758 79.2851 -0.129549 51.5834 0.291301C38.0788 0.507121 24.585 0.841643 11.1021 1.2517C7.90991 1.34882 2.10987 0.140226 0.616571 3.98183C-1.10396 8.41695 1.27665 16.2728 1.88263 20.8482C1.98002 21.582 3.01883 21.6252 3.06211 20.8482C3.28935 16.78 1.7636 5.91343 5.76736 4.52138C8.42932 3.59336 12.4872 4.2624 15.3547 4.16528C18.1898 4.06816 21.0358 3.98183 23.8709 3.9063C36.3042 3.56098 48.7375 3.32358 61.1708 3.17251C85.6803 2.88115 110.19 3.03222 134.689 3.44228C134.202 2.95668 133.704 2.4603 133.217 1.9747C134.05 25.4884 133.974 49.0128 134.559 72.5264C134.624 74.976 135.056 77.7061 134.775 80.1341C134.45 82.9074 132.784 85.4001 129.981 86.2742C128.802 86.6411 127.081 86.4469 125.848 86.5116C119.626 86.8354 113.393 86.9756 107.16 87.0728C94.6401 87.2778 82.1202 87.1807 69.6112 87.2994C68.9835 87.3102 68.4641 87.7202 68.2802 88.3029C65.7913 96.148 63.8328 104.101 62.4152 112.205C63.2917 112.205 64.1682 112.205 65.0447 112.205C63.3891 106.475 61.7659 100.734 60.0887 95.0042C59.1797 91.9071 58.4547 88.5619 55.0028 87.5044C50.458 86.1231 43.8031 87.5152 39.0852 87.5799C32.7549 87.6771 26.4138 87.7418 20.0835 87.8605C17.3242 87.9145 14.3051 88.3353 11.5566 88.0332C6.47072 87.472 6.58975 85.044 6.38416 80.6413C6.10281 74.5875 5.77818 68.5338 5.45355 62.4908C4.78265 50.0811 4.14421 37.6606 3.18114 25.2833C3.11622 24.5603 2.01248 24.5387 2.0233 25.2833Z" fill="#0E0E3A"/>
<path d="M65.6941 70.023C56.0201 62.1887 43.9872 53.7717 39.6913 41.5131C37.3323 34.7795 38.5118 24.6467 47.8611 24.9489C55.544 25.1971 60.1538 32.222 63.887 37.9845C64.5254 38.9664 66.3866 38.9772 66.6247 37.6284C67.934 30.3444 72.0244 23.8914 79.6207 22.0029C88.3641 19.8339 97.6918 26.0604 97.3779 35.4162C97.1399 42.8728 89.4137 49.6496 84.6092 54.6998C79.783 59.7823 74.5348 64.3146 69.2326 68.9008C68.0531 69.9259 69.7412 71.5014 70.9206 70.5842C79.7722 63.6995 88.0286 55.3472 94.9216 46.5094C99.7153 40.3801 101.825 33.2364 97.2589 26.2762C93.1578 20.0282 85.1719 17.7621 78.1382 19.78C70.4337 21.9921 65.0232 29.125 63.7247 36.8298C64.6336 36.7111 65.5534 36.5924 66.4624 36.4737C62.2855 30.4415 57.3944 23.7079 49.5384 22.672C43.2081 21.8411 37.711 25.4561 36.4342 31.758C33.1229 48.0417 52.6332 64.1203 65.0773 70.8C65.5643 71.059 66.1486 70.4007 65.6941 70.023Z" fill="#0E0E3A"/>
<path d="M8.03983 14.4924C8.26707 13.478 8.00737 11.6327 8.37528 10.8018C9.18686 8.96736 11.6108 9.46374 13.2447 9.36662C16.6317 9.16159 20.0187 8.99973 23.3948 8.72995C24.4661 8.64362 24.4985 7.00339 23.3948 7.04655C20.4299 7.15446 17.4757 7.35949 14.5108 7.52136C12.0977 7.64006 9.52231 7.47819 7.16333 7.99616C6.81706 8.0717 6.51407 8.39543 6.42751 8.72995C5.9622 10.5321 6.21109 12.7011 6.63311 14.4924C6.79542 15.183 7.87752 15.1938 8.03983 14.4924Z" fill="#0E0E3A"/>
<path d="M26.6626 7.61847C26.8466 8.36305 27.8529 8.55729 28.5238 8.5357C29.0649 8.51412 30.2335 8.11485 30.0496 7.39186C29.7682 6.28038 26.3596 6.42066 26.6626 7.61847Z" fill="#0E0E3A"/>
<path d="M129.267 47.2647C129.213 53.1027 128.975 58.9406 128.943 64.7786C128.91 69.8719 128.304 75.3754 129.365 80.3716C129.462 80.8464 130.241 80.8572 130.339 80.3716C131.356 75.3754 130.696 69.8611 130.62 64.7786C130.533 58.9406 130.241 53.1027 130.133 47.2647C130.133 46.7036 129.278 46.7036 129.267 47.2647Z" fill="#0E0E3A"/>
<path d="M111.229 81.904C113.393 82.2709 115.449 82.4759 117.657 82.4867C119.507 82.4975 121.715 82.832 123.305 81.7853C123.619 81.5802 123.717 81.0083 123.305 80.8249C121.671 80.0803 119.875 80.5551 118.101 80.609C115.861 80.6738 113.621 80.6738 111.381 80.717C110.731 80.7278 110.526 81.7853 111.229 81.904Z" fill="#0E0E3A"/>
<path d="M104.163 82.5406C104.899 82.5082 105.7 82.573 106.403 82.3032C107.063 82.0442 107.767 81.7744 108.394 81.4399C108.675 81.2888 108.621 80.814 108.308 80.7493C107.604 80.609 106.868 80.5334 106.165 80.4795C105.418 80.4147 104.661 80.6953 103.947 80.868C103.016 81.0838 103.2 82.573 104.163 82.5406Z" fill="#0E0E3A"/>
<path d="M13.6775 84.2888C15.4738 84.4506 17.2809 84.3643 19.088 84.2888C20.354 84.2348 21.7499 84.4938 22.4641 83.3068C22.6156 83.0586 22.5399 82.7996 22.3667 82.5946C21.4794 81.5047 19.8563 82.0334 18.6227 82.1953C16.9021 82.4327 15.1924 82.6701 13.526 83.2097C12.92 83.4039 13.0607 84.2348 13.6775 84.2888Z" fill="#0E0E3A"/>
<path d="M25.7862 83.0802C26.4788 83.242 27.128 83.2636 27.8206 83.1125C28.459 82.9723 28.8269 82.6593 29.3247 82.2816C29.5736 82.0874 29.5303 81.7637 29.2381 81.645C28.6538 81.3968 28.221 81.2025 27.5609 81.2241C26.8575 81.2565 26.2299 81.4399 25.6131 81.7745C25.0721 82.0442 25.1911 82.9399 25.7862 83.0802Z" fill="#0E0E3A"/>
<path d="M127.363 9.20479C127.417 9.81988 127.471 10.4566 127.579 11.0608C127.655 11.4601 128.034 11.7838 128.413 11.8918C128.434 11.9025 128.456 11.9025 128.478 11.9133C128.326 11.827 128.185 11.7407 128.034 11.6544C128.066 11.6867 128.11 11.7191 128.142 11.7515C128.478 12.0536 129.04 12.1076 129.365 11.7515C129.354 11.7623 129.343 11.7623 129.332 11.7731C129.69 11.6004 129.938 11.1364 129.928 10.7479C129.906 10.0141 129.679 9.30191 129.278 8.68682C128.759 7.90987 127.276 8.13648 127.363 9.20479Z" fill="#0E0E3A"/>
</svg>
